<svg width="49" height="43" viewBox="0 0 49 43" fill="none" xmlns="http://www.w3.org/2000/svg">
<path fill-rule="evenodd" clip-rule="evenodd" d="M24.6579 0.960449C36.7077 14.8886 44.5343 28.761 48.1377 42.5775C39.6717 41.0034 33.1541 40.1736 27.6045 39.8873L27.6048 31.289C30.1235 30.1281 31.8729 27.5728 31.8729 24.6073C31.8729 20.5492 28.5971 17.2595 24.5563 17.2595C20.5155 17.2595 17.2398 20.5492 17.2398 24.6073C17.2398 27.4923 18.8954 29.989 21.3045 31.1913L21.3043 39.7928C14.2212 39.964 8.32176 41.0908 0.696426 42.5775C7.21494 23.6243 15.2021 9.7519 24.6579 0.960449Z" fill="url(#paint0_linear_7660_3)"/>
<path fill-rule="evenodd" clip-rule="evenodd" d="M24.6993 0.960449C32.278 9.88798 38.6642 19.3806 43.8582 29.4383C44.3149 30.3228 45.7413 31.2203 48.1375 32.1308C44.7819 37.9805 37.953 40.6171 27.651 40.0408L27.6509 31.324C30.1735 30.1617 31.9254 27.6036 31.9254 24.6347C31.9254 20.5719 28.6446 17.2784 24.5975 17.2784L24.5114 17.2792C24.5502 12.4679 24.6128 7.02831 24.6993 0.960449Z" fill="url(#paint1_linear_7660_3)"/>
<defs>
<linearGradient id="paint0_linear_7660_3" x1="4.61233" y1="34.2599" x2="75.3496" y2="34.2599" gradientUnits="userSpaceOnUse">
<stop stop-color="#7ED321"/>
<stop offset="1" stop-color="#007A7C"/>
</linearGradient>
<linearGradient id="paint1_linear_7660_3" x1="33.5485" y1="48.2651" x2="29.3568" y2="-5.93411" gradientUnits="userSpaceOnUse">
<stop stop-color="#7ED321"/>
<stop offset="1" stop-color="#007A7C"/>
</linearGradient>
</defs>
</svg>
