<svg width="438" height="107" viewBox="0 0 438 107" fill="none" xmlns="http://www.w3.org/2000/svg">
<path d="M149.065 42.935C145.472 42.935 142.245 42.1833 139.385 40.68C136.562 39.14 134.325 36.94 132.675 34.08C131.062 31.1833 130.255 27.7367 130.255 23.74C130.255 19.7433 131.098 16.315 132.785 13.455C134.508 10.595 136.8 8.41333 139.66 6.91C142.557 5.37 145.747 4.6 149.23 4.6C151.027 4.6 152.823 4.80167 154.62 5.205C156.417 5.60833 158.195 6.305 159.955 7.295L160.175 15.545H156.38L155.06 8.725C154.253 8.285 153.447 7.97333 152.64 7.79C151.833 7.60666 151.027 7.515 150.22 7.515C148.02 7.515 145.985 8.12 144.115 9.33C142.282 10.5033 140.797 12.3 139.66 14.72C138.56 17.1033 138.01 20.1283 138.01 23.795C138.01 27.425 138.523 30.45 139.55 32.87C140.613 35.2533 142.043 37.0317 143.84 38.205C145.637 39.3783 147.653 39.965 149.89 39.965C151.76 39.965 153.648 39.5433 155.555 38.7L156.875 31.99H160.615L160.395 40.185C158.818 41.065 157.077 41.7433 155.17 42.22C153.263 42.6967 151.228 42.935 149.065 42.935ZM177.222 42.77C174.729 42.77 172.474 42.22 170.457 41.12C168.477 40.02 166.901 38.425 165.727 36.335C164.554 34.245 163.967 31.7517 163.967 28.855C163.967 25.9217 164.572 23.41 165.782 21.32C167.029 19.23 168.661 17.635 170.677 16.535C172.694 15.435 174.876 14.885 177.222 14.885C179.569 14.885 181.751 15.435 183.767 16.535C185.784 17.635 187.416 19.23 188.662 21.32C189.909 23.3733 190.532 25.885 190.532 28.855C190.532 31.7883 189.927 34.3 188.717 36.39C187.544 38.4433 185.949 40.02 183.932 41.12C181.952 42.22 179.716 42.77 177.222 42.77ZM177.222 40.075C179.202 40.075 180.706 39.1583 181.732 37.325C182.796 35.4917 183.327 32.6867 183.327 28.91C183.327 21.3567 181.292 17.58 177.222 17.58C173.189 17.58 171.172 21.3567 171.172 28.91C171.172 32.6867 171.686 35.4917 172.712 37.325C173.739 39.1583 175.242 40.075 177.222 40.075ZM193.868 42V39.745L197.443 39.03C197.479 37.6733 197.498 36.2067 197.498 34.63C197.498 33.0167 197.498 31.6233 197.498 30.45V27.535C197.498 26.0317 197.479 24.84 197.443 23.96C197.443 23.0433 197.406 22.035 197.333 20.935L193.483 20.44V18.35L202.668 14.885L203.548 15.435L203.933 19.67C206.756 16.48 209.873 14.885 213.283 14.885C215.666 14.885 217.499 15.6733 218.783 17.25C220.103 18.8267 220.763 21.32 220.763 24.73V30.45C220.763 31.6967 220.763 33.1083 220.763 34.685C220.763 36.2617 220.781 37.7283 220.818 39.085L224.173 39.745V42H210.588V39.745L214.108 39.03C214.144 37.6733 214.163 36.225 214.163 34.685C214.163 33.1083 214.163 31.6967 214.163 30.45V25.225C214.163 23.0617 213.869 21.5767 213.283 20.77C212.696 19.9267 211.706 19.505 210.313 19.505C208.369 19.505 206.316 20.4033 204.153 22.2V30.45C204.153 31.66 204.153 33.0533 204.153 34.63C204.153 36.2067 204.171 37.6917 204.208 39.085L207.453 39.745V42H193.868ZM236.181 42.77C234.494 42.77 232.936 42.5683 231.506 42.165C230.112 41.7983 228.719 41.23 227.326 40.46L227.271 34.08H230.956L231.946 39.195C233.266 39.745 234.696 40.02 236.236 40.02C238.106 40.02 239.499 39.69 240.416 39.03C241.332 38.37 241.791 37.4533 241.791 36.28C241.791 35.2533 241.424 34.4283 240.691 33.805C239.957 33.145 238.711 32.5217 236.951 31.935L234.201 31C232.147 30.34 230.516 29.3683 229.306 28.085C228.132 26.8017 227.546 25.1883 227.546 23.245C227.546 21.705 227.949 20.3117 228.756 19.065C229.562 17.7817 230.736 16.7733 232.276 16.04C233.852 15.27 235.759 14.885 237.996 14.885C239.572 14.885 241.002 15.0867 242.286 15.49C243.606 15.8567 244.907 16.4067 246.191 17.14L245.916 22.915H242.286L241.296 18.295C240.269 17.855 239.132 17.635 237.886 17.635C236.419 17.635 235.282 17.9467 234.476 18.57C233.669 19.1933 233.266 20.0367 233.266 21.1C233.266 22.09 233.596 22.8967 234.256 23.52C234.952 24.1067 236.236 24.7117 238.106 25.335L240.306 25.995C242.982 26.9117 244.889 28.0483 246.026 29.405C247.162 30.7617 247.731 32.3933 247.731 34.3C247.731 36.7567 246.722 38.7917 244.706 40.405C242.726 41.9817 239.884 42.77 236.181 42.77ZM270.579 42.495L270.139 37.655C267.463 41.065 264.346 42.77 260.789 42.77C258.516 42.77 256.683 42.0367 255.289 40.57C253.933 39.0667 253.273 36.5 253.309 32.87L253.529 19.285L249.954 18.515V16.37L259.579 15.215L260.239 15.82L259.964 23.52V32.65C259.964 34.7033 260.276 36.1517 260.899 36.995C261.559 37.8017 262.494 38.205 263.704 38.205C264.731 38.205 265.776 37.9117 266.839 37.325C267.939 36.7383 268.984 35.9867 269.974 35.07L270.139 19.285L266.674 18.515V16.48L276.079 15.215L276.794 15.82L276.629 23.52V39.03L279.984 39.745V42L270.579 42.495ZM282.774 42V39.745L286.349 39.03C286.386 37.6733 286.404 36.2067 286.404 34.63C286.404 33.0167 286.404 31.6233 286.404 30.45V27.535C286.404 26.0317 286.386 24.84 286.349 23.96C286.349 23.0433 286.313 22.035 286.239 20.935L282.389 20.44V18.35L291.574 14.885L292.454 15.435L292.839 19.725C294.159 18.2217 295.589 17.0483 297.129 16.205C298.706 15.325 300.338 14.885 302.024 14.885C305.581 14.885 307.873 16.5533 308.899 19.89C310.366 18.13 311.888 16.865 313.464 16.095C315.041 15.2883 316.673 14.885 318.359 14.885C320.853 14.885 322.723 15.655 323.969 17.195C325.216 18.735 325.839 21.1917 325.839 24.565V30.45C325.839 31.6967 325.839 33.1083 325.839 34.685C325.839 36.225 325.858 37.6917 325.894 39.085L329.249 39.745V42H315.829V39.745L319.239 39.03C319.276 37.6733 319.294 36.225 319.294 34.685C319.294 33.1083 319.294 31.6967 319.294 30.45V25.39C319.294 23.08 318.983 21.5217 318.359 20.715C317.773 19.9083 316.783 19.505 315.389 19.505C313.446 19.505 311.429 20.44 309.339 22.31C309.376 22.6767 309.394 23.0617 309.394 23.465C309.431 23.8683 309.449 24.29 309.449 24.73V30.45C309.449 31.6967 309.449 33.1083 309.449 34.685C309.449 36.225 309.468 37.6917 309.504 39.085L312.804 39.745V42H299.329V39.745L302.849 39.03C302.886 37.6733 302.904 36.225 302.904 34.685C302.904 33.1083 302.904 31.6967 302.904 30.45V25.5C302.904 23.2633 302.611 21.705 302.024 20.825C301.474 19.945 300.484 19.505 299.054 19.505C298.028 19.505 297.001 19.7617 295.974 20.275C294.984 20.7517 294.013 21.4117 293.059 22.255V30.45C293.059 31.66 293.059 33.0533 293.059 34.63C293.059 36.2067 293.078 37.6917 293.114 39.085L296.359 39.745V42H282.774ZM345.106 17.525C344.226 17.525 343.346 17.8183 342.466 18.405C341.622 18.955 340.889 19.8717 340.266 21.155C339.679 22.4383 339.312 24.18 339.166 26.38H346.701C348.021 26.38 348.901 26.105 349.341 25.555C349.781 25.005 350.001 24.235 350.001 23.245C350.001 21.5583 349.524 20.1833 348.571 19.12C347.617 18.0567 346.462 17.525 345.106 17.525ZM345.106 42.77C342.539 42.77 340.284 42.22 338.341 41.12C336.397 40.02 334.876 38.4433 333.776 36.39C332.676 34.3 332.126 31.825 332.126 28.965C332.126 26.0317 332.749 23.52 333.996 21.43C335.279 19.3033 336.929 17.69 338.946 16.59C340.999 15.4533 343.181 14.885 345.491 14.885C347.654 14.885 349.542 15.3433 351.156 16.26C352.769 17.1767 354.016 18.46 354.896 20.11C355.812 21.76 356.271 23.7033 356.271 25.94C356.271 27.1133 356.161 28.1217 355.941 28.965H339.111C339.257 32.1183 340.082 34.4833 341.586 36.06C343.126 37.6367 345.051 38.425 347.361 38.425C348.974 38.425 350.331 38.1133 351.431 37.49C352.567 36.83 353.594 35.9867 354.511 34.96L356.106 36.39C355.042 38.4067 353.576 39.9833 351.706 41.12C349.872 42.22 347.672 42.77 345.106 42.77ZM359.771 42V39.745L363.291 39.085C363.328 37.6917 363.346 36.2067 363.346 34.63C363.346 33.0167 363.346 31.6233 363.346 30.45V27.535C363.346 26.0317 363.328 24.84 363.291 23.96C363.291 23.0433 363.255 22.035 363.181 20.935L359.331 20.44V18.35L368.516 14.885L369.396 15.435L369.946 21.925C370.79 19.6517 371.926 17.91 373.356 16.7C374.786 15.49 376.216 14.885 377.646 14.885C378.636 14.885 379.535 15.1417 380.341 15.655C381.185 16.1683 381.735 16.9017 381.991 17.855C381.955 19.2117 381.625 20.275 381.001 21.045C380.378 21.7783 379.516 22.145 378.416 22.145C377.096 22.145 375.85 21.485 374.676 20.165L374.181 19.615C372.238 21.2283 370.845 23.5017 370.001 26.435V30.45C370.001 31.5867 370.001 32.9433 370.001 34.52C370.001 36.06 370.02 37.5083 370.056 38.865L374.566 39.745V42H359.771ZM152.475 58.12V55.535H166.335V58.12L161.66 58.835V92.22H158.415L137.68 63.73V88.645L143.73 89.415V92H129.87V89.415L134.545 88.755V59.385L133.885 58.505L130.035 58.12V55.535H140.43L158.525 80.395V58.835L152.475 58.12ZM181.573 92.77C179.08 92.77 176.825 92.22 174.808 91.12C172.828 90.02 171.251 88.425 170.078 86.335C168.905 84.245 168.318 81.7517 168.318 78.855C168.318 75.9217 168.923 73.41 170.133 71.32C171.38 69.23 173.011 67.635 175.028 66.535C177.045 65.435 179.226 64.885 181.573 64.885C183.92 64.885 186.101 65.435 188.118 66.535C190.135 67.635 191.766 69.23 193.013 71.32C194.26 73.3733 194.883 75.885 194.883 78.855C194.883 81.7883 194.278 84.3 193.068 86.39C191.895 88.4433 190.3 90.02 188.283 91.12C186.303 92.22 184.066 92.77 181.573 92.77ZM181.573 90.075C183.553 90.075 185.056 89.1583 186.083 87.325C187.146 85.4917 187.678 82.6867 187.678 78.91C187.678 71.3567 185.643 67.58 181.573 67.58C177.54 67.58 175.523 71.3567 175.523 78.91C175.523 82.6867 176.036 85.4917 177.063 87.325C178.09 89.1583 179.593 90.075 181.573 90.075ZM207.631 92.77C205.431 92.77 203.708 92.22 202.461 91.12C201.214 90.02 200.591 88.26 200.591 85.84C200.591 84.9967 200.591 84.2083 200.591 83.475C200.628 82.705 200.646 81.7883 200.646 80.725V69.01H196.576V66.15L201.031 65.6L203.121 58.065H207.576L207.356 65.655H213.956V69.01H207.301V85.235C207.301 86.5917 207.558 87.5817 208.071 88.205C208.621 88.8283 209.336 89.14 210.216 89.14C211.206 89.14 212.324 88.6817 213.571 87.765L214.891 89.14C214.194 90.2767 213.241 91.175 212.031 91.835C210.821 92.4583 209.354 92.77 207.631 92.77ZM215.981 92V89.745L219.611 89.03C219.648 87.6733 219.666 86.2067 219.666 84.63C219.666 83.0167 219.666 81.6233 219.666 80.45V77.865C219.666 76.3617 219.648 75.115 219.611 74.125C219.611 73.0983 219.574 72.035 219.501 70.935L215.596 70.44V68.35L225.496 64.885L226.376 65.435L226.211 73.19V80.45C226.211 81.6233 226.211 83.0167 226.211 84.63C226.211 86.2067 226.229 87.6917 226.266 89.085L229.621 89.745V92H215.981ZM222.911 59.77C221.738 59.77 220.748 59.4033 219.941 58.67C219.134 57.9367 218.731 57.0017 218.731 55.865C218.731 54.6917 219.134 53.7383 219.941 53.005C220.748 52.2717 221.738 51.905 222.911 51.905C224.084 51.905 225.056 52.2717 225.826 53.005C226.633 53.7383 227.036 54.6917 227.036 55.865C227.036 57.0017 226.633 57.9367 225.826 58.67C225.056 59.4033 224.084 59.77 222.911 59.77ZM245.496 92.77C243.003 92.77 240.766 92.2383 238.786 91.175C236.806 90.075 235.248 88.4983 234.111 86.445C233.011 84.355 232.461 81.8433 232.461 78.91C232.461 75.94 233.085 73.41 234.331 71.32C235.615 69.23 237.301 67.635 239.391 66.535C241.481 65.435 243.755 64.885 246.211 64.885C248.008 64.885 249.621 65.2333 251.051 65.93C252.518 66.59 253.691 67.4883 254.571 68.625C255.488 69.7617 256.038 71.045 256.221 72.475C255.781 74.0883 254.736 74.895 253.086 74.895C251.033 74.895 249.841 73.6117 249.511 71.045L248.796 67.745C248.466 67.6717 248.136 67.6167 247.806 67.58C247.476 67.5433 247.146 67.525 246.816 67.525C245.496 67.525 244.268 67.91 243.131 68.68C242.031 69.4133 241.133 70.5683 240.436 72.145C239.74 73.7217 239.391 75.72 239.391 78.14C239.391 81.4767 240.143 84.025 241.646 85.785C243.186 87.545 245.185 88.425 247.641 88.425C249.108 88.425 250.428 88.095 251.601 87.435C252.775 86.775 253.765 85.8767 254.571 84.74L256.221 85.95C255.305 88.1867 253.93 89.8917 252.096 91.065C250.3 92.2017 248.1 92.77 245.496 92.77ZM272.286 67.525C271.406 67.525 270.526 67.8183 269.646 68.405C268.803 68.955 268.07 69.8717 267.446 71.155C266.86 72.4383 266.493 74.18 266.346 76.38H273.881C275.201 76.38 276.081 76.105 276.521 75.555C276.961 75.005 277.181 74.235 277.181 73.245C277.181 71.5583 276.705 70.1833 275.751 69.12C274.798 68.0567 273.643 67.525 272.286 67.525ZM272.286 92.77C269.72 92.77 267.465 92.22 265.521 91.12C263.578 90.02 262.056 88.4433 260.956 86.39C259.856 84.3 259.306 81.825 259.306 78.965C259.306 76.0317 259.93 73.52 261.176 71.43C262.46 69.3033 264.11 67.69 266.126 66.59C268.18 65.4533 270.361 64.885 272.671 64.885C274.835 64.885 276.723 65.3433 278.336 66.26C279.95 67.1767 281.196 68.46 282.076 70.11C282.993 71.76 283.451 73.7033 283.451 75.94C283.451 77.1133 283.341 78.1217 283.121 78.965H266.291C266.438 82.1183 267.263 84.4833 268.766 86.06C270.306 87.6367 272.231 88.425 274.541 88.425C276.155 88.425 277.511 88.1133 278.611 87.49C279.748 86.83 280.775 85.9867 281.691 84.96L283.286 86.39C282.223 88.4067 280.756 89.9833 278.886 91.12C277.053 92.22 274.853 92.77 272.286 92.77ZM316.256 92.77C313.763 92.77 311.508 92.22 309.491 91.12C307.511 90.02 305.935 88.425 304.761 86.335C303.588 84.245 303.001 81.7517 303.001 78.855C303.001 75.9217 303.606 73.41 304.816 71.32C306.063 69.23 307.695 67.635 309.711 66.535C311.728 65.435 313.91 64.885 316.256 64.885C318.603 64.885 320.785 65.435 322.801 66.535C324.818 67.635 326.45 69.23 327.696 71.32C328.943 73.3733 329.566 75.885 329.566 78.855C329.566 81.7883 328.961 84.3 327.751 86.39C326.578 88.4433 324.983 90.02 322.966 91.12C320.986 92.22 318.75 92.77 316.256 92.77ZM316.256 90.075C318.236 90.075 319.74 89.1583 320.766 87.325C321.83 85.4917 322.361 82.6867 322.361 78.91C322.361 71.3567 320.326 67.58 316.256 67.58C312.223 67.58 310.206 71.3567 310.206 78.91C310.206 82.6867 310.72 85.4917 311.746 87.325C312.773 89.1583 314.276 90.075 316.256 90.075ZM332.957 92V89.745L336.477 89.085C336.513 87.6917 336.532 86.2067 336.532 84.63C336.532 83.0167 336.532 81.6233 336.532 80.45V77.535C336.532 76.0317 336.513 74.84 336.477 73.96C336.477 73.0433 336.44 72.035 336.367 70.935L332.517 70.44V68.35L341.702 64.885L342.582 65.435L343.132 71.925C343.975 69.6517 345.112 67.91 346.542 66.7C347.972 65.49 349.402 64.885 350.832 64.885C351.822 64.885 352.72 65.1417 353.527 65.655C354.37 66.1683 354.92 66.9017 355.177 67.855C355.14 69.2117 354.81 70.275 354.187 71.045C353.563 71.7783 352.702 72.145 351.602 72.145C350.282 72.145 349.035 71.485 347.862 70.165L347.367 69.615C345.423 71.2283 344.03 73.5017 343.187 76.435V80.45C343.187 81.5867 343.187 82.9433 343.187 84.52C343.187 86.06 343.205 87.5083 343.242 88.865L347.752 89.745V92H332.957ZM367.369 80.34C368.909 80.34 370.083 79.735 370.889 78.525C371.696 77.315 372.099 75.7017 372.099 73.685C372.099 71.7417 371.696 70.2017 370.889 69.065C370.119 67.8917 369.001 67.305 367.534 67.305C366.068 67.305 364.913 67.91 364.069 69.12C363.263 70.2933 362.859 71.87 362.859 73.85C362.859 75.83 363.244 77.4067 364.014 78.58C364.784 79.7533 365.903 80.34 367.369 80.34ZM360.439 97.115C360.439 98.8017 361.063 100.03 362.309 100.8C363.556 101.57 365.334 101.955 367.644 101.955C370.541 101.955 372.723 101.478 374.189 100.525C375.693 99.5717 376.444 98.4167 376.444 97.06C376.444 96.0333 376.078 95.1533 375.344 94.42C374.648 93.6867 373.419 93.32 371.659 93.32H365.554C364.198 93.32 362.988 93.21 361.924 92.99C360.934 94.31 360.439 95.685 360.439 97.115ZM367.479 82.76C365.829 82.76 364.308 82.5583 362.914 82.155C362.218 83.1083 361.869 84.1167 361.869 85.18C361.869 85.8767 362.089 86.4267 362.529 86.83C363.006 87.2333 363.849 87.435 365.059 87.435H371.934C375.528 87.435 378.094 88.1133 379.634 89.47C381.174 90.8267 381.944 92.66 381.944 94.97C381.944 96.6933 381.376 98.3067 380.239 99.81C379.139 101.313 377.489 102.523 375.289 103.44C373.126 104.357 370.413 104.815 367.149 104.815C364.326 104.815 362.053 104.522 360.329 103.935C358.643 103.348 357.414 102.56 356.644 101.57C355.911 100.58 355.544 99.48 355.544 98.27C355.544 97.0967 355.929 96.015 356.699 95.025C357.469 94.0717 358.734 93.1733 360.494 92.33C359.358 91.9267 358.514 91.3583 357.964 90.625C357.414 89.855 357.139 88.975 357.139 87.985C357.139 86.9217 357.451 85.8767 358.074 84.85C358.734 83.7867 359.743 82.6317 361.099 81.385C358.203 79.9183 356.754 77.4067 356.754 73.85C356.754 71.1367 357.708 68.9733 359.614 67.36C361.521 65.71 364.143 64.885 367.479 64.885C370.816 64.885 373.419 65.655 375.289 67.195L381.504 64.83L382.329 65.38V69.23H376.994C377.764 70.4767 378.149 72.0167 378.149 73.85C378.149 76.5267 377.214 78.69 375.344 80.34C373.474 81.9533 370.853 82.76 367.479 82.76Z" fill="#1A1A1A"/>
<path d="M293.277 92.77C292.03 92.77 290.985 92.3483 290.142 91.505C289.299 90.625 288.877 89.5983 288.877 88.425C288.877 87.1783 289.299 86.115 290.142 85.235C290.985 84.355 292.03 83.915 293.277 83.915C294.524 83.915 295.569 84.355 296.412 85.235C297.255 86.115 297.677 87.1783 297.677 88.425C297.677 89.5983 297.255 90.625 296.412 91.505C295.569 92.3483 294.524 92.77 293.277 92.77Z" fill="#49C5FD"/>
<path d="M38.515 70.035C39.9817 70.035 41.5217 69.6867 43.135 68.99L44.675 61.95H48.855L48.635 70.42C47.1317 71.2267 45.4267 71.8867 43.52 72.4C41.6133 72.95 39.4683 73.225 37.085 73.225C34.445 73.225 31.9517 72.84 29.605 72.07C27.295 71.2633 25.2783 70.0717 23.555 68.495C21.8317 66.8817 20.475 64.8833 19.485 62.5C18.495 60.1167 18 57.3117 18 54.085C18 50.8583 18.5317 48.0533 19.595 45.67C20.6583 43.25 22.07 41.2517 23.83 39.675C25.6267 38.0983 27.6983 36.925 30.045 36.155C32.3917 35.385 34.8667 35 37.47 35C39.56 35 41.4667 35.2383 43.19 35.715C44.9133 36.155 46.6 36.8333 48.25 37.75L48.47 46.275H44.29L42.695 39.07C41.4483 38.4467 40.1283 38.135 38.735 38.135C37.2683 38.135 35.875 38.4467 34.555 39.07C33.235 39.6933 32.0617 40.6467 31.035 41.93C30.045 43.2133 29.2383 44.8817 28.615 46.935C28.0283 48.9517 27.735 51.3533 27.735 54.14C27.735 56.9633 28.01 59.3833 28.56 61.4C29.1467 63.38 29.935 65.0117 30.925 66.295C31.915 67.5783 33.0517 68.5317 34.335 69.155C35.655 69.7417 37.0483 70.035 38.515 70.035Z" fill="#1A1A1A"/>
<path d="M51.8839 72.18V69.21L56.5589 68.55V40.39L55.7889 39.345L51.9939 39.015V36.045H64.4239L80.5939 58.265V39.73L74.3239 39.015V36.045H88.7889V39.015L84.1139 39.73V72.29H79.4939L60.1339 45.395V68.495L66.4039 69.21V72.18H51.8839Z" fill="#1A1A1A"/>
<rect y="101" width="107" height="6" fill="#49C5FD"/>
<rect x="9.53674e-06" width="107" height="6" fill="#FD5558"/>
<rect x="107" y="6" width="101" height="6" transform="rotate(90 107 6)" fill="#F3A536"/>
<rect x="6" width="101" height="6" transform="rotate(90 6 0)" fill="#AA28FB"/>
</svg>
