<svg width="702" height="689" viewBox="0 0 702 689" fill="none" xmlns="http://www.w3.org/2000/svg">
<circle cx="76.6184" cy="174.347" r="60.5" fill="#04A2B9"/>
<path fill-rule="evenodd" clip-rule="evenodd" d="M342.118 15.8467L391.118 64.8467L342.118 113.847L293.118 64.8467L342.118 15.8467Z" fill="#FF3B3F"/>
<path fill-rule="evenodd" clip-rule="evenodd" d="M433.118 248.847L457.118 272.847L433.118 296.847L409.118 272.847L433.118 248.847Z" fill="#04A2B9"/>
<path fill-rule="evenodd" clip-rule="evenodd" d="M552.118 162.847L564.118 174.847L552.118 186.847L540.118 174.847L552.118 162.847Z" fill="#FF3B3F"/>
<g filter="url(#filter0_d_1_18344)">
<rect x="103.443" y="63.0427" width="251" height="516" rx="36.45" fill="white"/>
</g>
<g clip-path="url(#clip0_1_18344)">
<path fill-rule="evenodd" clip-rule="evenodd" d="M138.743 74.0427C125.322 74.0427 114.443 84.9222 114.443 98.3427V543.061C114.443 556.482 125.322 567.361 138.743 567.361H318.417C331.837 567.361 342.717 556.482 342.717 543.061V98.3427C342.717 84.9222 331.837 74.0427 318.417 74.0427H290.407V78.0938C290.407 85.6987 284.242 91.8638 276.637 91.8638H181.213C173.608 91.8638 167.443 85.6987 167.443 78.0938V74.0427H138.743Z" fill="#F2F2F2"/>
<mask id="mask0_1_18344" style="mask-type:luminance" maskUnits="userSpaceOnUse" x="114" y="74" width="229" height="494">
<path fill-rule="evenodd" clip-rule="evenodd" d="M138.743 74.0427C125.322 74.0427 114.443 84.9222 114.443 98.3427V543.061C114.443 556.482 125.322 567.361 138.743 567.361H318.417C331.837 567.361 342.717 556.482 342.717 543.061V98.3427C342.717 84.9222 331.837 74.0427 318.417 74.0427H290.407V78.0938C290.407 85.6987 284.242 91.8638 276.637 91.8638H181.213C173.608 91.8638 167.443 85.6987 167.443 78.0938V74.0427H138.743Z" fill="white"/>
</mask>
<g mask="url(#mask0_1_18344)">
<path fill-rule="evenodd" clip-rule="evenodd" d="M409.329 706.51C391.305 710.452 371.404 710.15 353.045 709.825C254.583 708.485 157.896 661.823 94.9694 587.265C41.3997 523.792 26.6694 444.877 16.0863 365.104C15.0371 357.183 14.5871 349.313 13.9952 341.377C13.8679 339.673 13.678 338.154 13.4752 336.724C9.31314 332.999 7.12978 328.657 9.59343 323.886C0.424805 303.802 -7.33128 283.209 -13.9865 261.969C-33.574 199.449 -53.499 135.742 -41.225 70C-38.3575 106.178 -32.3256 143.173 -25.1116 178.757C-24.6967 180.799 -24.2486 182.826 -23.7821 184.846C-23.7341 185.059 -23.6899 185.272 -23.6419 185.483C-21.0879 196.38 -17.7686 206.951 -13.732 217.355C-13.6896 217.469 -13.649 217.581 -13.6047 217.693C-13.0718 219.062 -12.5057 220.424 -11.9469 221.786C-10.7907 224.606 -9.60315 227.42 -8.34366 230.219C-7.91769 231.173 -7.50831 232.136 -7.11552 233.106C-1.23853 247.524 1.24357 263.769 6.50834 278.688C7.76782 282.08 9.08447 285.459 10.4638 288.821C10.545 289.018 10.6279 289.215 10.7109 289.411C14.4396 298.457 18.5592 307.393 22.9149 316.235C25.2826 318.016 26.5477 322.434 28.589 326.449C29.0113 327.241 32.3122 332.517 33.295 335.557C35.8601 340.524 38.416 345.493 40.9995 350.451C40.922 350.422 40.8446 350.394 40.7671 350.365C43.3525 355.126 45.9452 359.868 48.5177 364.589C49.0838 365.626 49.6555 366.665 50.2253 367.705C51.1492 369.361 52.073 371.016 52.995 372.667C61.6197 388.116 70.7643 403.256 80.2612 418.209C83.6506 423.545 91.7478 431.196 93.3005 437.187C93.3577 437.411 93.3706 437.617 93.4056 437.832C114.013 466.803 137.737 493.526 166.187 514.699C162.748 510.978 155.438 498.35 153.505 495.85C147.591 488.195 141.17 481.069 134.725 473.857C123.183 460.937 111.914 447.606 101.901 433.51C83.5897 407.731 67.7917 380.6 52.8586 352.924C52.7166 352.762 52.5617 352.608 52.4271 352.442C44.9218 343.181 40.1973 329.184 34.7943 318.59C56.176 328.503 79.8186 334.961 101.763 343.763C123.646 352.538 144.934 362.31 165.486 373.785C192.802 389.035 221.138 406.255 246.947 425.741C276.524 444.106 301.378 469.383 323.317 495.908C349.273 527.292 373.062 558.951 387.774 597.058C395 615.784 400.686 635.31 404.057 655.064C404.204 655.925 404.392 656.859 404.597 657.829C408.045 664.651 411.128 671.627 413.716 678.764C417.824 690.082 427.528 702.533 409.329 706.51" fill="#FFD101"/>
<path fill-rule="evenodd" clip-rule="evenodd" d="M568.362 575.832C558.393 586.556 543.169 592.281 529.035 595.548C473.828 608.311 417.223 599.866 365.373 579.772C336.961 568.762 310.087 552.589 285.585 534.947C271.443 524.762 258.272 513.253 247.66 499.519C240.498 490.249 234.732 480.198 229.943 469.564C224.106 456.604 218.761 443.239 214.605 429.652C212.969 424.302 203.148 396.175 212.096 393.591C211.88 392.892 211.712 392.216 211.627 391.596C184.873 365.443 164.421 332.272 145.282 300.765C128.63 273.347 112.988 245.431 100.234 216.033C83.4428 177.328 69.0744 137.423 57.2852 96.9498C54.7521 88.2516 52.3749 79.5127 50.0436 70.7553C48.057 63.2854 46.067 55.8164 44.0836 48.3458C41.8621 39.9734 38.1343 30.6046 37.5452 21.907C37.031 14.3326 43.6205 13.9736 45.5761 21.1774C47.9383 29.8767 49.9108 38.6842 52.3209 47.3792C55.5207 58.9185 58.736 70.4543 61.9948 81.9767C84.6411 162.017 117.963 238.336 163.148 308.442C181.434 336.812 200.965 363.156 223.987 387.988C244.228 409.821 267.213 430.175 290.197 448.767C312.536 466.833 335.442 484.232 360.891 498.031C381.542 509.228 403.458 518.076 425.69 525.883C453.927 535.799 482.03 545.347 511.481 551.161C526.789 554.183 542.209 556.492 557.568 559.237C560.332 559.731 563.269 560.15 565.976 560.836C575.004 563.124 573.789 569.994 568.362 575.832" fill="#C1DEE2"/>
<path fill-rule="evenodd" clip-rule="evenodd" d="M75.9488 -11.0576C108.592 -2.31099 136.495 9.74223 163.072 30.8611C186.014 49.089 205.676 70.3501 224.295 92.7505C250.485 124.256 268.812 157.667 277.186 197.674C282.189 221.575 282.016 253.451 268.717 274.494C253.051 299.278 223.89 315.635 194.718 302.712C176.679 294.723 162.78 277.551 151.634 261.907C138.301 243.192 129.149 222.533 122.889 200.634C112.677 164.911 111.153 127.212 104.091 90.8506C100.74 73.5934 97.669 56.2942 92.6445 39.4004C90.1575 31.0347 87.3671 22.6614 82.1049 15.5297C79.2892 11.7151 65.516 2.72729 73.0079 -2.13827C-11.943 -23.7014 -104.472 21.6543 -142.43 98.3137C-145.967 105.459 -149.189 112.755 -152.475 120.017C-154.549 124.603 -158.971 142.38 -164.052 144.303C-175.259 148.546 -165.806 129.067 -164.611 126.218C-161.521 118.855 -158.363 111.517 -155.155 104.206C-137.699 64.4443 -109.036 30.813 -70.5356 9.43679C-26.5093 -15.0066 26.5447 -24.2954 75.9488 -11.0576Z" fill="#FFD101"/>
</g>
</g>
<path fill-rule="evenodd" clip-rule="evenodd" d="M384.022 176.184C386.27 185.955 390.336 193.761 393.821 195.903C402.562 201.273 429.305 176.717 434.258 161.248C439.211 145.779 416.247 113.02 394.47 131.281C386.911 137.619 383.469 146.694 382.561 156.069L338.249 183.623L360.365 206.524L384.022 176.184Z" fill="#C39D63"/>
<path fill-rule="evenodd" clip-rule="evenodd" d="M446.548 154.648C441.457 159.564 433.439 159.583 428.314 154.81C424.223 152.554 419.441 148.994 414.721 144.521C412.928 148.776 410.055 153.007 406.2 156.73C405.962 156.96 405.722 157.186 405.481 157.408C406.146 154.928 405.669 152.365 403.96 150.595C401.161 147.697 396.118 148.025 392.697 151.328C389.277 154.632 388.772 159.66 391.571 162.558C392.471 163.49 393.603 164.088 394.838 164.362C386.405 167.944 377.859 167.429 372.827 162.218C368.015 157.236 367.607 149.189 370.97 141.234C364.58 139.346 357.745 135.158 351.822 129.025C339.353 116.113 335.645 99.466 343.54 91.8424C351.434 84.2189 367.942 88.5056 380.41 101.417C386.333 107.551 390.28 114.528 391.944 120.98C395.256 119.714 398.56 119.084 401.639 119.126C405.705 117.766 415.626 123.301 425.157 132.505C426.2 133.511 427.198 134.524 428.148 135.535C433.413 130.482 441.783 130.644 446.862 135.904C451.952 141.174 451.811 149.566 446.548 154.648Z" fill="#333333"/>
<path fill-rule="evenodd" clip-rule="evenodd" d="M247.661 267.647L303.39 451.457L341.353 604.571L356.793 608.42L310.292 283.263L247.661 267.647Z" fill="#C39D63"/>
<path fill-rule="evenodd" clip-rule="evenodd" d="M336.837 594.986C335.919 594.257 334.569 594.413 333.907 595.379C332.329 597.685 329.75 601.691 329.158 604.068C328.289 607.551 327.783 614.523 327.783 614.523C331.82 615.53 400.358 632.618 400.358 632.618C400.358 632.618 405.52 623.964 399.611 621.698C393.702 619.432 389.821 617.825 389.821 617.825L359.577 594.159C359.133 593.812 358.49 593.899 358.156 594.353L354.476 599.347C354.476 599.347 348.176 600.574 344.649 599.695C342.297 599.109 338.864 596.596 336.837 594.986Z" fill="#E4E4E4"/>
<path fill-rule="evenodd" clip-rule="evenodd" d="M326.844 577.951L358.867 576.361C358.867 576.361 353.895 512.939 343.026 435.553C332.156 358.167 315.859 284.651 315.859 284.651L231.762 263.683C231.762 263.683 247.384 355.433 271.133 433.154C294.882 510.875 326.844 577.951 326.844 577.951Z" fill="#414F64"/>
<path fill-rule="evenodd" clip-rule="evenodd" d="M241.377 266.081C218.337 320.045 183.025 387.526 180.83 389.333C179.367 390.538 136.649 393.929 52.6757 399.506L52.6137 413.963C148.667 423.692 200.11 425.486 206.942 419.345C217.191 410.133 276.391 331.933 304.278 281.764L241.377 266.081Z" fill="#B28B67"/>
<path fill-rule="evenodd" clip-rule="evenodd" d="M82.9424 394.542L83.3456 417.952C151.174 441.328 194.76 447.524 214.104 436.539C233.449 425.554 265.136 374.369 309.166 282.982L228.975 262.988C196.626 338.746 179.29 378.094 176.967 381.034C174.644 383.973 143.303 388.476 82.9424 394.542Z" fill="#414F64"/>
<path fill-rule="evenodd" clip-rule="evenodd" d="M59.4443 397.949C60.0024 396.919 59.6149 395.616 58.5481 395.132C56.0034 393.978 51.6102 392.135 49.1668 391.964C45.5857 391.713 38.632 392.425 38.632 392.425C38.3417 396.576 33.4144 467.04 33.4144 467.04C33.4144 467.04 42.8336 470.621 44.039 464.408C45.2445 458.196 46.1526 454.094 46.1526 454.094L64.2075 420.2C64.4725 419.703 64.2743 419.085 63.7694 418.834L58.2128 416.077C58.2128 416.077 55.9098 410.087 56.1634 406.46C56.3325 404.043 58.2107 400.225 59.4443 397.949Z" fill="#E4E4E4"/>
<path fill-rule="evenodd" clip-rule="evenodd" d="M381.211 377.927L364.348 328.242L343.44 341.792L367.811 380.037C369.545 398.221 371.649 406.768 374.123 405.679C376.21 404.761 376.499 402.737 376.766 400.872C376.973 399.42 377.167 398.064 378.185 397.404C380.512 395.896 386.878 400.683 392.725 405.484C398.572 410.284 398.694 406.278 398.153 403.879C394.486 395.693 388.839 387.042 381.211 377.927ZM168.07 295.437C175.774 291.215 230.667 235.935 230.667 235.935L253.315 251.918C253.315 251.918 184.785 304.991 180.202 307.965C174.249 311.83 172.463 322.248 171.252 329.312C171.065 330.405 170.891 331.417 170.718 332.313C166.148 331.432 165.793 328.382 165.419 325.167C164.996 321.536 164.548 317.694 157.975 316.527C155.436 316.076 152.886 315.859 150.394 315.648C141.788 314.917 133.882 314.245 129.536 304.184C128.847 302.589 129.488 298.848 134.237 298.897C146.068 299.018 164.304 297.501 168.07 295.437Z" fill="#C39D63"/>
<path fill-rule="evenodd" clip-rule="evenodd" d="M361.809 185.949L372.331 190.92C386.135 245.413 360.001 313.226 381.302 373.764L362.103 379.294C294.394 318.209 325.362 234.858 361.809 185.949Z" fill="#047889"/>
<path fill-rule="evenodd" clip-rule="evenodd" d="M238.281 275.203C238.281 275.203 294.793 314.773 321.42 333.417C325.219 336.078 328.339 330.098 329.726 326.949C345.727 290.607 345.067 238.891 376.866 193.476L355.515 172.929C313.371 190.898 279.047 225.32 238.281 275.203Z" fill="#DDE3E9"/>
<path fill-rule="evenodd" clip-rule="evenodd" d="M212.976 291.445C202.964 297.791 193.824 303.045 186.166 306.634L168.335 294.149C209.79 230.863 266.647 199.643 306.423 184.665C302.277 181.298 299.616 176.717 300.267 170.487C302.562 148.555 311.816 142.076 323.185 145.776C329.437 147.811 333.53 152.276 338.43 157.621C342.439 161.994 346.988 166.957 353.703 171.659C353.705 171.661 353.707 171.663 353.709 171.664C354.36 172.12 354.922 172.578 355.401 173.038L363.041 179.063C363.041 179.063 318.78 311.039 278.69 337.459L212.976 291.445Z" fill="#04A2B9"/>
<path fill-rule="evenodd" clip-rule="evenodd" d="M212.976 291.445C226.112 283.119 240.749 272.915 255.512 262.128C246.383 278.998 238.404 296.776 237.537 308.643L212.976 291.445Z" fill="black" fill-opacity="0.1"/>
<path fill-rule="evenodd" clip-rule="evenodd" d="M540.071 332.866C531.157 336.643 522.745 337.891 519.09 336.385C509.925 332.609 513.917 297.864 523.192 285.249C532.466 272.634 571.12 272 569.226 299.311C568.568 308.79 563.432 316.609 556.621 322.622L560.271 372.76L529.804 368.478L540.071 332.866Z" fill="#976B27"/>
<path fill-rule="evenodd" clip-rule="evenodd" d="M531.322 277.213C532.078 276.897 533.661 276.228 534.446 276.015C534.631 275.963 535.979 275.265 536.011 275.28C536.895 275.722 539.42 277.251 539.511 278.277C539.536 278.357 539.561 278.433 539.587 278.5C539.871 279.242 540.121 279.997 540.354 280.759C540.865 282.431 541.265 284.159 541.64 285.871C542.369 289.204 542.933 292.589 543.415 295.971C543.905 299.413 544.245 302.873 544.685 306.322C545.319 311.286 546.335 316.183 546.96 321.143C547.359 324.31 547.386 327.461 546.728 330.57C546.72 330.607 546.714 330.644 546.705 330.682C546.701 330.698 546.697 330.713 546.694 330.729C546.589 331.206 546.468 331.682 546.33 332.158C546.21 332.564 546.09 332.972 545.965 333.379C545.111 330.862 544.571 328.144 543.957 325.551C543.897 325.297 543.842 325.042 543.788 324.786C543.549 324.244 543.303 323.705 543.053 323.167C541.479 319.774 539.894 316.392 538.41 312.954C535.741 306.772 533.121 300.474 529.742 294.667C528.744 292.952 527.715 291.257 526.734 289.531C526.176 288.549 525.638 287.555 525.124 286.548C524.756 285.828 523.078 283.262 523.995 281.991C524.464 281.34 529.361 278.035 531.322 277.213Z" fill="#2C2C2C"/>
<path fill-rule="evenodd" clip-rule="evenodd" d="M534.209 276.098C533.499 276.23 534.026 274.871 534.753 274.468C538.121 272.604 549.88 273.409 559.717 276.926C566.307 279.283 573.711 283.883 578.501 289.133C582.819 293.865 585.269 300.823 586.119 307.332C587.011 314.167 586.322 321.065 584.362 327.669C583.931 329.12 583.255 330.465 582.784 331.878C582.255 333.47 581.88 335.021 581.122 336.535C580.658 337.462 579.968 338.338 579.551 339.277C579.076 340.349 579.125 341.409 579.198 342.577C579.316 344.482 579.526 346.395 579.946 348.257C580.575 351.052 581.442 353.709 581.817 356.571C582.317 360.379 584.886 372.904 581.326 375.719L522.273 367.42C524.327 363.591 529.459 359.467 530.97 355.271C531.86 352.8 532.894 347.275 532.979 347.08C535.593 338.136 538.804 334.14 540.654 332.786C542.504 331.433 544.74 331.25 545.044 329.893C546.304 324.281 544.8 318.522 543.882 312.989C542.787 306.395 542.244 299.719 541.086 293.138C540.572 290.224 537.899 275.415 534.209 276.098Z" fill="#776EA7"/>
<path fill-rule="evenodd" clip-rule="evenodd" d="M553.356 306.251C555.186 296.708 555.235 292.886 553.996 285.54L555.369 285.733C557.148 288.829 557.764 297.622 554.449 306.405L553.356 306.251ZM580.297 309.572C580.617 309.022 580.944 308.458 581.282 307.88L582.096 308.423C577.957 318.077 573.54 325.355 561.157 330.218L560.35 329.466C572.266 323.387 575.382 318.026 580.297 309.572ZM564.99 297.786L564.99 297.786C561.567 310.264 559.397 318.176 548.148 331.489L549.148 331.955C561.135 319.83 564.277 308.991 566.641 295.504L565.677 295.288C565.441 296.141 565.213 296.973 564.99 297.786ZM569.869 337.873L570.61 339.08C566.002 339.384 562.498 342.234 558.48 345.501C554.229 348.958 549.404 352.881 542.089 354.75L540.915 353.796C549.011 350.95 553.068 347.561 556.61 344.602C560.277 341.538 563.393 338.936 569.869 337.873Z" fill="black" fill-opacity="0.2"/>
<path fill-rule="evenodd" clip-rule="evenodd" d="M400.376 568.546C402.762 594.503 400.378 650.298 399.094 666.393C398.288 676.508 384.439 673.86 383.146 665.765C382.927 664.393 382.035 659.575 380.703 652.386C374.174 617.133 357.087 524.871 357.057 502.437C357.043 492.131 380.134 483.894 389.304 496.418C396.88 491.069 407.668 489.588 414.293 500.306C419.292 508.393 431.164 531.355 443.821 558.17C454.91 581.662 472.206 638.701 472.206 638.701L457.441 645.44C457.441 645.44 421.017 586.998 398.131 546.083C398.896 553.146 399.656 560.711 400.376 568.546Z" fill="#976B27"/>
<path fill-rule="evenodd" clip-rule="evenodd" d="M471.166 617.577L420.697 498.096C408.593 478.666 374.542 502.122 378.663 513.395C388.018 538.991 435.669 621.828 438.456 629.454L471.166 617.577Z" fill="#333333"/>
<path fill-rule="evenodd" clip-rule="evenodd" d="M355.775 511.766C355.775 545.636 370.688 625.249 370.699 632.707L406.826 631.494C406.826 631.494 397.354 527.666 398.837 526.962C401.062 525.907 490.042 539.221 516.729 540.227C555.211 541.676 571.131 518.175 572.423 473.578L497.881 473.578C497.881 473.578 402.271 484.939 372.203 489.381C359.331 491.283 355.775 502.436 355.775 511.766Z" fill="#333333"/>
<path fill-rule="evenodd" clip-rule="evenodd" d="M471.018 634.042C471.935 633.318 473.281 633.471 473.942 634.435C475.468 636.659 477.916 640.461 478.48 642.726C479.315 646.076 479.796 652.78 479.796 652.78C475.893 653.754 409.64 670.272 409.64 670.272C409.64 670.272 404.662 661.955 410.375 659.768C416.088 657.582 419.841 656.032 419.841 656.032L449.071 633.251C449.515 632.906 450.156 632.994 450.49 633.445L454.019 638.216C454.019 638.216 460.105 639.389 463.515 638.539C465.768 637.977 469.05 635.594 471.018 634.042Z" fill="#E4E4E4"/>
<path fill-rule="evenodd" clip-rule="evenodd" d="M398.067 645.643C399.132 645.163 400.401 645.637 400.809 646.732C401.751 649.259 403.206 653.541 403.206 655.875C403.206 659.326 402.051 665.949 402.051 665.949C398.028 665.949 329.747 665.949 329.747 665.949C329.747 665.949 326.929 656.674 333.001 655.934C339.073 655.195 343.09 654.599 343.09 654.599L376.963 639.567C377.477 639.339 378.078 639.579 378.293 640.098L380.563 645.58C380.563 645.58 386.185 648.191 389.699 648.191C392.021 648.191 395.782 646.673 398.067 645.643Z" fill="#E4E4E4"/>
<rect width="67.9429" height="8.93265" rx="4" transform="matrix(-1 0 0 1 401.924 665.948)" fill="#414F64"/>
<path d="M589.088 490.915C589.088 485.392 584.611 480.915 579.088 480.915H436.281C430.758 480.915 426.281 485.392 426.281 490.915V556.204H585.088C587.297 556.204 589.088 554.413 589.088 552.204V490.915Z" fill="#414F64"/>
<path fill-rule="evenodd" clip-rule="evenodd" d="M439.101 480.915H433.888C428.993 480.915 424.818 484.458 424.021 489.287L395.515 662.12H409.213" fill="#414F64"/>
<ellipse cx="23.0749" cy="22.9697" rx="23.0749" ry="22.9697" transform="matrix(-1 0 0 1 424.999 641.703)" fill="#354052"/>
<rect width="10.2555" height="168.444" transform="matrix(-1 0 0 1 577.55 503.885)" fill="#E3E3E3"/>
<rect width="10.2555" height="168.444" rx="2" transform="matrix(-0.707107 0.707107 0.707107 0.707107 516.494 524.927)" fill="#E3E3E3"/>
<rect width="10.2555" height="168.444" rx="2" transform="matrix(0 1 1 0 488.2 582.979)" fill="#E3E3E3"/>
<rect width="10.2555" height="168.444" rx="2" transform="matrix(0.707107 0.707107 0.707107 -0.707107 509.243 644.035)" fill="#E3E3E3"/>
<path fill-rule="evenodd" clip-rule="evenodd" d="M572.423 685.09C518.615 685.09 474.995 641.669 474.995 588.107C474.995 534.544 518.615 491.124 572.423 491.124C626.23 491.124 669.85 534.544 669.85 588.107C669.85 641.669 626.23 685.09 572.423 685.09ZM572.423 667.224C528.527 667.224 492.942 631.802 492.942 588.107C492.942 544.411 528.527 508.989 572.423 508.989C616.318 508.989 651.903 544.411 651.903 588.107C651.903 631.802 616.318 667.224 572.423 667.224Z" fill="#191847"/>
<path fill-rule="evenodd" clip-rule="evenodd" d="M404.361 399.725L453.526 413.575L441.392 434.665L402.978 412.898C385.206 412.156 376.788 410.551 377.723 408.081C378.512 405.999 380.466 405.612 382.267 405.255C383.669 404.977 384.978 404.718 385.569 403.69C386.919 401.343 381.945 395.387 376.984 389.937C372.023 384.487 375.914 384.159 378.274 384.561C386.419 387.71 395.115 392.764 404.361 399.725ZM631.008 556.58C628.338 548.538 609.299 447.214 609.299 447.214L581.496 443.386C581.496 443.386 612.901 552.309 614.184 557.418C615.851 564.056 610.258 572.566 606.465 578.336C605.879 579.229 605.335 580.056 604.868 580.801C608.68 583.187 610.938 581.274 613.318 579.256C616.007 576.978 618.852 574.567 624.268 578.07C626.361 579.423 628.307 580.949 630.208 582.439C636.776 587.587 642.809 592.316 652.503 588.091C654.04 587.421 656.049 584.365 652.658 581.275C644.211 573.576 632.314 560.511 631.008 556.58Z" fill="#976B27"/>
<path fill-rule="evenodd" clip-rule="evenodd" d="M545.576 348.765L523.607 347.158C511.443 394.679 477.948 421.079 414.031 401.595L396.584 462.543C456.576 478.965 513.593 462.125 533.867 397.738C539.115 381.07 543.863 363.624 545.576 348.765Z" fill="#E61C20"/>
<path fill-rule="evenodd" clip-rule="evenodd" d="M628.928 543.494C625.065 461.334 601.873 394.931 559.35 344.286L557.262 343.992L557.191 343.982L557.171 344L523.137 346.883C517.596 386.315 504.642 414.539 492.188 441.675C486.81 453.393 481.526 464.908 476.971 477.035L566.032 489.552C565.271 504.072 563.969 518.923 562.243 534.121L628.928 543.494Z" fill="#FF3B3F"/>
<path fill-rule="evenodd" clip-rule="evenodd" d="M566.032 489.552C567.582 459.99 566.893 431.8 562.992 404.846C560.753 432.77 556.384 467.189 547.931 487.008L566.032 489.552Z" fill="black" fill-opacity="0.1"/>
<defs>
<filter id="filter0_d_1_18344" x="59.4429" y="51.0427" width="319" height="584" filterUnits="userSpaceOnUse" color-interpolation-filters="sRGB">
<feFlood flood-opacity="0" result="BackgroundImageFix"/>
<feColorMatrix in="SourceAlpha" type="matrix" values="0 0 0 0 0 0 0 0 0 0 0 0 0 0 0 0 0 0 127 0" result="hardAlpha"/>
<feOffset dx="-10" dy="22"/>
<feGaussianBlur stdDeviation="17"/>
<feColorMatrix type="matrix" values="0 0 0 0 0 0 0 0 0 0 0 0 0 0 0 0 0 0 0.1 0"/>
<feBlend mode="normal" in2="BackgroundImageFix" result="effect1_dropShadow_1_18344"/>
<feBlend mode="normal" in="SourceGraphic" in2="effect1_dropShadow_1_18344" result="shape"/>
</filter>
<clipPath id="clip0_1_18344">
<rect width="229" height="494" fill="white" transform="translate(114 74)"/>
</clipPath>
</defs>
</svg>
