<svg width="30" height="29" viewBox="0 0 30 29" fill="none" xmlns="http://www.w3.org/2000/svg">
<path d="M29.3042 14.4622C29.3042 8.75577 25.8289 3.61129 20.4989 1.42769C15.1689 -0.755905 9.03371 0.451464 4.95499 4.48678C0.875663 8.52209 -0.34392 14.5906 1.86427 19.8625C4.07246 25.1343 9.27385 28.5709 15.0427 28.5703C18.8258 28.5703 22.4535 27.084 25.128 24.4381C27.8024 21.7922 29.3048 18.2038 29.3042 14.4622Z" fill="url(#paint0_linear_7669_484)"/>
<path fill-rule="evenodd" clip-rule="evenodd" d="M15.0409 20.5365L11.8618 26.197L11.9703 19.7227L6.35562 23.0527L9.72247 17.4992L3.17651 17.6064L8.89965 14.462L3.17651 11.3177L9.72247 11.4248L6.35562 5.87138L11.9703 9.20134L11.8618 2.72705L15.0409 8.38752L18.2194 2.72705L18.1115 9.20134L23.7255 5.87138L20.3593 11.4248L26.9046 11.3177L21.1821 14.462L26.9046 17.6064L20.3593 17.4992L23.7255 23.0527L18.1115 19.7227L18.2194 26.197L15.0409 20.5365Z" fill="white" fill-opacity="0.147891"/>
<path fill-rule="evenodd" clip-rule="evenodd" d="M13.1953 21.2759L7.9092 26.6803L9.99793 19.4501L2.68829 21.5163L8.15238 16.2877L0.777527 14.462L8.15238 12.6362L2.68829 7.40777L9.99793 9.47392L7.9092 2.2437L13.1953 7.64813L15.0409 0.353516L16.8864 7.64813L22.1725 2.2437L20.0838 9.47392L27.3934 7.40777L21.9293 12.6362L29.3042 14.462L21.9293 16.2877L27.3934 21.5163L20.0838 19.4501L22.1725 26.6803L16.8864 21.2759L15.0409 28.5703L13.1953 21.2759Z" fill="white" fill-opacity="0.147891"/>
<path d="M22.8003 11.5453H17.989V6.78374C17.9896 6.3258 17.8062 5.88643 17.4789 5.56244C17.1522 5.23846 16.7079 5.0564 16.2453 5.0564H13.8329C12.8687 5.0564 12.0873 5.82976 12.0873 6.78374V11.5453H7.27416C6.31238 11.5453 5.53223 12.3169 5.53223 13.2689V15.6552C5.53223 16.6072 6.31238 17.3788 7.27416 17.3788H12.0873V22.1386C12.0867 22.597 12.2708 23.0368 12.5981 23.3611C12.9254 23.6855 13.3697 23.8677 13.8329 23.8677H16.2453C16.7085 23.8677 17.1528 23.6854 17.4795 23.361C17.8068 23.0367 17.9902 22.5968 17.989 22.1386V17.3788H22.8003C23.2636 17.3803 23.7085 17.1994 24.0364 16.876C24.3649 16.5527 24.5496 16.1135 24.5502 15.6552V13.2689C24.5496 12.8106 24.3649 12.3714 24.0364 12.0481C23.7085 11.7247 23.2636 11.5438 22.8003 11.5453Z" fill="white"/>
<defs>
<linearGradient id="paint0_linear_7669_484" x1="29.3036" y1="28.5703" x2="29.3036" y2="0.355729" gradientUnits="userSpaceOnUse">
<stop stop-color="#FDA20B"/>
<stop offset="1" stop-color="#FF851B"/>
</linearGradient>
</defs>
</svg>
