<svg width="36" height="36" viewBox="0 0 36 36" fill="none" xmlns="http://www.w3.org/2000/svg">
<path fill-rule="evenodd" clip-rule="evenodd" d="M14.9483 28.931C14.5769 28.5812 13.1886 27.2498 12.5413 26.6143C12.3971 26.4732 12.2636 26.404 12.0599 26.4095C6.12627 26.556 3.92121 21.4307 5.32393 17.7329C6.39851 14.8977 9.37526 13.1728 12.3087 13.7058C14.7716 14.1508 15.3882 15.1339 19.2412 19.0899C20.3068 20.1852 22.0683 18.5484 20.9468 17.3945C19.7208 16.1345 18.5236 14.8398 17.2489 13.6328C14.7734 11.2885 11.8562 10.5903 8.63061 11.5885C4.29082 12.9273 1.7504 17.4783 2.74205 21.971C3.64535 26.0644 7.16839 28.9362 11.2918 28.9398C11.5965 28.9398 14.6436 28.9475 14.9483 28.931ZM15.839 9.58281C15.8606 9.61211 15.866 9.62478 15.875 9.63027C16.6179 10.0002 17.3228 10.4384 17.9935 10.931C18.035 10.9622 18.1396 10.9491 18.1919 10.9161C21.8646 8.55163 26.5884 9.36696 29.2604 12.8523C32.0515 16.4879 31.2022 21.0723 28.8926 23.662C25.3714 27.6071 19.9209 27.1983 16.8667 24.0645C15.2169 22.3722 13.5564 20.6907 11.9031 19.002C10.6031 17.6779 8.9245 19.5261 10.0982 20.7001C15.9796 26.5628 16.9622 28.3116 21.1326 28.8739C24.8107 29.3666 28.4689 28.0539 30.9823 24.9733C34.435 20.7334 34.1501 14.6578 30.8164 10.8537C26.4856 5.91411 19.8777 6.14322 15.839 9.58281ZM36 17.3875C36 24.6183 31.6548 30.5671 23.334 31.4975C22.4217 31.4975 11.3657 31.5154 10.4733 31.4623C-0.652984 30.7498 -4.24633 15.0559 6.28493 9.70234C8.20332 8.72614 10.4607 8.31417 12.9416 8.65117C13.0101 8.66216 13.1074 8.6303 13.1561 8.58085C20.5448 0.912313 34.6171 4.16397 36 17.3875Z" fill="black"/>
</svg>
