<svg width="36" height="36" viewBox="0 0 36 36" fill="none" xmlns="http://www.w3.org/2000/svg">
<path d="M33.9687 0.0352325L30.9741 32.4714L17.9998 35.9648L5.02523 32.4714L2.03125 0.0352325H33.9687ZM27.9344 6.63062H17.9881H7.86557L8.34967 10.5476H17.9881H18.5295L17.9881 10.7729L8.70194 14.6405L9.00991 18.4693L17.9881 18.4984L22.8002 18.5136L22.4921 23.6187L17.988 24.8868V24.8828L17.9511 24.8931L13.6013 23.795L13.3374 20.626H13.3229H9.28827H9.27407L9.80219 26.7437L17.9882 29.1645V29.1601L18.0029 29.1645L26.1451 26.7878L27.2012 14.6405H17.9882H17.9655L17.9882 14.6307L27.5387 10.5476L27.9344 6.63062Z" fill="black"/>
</svg>
