<svg width="36" height="36" viewBox="0 0 36 36" fill="none" xmlns="http://www.w3.org/2000/svg">
<path d="M26.4881 24.3934C26.3925 24.6037 26.1754 24.9525 25.8828 24.9615C25.362 24.9806 25.3057 24.7129 24.9198 24.1425C24.0716 22.8904 16.6871 15.1717 15.3056 13.6766C14.0895 12.3637 15.1346 11.4379 15.6184 10.953C16.2247 10.3432 18 8.57137 18 8.57137C20.7101 11.1285 23.1671 13.8892 25.3721 16.8502L25.4914 17.0179C26.424 18.2981 26.9842 19.9024 26.9842 21.6382C26.9842 22.6271 26.802 23.5744 26.4701 24.4474L26.4881 24.3934ZM18 31.5855C15.5508 31.5855 13.5663 29.601 13.5663 27.1519C13.5832 26.0291 13.9983 25.0054 14.6767 24.2145L14.6711 24.2212C15.471 23.2436 17.9988 20.4941 17.9988 20.4941C17.9988 20.4941 20.4896 23.2852 21.3221 24.2134C22.0117 24.9784 22.4336 25.9965 22.4336 27.1136C22.4336 27.1271 22.4336 27.1406 22.4336 27.1541C22.4336 29.6032 20.4491 31.5855 18 31.5855ZM10.5873 24.9547C9.79647 24.9277 6.88047 19.9001 12.2928 14.5429L15.8726 18.4567C15.9289 18.5119 15.9637 18.5895 15.9637 18.675C15.9637 18.7706 15.9198 18.8561 15.8501 18.9124C14.0197 20.6347 12.3896 22.5315 10.9743 24.5869L10.8979 24.705C10.8056 24.966 10.6672 24.9581 10.5862 24.9536L10.5873 24.9547ZM23.3066 8.33062C21.006 6.43387 19.197 4.02412 18.0416 1.27237L17.9966 1.15199C16.7985 4.02412 14.9917 6.43387 12.7237 8.30587L12.6933 8.33062C9.1361 11.8822 5.10522 15.912 5.10522 21.951C5.10522 21.9566 5.10522 21.9622 5.10522 21.9679C5.10522 29.0891 10.8776 34.8615 17.9988 34.8615C25.1201 34.8615 30.8925 29.0891 30.8925 21.9679C30.8925 21.9622 30.8925 21.9555 30.8925 21.9499C30.8925 15.9086 26.8616 11.8834 23.3043 8.33062H23.3066Z" fill="black"/>
</svg>
