<svg width="36" height="36" viewBox="0 0 36 36" fill="none" xmlns="http://www.w3.org/2000/svg">
<path fill-rule="evenodd" clip-rule="evenodd" d="M7.5 9C7.5 5.6863 10.1863 3 13.5 3H22.5C25.8138 3 28.5 5.68631 28.5 9C28.5 10.792 27.7144 12.4006 26.4688 13.5C27.7144 14.5994 28.5 16.2079 28.5 18C28.5 21.3138 25.8138 24 22.5 24C21.4071 24 20.3825 23.7078 19.5 23.1973V27C19.5 30.3138 16.8138 33 13.5 33C10.1863 33 7.5 30.3138 7.5 27C7.5 25.2079 8.28563 23.5994 9.53124 22.5C8.28563 21.4006 7.5 19.7921 7.5 18C7.5 16.2079 8.28563 14.5994 9.53125 13.5C8.28563 12.4006 7.5 10.792 7.5 9ZM13.5 15C11.8431 15 10.5 16.3431 10.5 18C10.5 19.6569 11.8431 21 13.5 21H16.5V15H13.5ZM16.5 12H13.5C11.8432 12 10.5 10.6568 10.5 9C10.5 7.34315 11.8432 6 13.5 6H16.5V12ZM22.5 15C20.8431 15 19.5 16.3431 19.5 18C19.5 19.6569 20.8431 21 22.5 21C24.1569 21 25.5 19.6569 25.5 18C25.5 16.3431 24.1569 15 22.5 15ZM19.5 12V6H22.5C24.1569 6 25.5 7.34314 25.5 9C25.5 10.6569 24.1569 12 22.5 12H19.5ZM16.5 24H13.5C11.8431 24 10.5 25.3431 10.5 27C10.5 28.6569 11.8431 30 13.5 30C15.1569 30 16.5 28.6569 16.5 27V24Z" fill="black"/>
</svg>
