<svg width="36" height="36" viewBox="0 0 36 36" fill="none" xmlns="http://www.w3.org/2000/svg">
<g clip-path="url(#clip0_7561_1000)">
<path d="M28.5 7.5V28.5H7.5V7.5H28.5ZM28.5 4.5H7.5C6.70435 4.5 5.94129 4.81607 5.37868 5.37868C4.81607 5.94129 4.5 6.70435 4.5 7.5V28.5C4.5 29.2956 4.81607 30.0587 5.37868 30.6213C5.94129 31.1839 6.70435 31.5 7.5 31.5H28.5C29.2956 31.5 30.0587 31.1839 30.6213 30.6213C31.1839 30.0587 31.5 29.2956 31.5 28.5V7.5C31.5 6.70435 31.1839 5.94129 30.6213 5.37868C30.0587 4.81607 29.2956 4.5 28.5 4.5Z" fill="black"/>
<path d="M18.45 24.27L17.595 21.465H13.29L12.435 24.27H9.75L13.905 12.435H16.905L21.075 24.27H18.45ZM16.95 19.365C16.155 16.83 15.72 15.39 15.615 15.06C15.51 14.73 15.45 14.46 15.405 14.265C15.225 14.955 14.715 16.665 13.905 19.365H16.95Z" fill="black"/>
<path d="M22.3199 12.93C22.3199 12.135 22.7699 11.73 23.6549 11.73C24.5399 11.73 24.9899 12.135 24.9899 12.93C25.0014 13.0925 24.9778 13.2556 24.9209 13.4083C24.864 13.561 24.775 13.6996 24.6599 13.815C24.5233 13.9348 24.3638 14.0258 24.1911 14.0825C24.0184 14.1392 23.8361 14.1605 23.6549 14.145C22.7699 14.145 22.3199 13.74 22.3199 12.93ZM24.8849 24.27H22.4999V15.27H24.9599L24.8849 24.27Z" fill="black"/>
</g>
<defs>
<clipPath id="clip0_7561_1000">
<rect width="36" height="36" fill="white"/>
</clipPath>
</defs>
</svg>
