<svg width="36" height="36" viewBox="0 0 36 36" fill="none" xmlns="http://www.w3.org/2000/svg">
<g clip-path="url(#clip0_7561_1043)">
<path d="M28.5 7.5V28.5H7.5V7.5H28.5ZM28.5 4.5H7.5C6.70435 4.5 5.94129 4.81607 5.37868 5.37868C4.81607 5.94129 4.5 6.70435 4.5 7.5V28.5C4.5 29.2956 4.81607 30.0587 5.37868 30.6213C5.94129 31.1839 6.70435 31.5 7.5 31.5H28.5C29.2956 31.5 30.0587 31.1839 30.6213 30.6213C31.1839 30.0587 31.5 29.2956 31.5 28.5V7.5C31.5 6.70435 31.1839 5.94129 30.6213 5.37868C30.0587 4.81607 29.2956 4.5 28.5 4.5Z" fill="black"/>
<path d="M11.76 24.18V12.405H14.25V24.18H11.76Z" fill="black"/>
<path d="M19.215 24.345C18.7303 24.3637 18.2487 24.261 17.8138 24.0462C17.3789 23.8314 17.0047 23.5113 16.725 23.115C16.071 22.0988 15.7559 20.9015 15.825 19.695C15.7517 18.4766 16.0726 17.2669 16.74 16.245C17.031 15.8459 17.416 15.5248 17.8608 15.3103C18.3056 15.0957 18.7966 14.9943 19.29 15.015C19.799 14.9966 20.3044 15.1082 20.7584 15.3391C21.2124 15.57 21.6001 15.9128 21.885 16.335H21.96C21.8479 15.7414 21.7877 15.1391 21.78 14.535V11.655H24.24V24.18H22.35L21.885 23.025H21.78C21.5109 23.4556 21.1305 23.8055 20.6791 24.0378C20.2276 24.2701 19.7218 24.3763 19.215 24.345ZM20.085 22.395C20.3424 22.417 20.6014 22.3782 20.8411 22.2818C21.0808 22.1854 21.2945 22.0341 21.465 21.84C21.8076 21.282 21.9748 20.6341 21.945 19.98V19.71C22.0032 18.9907 21.8466 18.2702 21.495 17.64C21.3198 17.4154 21.0898 17.2396 20.8272 17.1293C20.5646 17.019 20.2781 16.9779 19.995 17.01C19.7415 17.0079 19.4916 17.0701 19.2686 17.1907C19.0457 17.3114 18.8569 17.4866 18.72 17.7C18.3826 18.3193 18.2266 19.0211 18.27 19.725C18.2205 20.4198 18.377 21.1138 18.72 21.72C18.8666 21.9441 19.0705 22.1249 19.3105 22.2436C19.5505 22.3623 19.818 22.4146 20.085 22.395Z" fill="black"/>
</g>
<defs>
<clipPath id="clip0_7561_1043">
<rect width="36" height="36" fill="white"/>
</clipPath>
</defs>
</svg>
