<svg width="36" height="36" viewBox="0 0 36 36" fill="none" xmlns="http://www.w3.org/2000/svg">
<g clip-path="url(#clip0_7561_1016)">
<path fill-rule="evenodd" clip-rule="evenodd" d="M26.7444 27.7216C23.868 27.7216 22.932 25.4822 23.6718 22.9676L24.7392 19.1522C25.2396 17.5232 24.687 16.0146 22.9608 16.0146C21.4398 16.0146 20.4372 16.8495 19.9206 18.9519L17.8506 27H14.229L14.8788 24.6454C13.815 26.395 12.3354 27.6064 10.512 27.6064C7.70399 27.6064 6.8292 25.6359 7.4718 22.9017L9.12057 16.2H6.56642L7.34222 12.6H13.4874L11.061 22.5861C10.7748 23.6715 10.539 25.0001 11.6118 25.2413C11.8998 25.3061 14.1984 25.31 15.4494 22.529L17.0424 16.2H14.4558L15.2316 12.6H20.7612L20.0502 16.2141C21.0204 14.4033 22.9608 12.8646 24.8688 12.8646C27.9756 12.8646 29.2788 16.061 28.233 19.5926L27.198 23.3332C26.5572 25.9018 28.4184 26.2437 29.5902 22.9983L31.014 23.5494C30.1716 26.4924 28.6524 27.7216 26.7444 27.7216ZM12.0312 6.99258C13.2282 6.99258 14.2308 7.9306 14.2308 9.1582C14.2308 10.3876 13.2282 11.3256 12.0312 11.3256C10.8342 11.3256 9.83342 10.3876 9.83342 9.1582C9.83342 7.9306 10.8342 6.99258 12.0312 6.99258ZM32.7366 0H3.26338C1.46158 0 0 1.45978 0 3.26338V32.7366C0 34.5384 1.46158 36 3.26338 36H32.7366C34.5384 36 36 34.5384 36 32.7366V3.26338C36 1.45978 34.5384 0 32.7366 0Z" fill="black"/>
</g>
<defs>
<clipPath id="clip0_7561_1016">
<rect width="36" height="36" fill="white"/>
</clipPath>
</defs>
</svg>
