<svg width="36" height="36" viewBox="0 0 36 36" fill="none" xmlns="http://www.w3.org/2000/svg">
<g clip-path="url(#clip0_7561_975)">
<path fill-rule="evenodd" clip-rule="evenodd" d="M27.5904 33.1778C24.4494 33.1778 22.419 31.6804 21.429 29.722L24.183 28.1268C24.9084 29.3112 25.8498 30.1808 27.5184 30.1808C28.9188 30.1808 29.8134 29.4801 29.8134 28.5135C29.8134 27.0591 27.873 26.4908 26.5032 25.904C24.0624 24.8654 22.4424 23.5604 22.4424 20.8046C22.4424 18.2684 24.3756 16.3354 27.3978 16.3354C29.547 16.3354 31.095 17.084 32.2056 19.0406L29.5722 20.7325C28.9926 19.6939 28.3644 19.2832 27.3978 19.2832C26.406 19.2832 25.7778 19.9117 25.7778 20.7325C25.7778 21.7477 26.406 22.1583 27.8568 22.7865C30.897 24.0897 33.1974 25.1135 33.1974 28.4651C33.1974 31.5107 30.8052 33.1778 27.5904 33.1778ZM19.8 28.0784C19.8 31.583 17.6418 33.4354 14.6448 33.4354C11.9376 33.4354 10.3158 32.4 9.51839 30.6H9.49142H9.47878H9.47159L12.2238 28.6761C12.7548 29.6175 13.2336 30.2854 14.3928 30.2854C15.5052 30.2854 16.2 29.722 16.2 28.0318V16.2H19.8V28.0784ZM0 36H36V0H0V36Z" fill="black"/>
</g>
<defs>
<clipPath id="clip0_7561_975">
<rect width="36" height="36" fill="white"/>
</clipPath>
</defs>
</svg>
