<svg width="36" height="36" viewBox="0 0 36 36" fill="none" xmlns="http://www.w3.org/2000/svg">
<path d="M17.7986 26.0831C17.7986 26.0831 17.7986 14.427 18.1856 14.4281C18.4849 14.4281 18.8741 29.4638 18.8741 29.4638C18.3386 29.4008 17.7986 26.9899 17.7986 26.0831ZM25.3001 14.5631C24.2663 10.0451 22.0016 6.16051 18.8786 3.16238L18.8708 3.15563C18.4905 2.57513 18.1429 1.90913 17.8639 1.20713L17.8369 1.13063C17.838 1.15313 17.838 1.18013 17.838 1.20713C17.838 1.84276 17.5534 2.41088 17.1045 2.79226L17.1011 2.79451C13.0804 6.20776 10.5221 11.2376 10.4378 16.866V16.8806C10.4366 16.9504 10.4366 17.0325 10.4366 17.1146C10.4366 22.6913 13.1198 27.6413 17.2654 30.744L17.3093 30.7755L17.4071 30.8464C17.5879 32.1844 17.7424 33.5254 17.8706 34.8694H18.5468C18.7335 33.192 18.9855 31.7239 19.3151 30.2839L19.2634 30.5528C19.7089 30.2434 20.0981 29.9228 20.4615 29.5751L20.4581 29.5785C23.6093 26.6569 25.5758 22.4944 25.5758 17.874C25.5758 17.8054 25.5758 17.7379 25.5746 17.6693V17.6794C25.5713 16.5758 25.4711 15.4969 25.281 14.4495L25.2979 14.5609L25.3001 14.5631Z" fill="black"/>
</svg>
