<svg width="36" height="36" viewBox="0 0 36 36" fill="none" xmlns="http://www.w3.org/2000/svg">
<g clip-path="url(#clip0_7561_996)">
<path d="M36.1935 35.118L35.4315 34.392C35.055 33.8955 34.6545 33.456 34.218 33.0555L34.2105 33.0495C33.7625 32.6425 33.297 32.2555 32.814 31.8885C32.427 31.6225 31.895 31.302 31.218 30.927C30.6615 30.6765 30.2265 30.237 29.991 29.691L29.985 29.676L29.913 29.64C30.231 29.6085 30.522 29.55 30.801 29.4675L30.7665 29.4765L31.6215 29.241C31.9755 29.13 32.385 29.058 32.8095 29.0415H32.8185C33.2655 29.0235 33.687 28.9515 34.089 28.833L34.0515 28.842C34.2455 28.794 34.445 28.7395 34.65 28.6785C34.855 28.6175 35.0305 28.563 35.1765 28.515V28.2615C35.0315 28.0445 34.856 27.7965 34.65 27.5175C34.4535 27.2505 34.233 27.018 33.9855 26.8155L33.978 26.8095C33.349 26.2535 32.6975 25.7155 32.0235 25.1955C31.4295 24.732 30.756 24.2595 30.057 23.8215L29.955 23.7615C29.586 23.5185 29.163 23.2935 28.7175 23.109L28.6665 23.091C28.2185 22.909 27.777 22.7095 27.342 22.4925C27.1965 22.4205 27.027 22.3575 26.8515 22.314L26.835 22.311C26.6595 22.275 26.5095 22.185 26.4 22.0575L26.3985 22.056C26.1915 21.783 26.01 21.4725 25.866 21.1425L25.854 21.1125C25.709 20.7735 25.552 20.448 25.383 20.136C25.02 19.434 24.669 18.7205 24.33 17.9955C23.991 17.2705 23.6655 16.5445 23.3535 15.8175C23.1365 15.3335 22.937 14.85 22.755 14.367C22.554 13.836 22.3275 13.3815 22.0635 12.954L22.083 12.9885C21.435 11.8845 20.7885 10.9425 20.0865 10.047L20.1285 10.104C19.434 9.228 18.714 8.44499 17.94 7.719L17.928 7.7085C17.1645 6.9915 16.3425 6.3075 15.48 5.6745L15.4065 5.622C14.5105 4.971 13.5305 4.33 12.4665 3.699C12.039 3.447 11.5425 3.2415 11.019 3.1095L10.98 3.1005L9.31052 2.6835L8.36702 2.6115C8.05302 2.5875 7.73852 2.5755 7.42352 2.5755C7.20152 2.4585 7.01102 2.319 6.84302 2.157C6.67802 1.9995 6.49952 1.851 6.31352 1.7145L6.29852 1.704C5.39102 1.1745 4.33652 0.689995 3.23402 0.308995L3.10652 0.269995C2.81702 0.100495 2.46902 0.00149536 2.09852 0.00149536C1.83452 0.00149536 1.58102 0.0524954 1.35002 0.143995L1.36352 0.139495C0.793518 0.365995 0.358519 0.826495 0.171019 1.3995L0.166519 1.4145C0.0570186 1.6725 -0.00598145 1.971 -0.00598145 2.286C-0.00598145 2.838 0.189019 3.3435 0.514518 3.738L0.511519 3.7335C1.05552 4.4585 1.47252 5.0285 1.76252 5.4435C1.97952 5.7345 2.20352 6.037 2.43452 6.351C2.64602 6.633 2.83352 6.9555 2.98502 7.296L2.99702 7.3275C3.08102 7.506 3.15452 7.719 3.20852 7.93799L3.21302 7.962C3.26102 8.168 3.32152 8.392 3.39452 8.634C3.61152 9.19 3.81702 9.76 4.01102 10.344C4.22252 10.9815 4.45652 11.5215 4.72802 12.036L4.69952 11.976C4.84452 12.242 4.99002 12.502 5.13602 12.756C5.28202 13.01 5.43902 13.258 5.60702 13.5C5.70452 13.647 5.82752 13.7685 5.96852 13.863L5.97302 13.866C6.12152 13.974 6.21902 14.1435 6.22652 14.3355C6.05552 14.5875 5.94002 14.8905 5.90102 15.216L5.89952 15.225C5.84702 15.6045 5.77202 15.942 5.67002 16.2675L5.68202 16.2225C5.34752 17.2215 5.15552 18.3735 5.15552 19.569C5.15552 19.956 5.17502 20.337 5.21552 20.7135L5.21102 20.667C5.30102 22.104 5.73452 23.424 6.42902 24.567L6.40802 24.5295C6.70352 24.972 7.02002 25.3575 7.36952 25.71C7.62152 25.992 7.98752 26.169 8.39552 26.169C8.62352 26.169 8.83952 26.1135 9.02852 26.0145L9.02102 26.0175C9.54602 25.8285 9.91952 25.3485 9.94652 24.777V24.774C10.0185 24.063 10.1265 23.427 10.275 22.806L10.2555 22.9065C10.2915 22.812 10.3125 22.704 10.3125 22.59C10.3125 22.5675 10.311 22.545 10.3095 22.5225V22.5255C10.2975 22.4165 10.364 22.3135 10.509 22.2165V22.2885C10.654 22.6275 10.805 22.966 10.962 23.304C11.119 23.642 11.282 23.9805 11.451 24.3195C11.8935 24.993 12.363 25.581 12.879 26.1225L12.8745 26.118C13.392 26.676 13.956 27.177 14.565 27.6195L14.598 27.642C14.916 27.885 15.195 28.1475 15.447 28.434L15.453 28.44C15.69 28.719 15.9735 28.9485 16.293 29.121L16.308 29.1285V29.0925H16.38C16.3215 28.962 16.227 28.857 16.11 28.785L16.107 28.7835C15.9885 28.7175 15.8865 28.6515 15.7905 28.5795L15.798 28.584C15.581 28.367 15.357 28.125 15.126 27.858C14.895 27.591 14.6835 27.337 14.4915 27.096C13.9835 26.394 13.499 25.6605 13.038 24.8955C12.577 24.1305 12.1415 23.353 11.7315 22.563C11.5375 22.176 11.35 21.777 11.169 21.366C10.988 20.955 10.8125 20.556 10.6425 20.169C10.569 20.0205 10.518 19.8495 10.4985 19.668V19.6605C10.4895 19.488 10.3905 19.3395 10.2465 19.263L10.2435 19.2615C10.062 19.5705 9.86102 19.8375 9.63152 20.079L9.63302 20.0775C9.39452 20.328 9.19952 20.6235 9.06002 20.9475L9.05252 20.967C8.84102 21.48 8.68652 22.0755 8.61902 22.698L8.61602 22.7265C8.54402 23.3675 8.47152 24.0265 8.39852 24.7035L8.32652 24.7395L8.29052 24.7755C7.90052 24.696 7.57952 24.447 7.40552 24.111L7.40252 24.1035C7.22052 23.7525 7.05752 23.4075 6.91352 23.0685C6.54152 22.113 6.31052 21.0075 6.27902 19.8525V19.839C6.26552 19.656 6.25952 19.4415 6.25952 19.227C6.25952 18.228 6.41702 17.265 6.70802 16.362L6.69002 16.428C6.76202 16.162 6.91902 15.714 7.16102 15.084C7.40302 14.454 7.45152 14.0185 7.30652 13.7775C7.23152 13.53 7.09202 13.3215 6.90902 13.1625L6.90752 13.161C6.72452 13.002 6.55802 12.8355 6.40502 12.6585L6.40052 12.6525C6.23152 12.4085 6.06852 12.1485 5.91152 11.8725C5.75452 11.5965 5.61552 11.3245 5.49452 11.0565C5.24702 10.4835 4.99352 9.765 4.78352 9.027L4.75052 8.8935C4.51202 8.046 4.24652 7.329 3.93152 6.639L3.97052 6.73499C3.80402 6.357 3.61052 6.03 3.38552 5.7315L3.39452 5.7435C3.15052 5.4175 2.93252 5.109 2.74052 4.818C2.49652 4.504 2.25452 4.2015 2.01452 3.9105C1.77002 3.615 1.55252 3.282 1.37552 2.925L1.36202 2.895C1.29002 2.7495 1.22702 2.58 1.18352 2.4045L1.18052 2.388C1.16402 2.3355 1.15502 2.274 1.15502 2.2125C1.15502 2.0895 1.19102 1.974 1.25402 1.878L1.25252 1.881C1.26902 1.797 1.30802 1.7235 1.36202 1.6635C1.42052 1.611 1.49552 1.572 1.57652 1.5555H1.57952C1.70702 1.473 1.86152 1.4235 2.02952 1.4235C2.15552 1.4235 2.27702 1.452 2.38352 1.503L2.37902 1.5015C2.70752 1.5945 2.97302 1.6875 3.23252 1.794L3.17852 1.7745C3.63752 1.9685 4.06102 2.156 4.44902 2.337C4.89602 2.55 5.27702 2.775 5.63702 3.0255L5.61002 3.0075C5.80402 3.1285 5.99752 3.2615 6.19052 3.4065C6.38352 3.5515 6.58902 3.697 6.80702 3.843H7.31552C7.70252 3.843 8.11352 3.8615 8.54852 3.8985C8.98802 3.933 9.39452 4.0155 9.78152 4.1445L9.74552 4.134C10.467 4.3485 11.0865 4.602 11.6745 4.9065L11.613 4.878C12.206 5.18 12.7685 5.5005 13.3005 5.8395C14.184 6.39 14.9475 6.954 15.666 7.5705L15.6405 7.5495C16.3905 8.1915 17.0715 8.85 17.7105 9.546L17.7255 9.564C18.3495 10.245 18.945 10.9845 19.4895 11.76L19.536 11.8305C20.037 12.5385 20.5425 13.3575 20.997 14.2065L21.06 14.334C21.1815 14.565 21.3045 14.8485 21.411 15.138L21.4275 15.1875C21.5245 15.4655 21.633 15.7505 21.753 16.0425C22.019 16.6475 22.304 17.258 22.608 17.874C22.912 18.49 23.197 19.089 23.463 19.671L24.261 21.4125C24.5415 22.0215 24.855 22.5465 25.2195 23.031L25.203 23.0085C25.5075 23.334 25.914 23.562 26.37 23.6415L26.382 23.643C26.934 23.781 27.399 23.937 27.849 24.1215L27.7785 24.096C27.993 24.1935 28.269 24.297 28.5525 24.3885L28.6125 24.405C28.9305 24.5025 29.2065 24.6315 29.46 24.7935L29.4465 24.786C29.937 25.0605 30.3525 25.3305 30.7485 25.6245L30.717 25.602C31.128 25.904 31.539 26.189 31.95 26.457C32.144 26.602 32.4695 26.8135 32.9265 27.0915C33.3835 27.3695 33.6255 27.6295 33.6525 27.8715C33.4815 27.8655 33.279 27.861 33.0765 27.861C32.3385 27.861 31.6125 27.909 30.9015 28.002L30.9855 27.993C30.1815 28.101 29.4525 28.2975 28.767 28.578L28.827 28.557C28.6575 28.6305 28.455 28.698 28.245 28.7505L28.2165 28.7565C28.0035 28.788 27.8385 28.959 27.8175 29.172C27.909 29.286 27.9825 29.4195 28.032 29.5635L28.035 29.5725C28.086 29.7255 28.1475 29.8575 28.2225 29.9805L28.218 29.9715C28.3965 30.288 28.5885 30.561 28.8045 30.813L28.7985 30.8055C29.01 31.0665 29.2485 31.293 29.5125 31.4865L29.523 31.494C29.767 31.688 30.021 31.8875 30.285 32.0925C30.5265 32.2815 30.7995 32.4675 31.083 32.6355L31.119 32.655C31.545 32.916 32.04 33.165 32.556 33.3735L32.625 33.3975C33.186 33.6225 33.6675 33.8835 34.1145 34.194L34.0905 34.1775C34.3815 34.3465 34.6715 34.534 34.9605 34.74C35.2495 34.946 35.5275 35.1455 35.7945 35.3385C35.904 35.4465 36 35.5665 36.081 35.697L36.0855 35.7045C36.222 35.8605 36.411 35.967 36.6255 35.994H36.63V35.922C36.498 35.8215 36.4005 35.682 36.354 35.5215L36.3525 35.5155C36.315 35.3625 36.2595 35.229 36.1845 35.106L36.1875 35.112L36.1935 35.118ZM8.32952 6.3105C8.13552 6.3105 7.95402 6.3165 7.78502 6.3285C7.61252 6.3405 7.45202 6.372 7.30052 6.423L7.31402 6.4185V6.4545H7.38602C7.48302 6.5995 7.60502 6.7625 7.75202 6.9435C7.89902 7.1245 8.03202 7.3 8.15102 7.47L8.73152 8.667L8.80352 8.631C8.97302 8.508 9.10352 8.343 9.18152 8.1495L9.18452 8.142C9.26252 7.9335 9.30752 7.6905 9.30752 7.4385C9.30752 7.4115 9.30752 7.3845 9.30602 7.3575V7.362C9.23852 7.296 9.18302 7.218 9.14402 7.131L9.14252 7.1265L9.02102 6.8535C8.94152 6.7275 8.83052 6.6285 8.70002 6.5655L8.69552 6.564C8.55452 6.4965 8.43452 6.411 8.32952 6.3105Z" fill="black"/>
</g>
<defs>
<clipPath id="clip0_7561_996">
<rect width="36" height="36" fill="white"/>
</clipPath>
</defs>
</svg>
