<svg width="72" height="72" viewBox="0 0 72 72" fill="none" xmlns="http://www.w3.org/2000/svg">
<path d="M11.934 37.2667C11.934 37.053 11.8215 36.855 11.637 36.7492L6.70501 33.912C6.62176 33.8625 6.52726 33.8377 6.43276 33.8332C6.42376 33.8332 6.38776 33.8332 6.38101 33.8332C6.28651 33.8377 6.19426 33.8625 6.10876 33.912L1.17901 36.7492C0.994511 36.855 0.879761 37.053 0.879761 37.2667L0.891011 44.9077C0.891011 45.0135 0.947261 45.1125 1.03951 45.1642C1.13176 45.2182 1.24426 45.2182 1.33651 45.1642L4.26601 43.4857C4.45051 43.3755 4.56301 43.182 4.56301 42.9682V39.3975C4.56301 39.186 4.67551 38.988 4.86001 38.8822L6.10876 38.1645C6.20101 38.1105 6.30226 38.0857 6.40801 38.0857C6.50926 38.0857 6.61276 38.1127 6.70501 38.1645L7.95151 38.8822C8.13601 38.988 8.24851 39.186 8.24851 39.3975V42.9682C8.24851 43.182 8.36326 43.3755 8.54776 43.4857L11.4773 45.1642C11.5695 45.2182 11.6843 45.2182 11.7743 45.1642C11.8643 45.1125 11.9228 45.0135 11.9228 44.9077L11.934 37.2667ZM38.2635 26.7615C38.1713 26.7097 38.0588 26.712 37.9688 26.766C37.8788 26.82 37.8225 26.9167 37.8225 27.0225V34.5892C37.8225 34.6635 37.782 34.7332 37.719 34.7692C37.656 34.8052 37.575 34.8075 37.5098 34.7692L36.2745 34.0582C36.09 33.9525 35.8628 33.9525 35.6783 34.0582L30.7463 36.9045C30.5618 37.0102 30.447 37.2082 30.447 37.4197V43.1145C30.447 43.3282 30.5595 43.524 30.744 43.6297L35.676 46.4782C35.8605 46.584 36.0878 46.584 36.2723 46.4782L41.2065 43.6297C41.391 43.5217 41.5035 43.326 41.5035 43.1145V28.9192C41.5035 28.7032 41.3865 28.5052 41.1975 28.3995L38.2613 26.7615H38.2635ZM37.8068 41.2447C37.8068 41.2987 37.7798 41.3482 37.7325 41.373L36.0383 42.3495C35.9933 42.3765 35.9348 42.3765 35.8898 42.3495L34.1955 41.373C34.1483 41.346 34.1213 41.2965 34.1213 41.2447V39.2895C34.1213 39.2355 34.1505 39.186 34.1955 39.1612L35.8898 38.1825C35.9348 38.1555 35.9933 38.1555 36.0383 38.1825L37.7325 39.1612C37.7775 39.1882 37.8068 39.2377 37.8068 39.2895V41.2447ZM55.9125 39.2377C56.0948 39.132 56.2095 38.9362 56.2095 38.7225V37.3432C56.2095 37.1295 56.097 36.936 55.9125 36.828L51.012 33.9817C50.8275 33.8737 50.6003 33.8737 50.4158 33.9817L45.4838 36.828C45.2993 36.9337 45.1868 37.1317 45.1868 37.3432V43.0357C45.1868 43.2495 45.3015 43.4475 45.4883 43.5532L50.3888 46.3455C50.5688 46.449 50.7915 46.449 50.9738 46.3477L53.937 44.7007C54.0293 44.649 54.0878 44.55 54.09 44.442C54.0923 44.334 54.0338 44.235 53.9415 44.181L48.978 41.3325C48.8858 41.2807 48.8295 41.1817 48.8295 41.0737V39.2895C48.8295 39.1837 48.8858 39.0847 48.978 39.0307L50.5238 38.142C50.616 38.0902 50.7285 38.0902 50.8208 38.142L52.3665 39.0307C52.4588 39.0847 52.515 39.1815 52.515 39.2895V40.6935C52.515 40.7992 52.5713 40.8982 52.6635 40.9522C52.7558 41.0062 52.8705 41.004 52.9628 40.9522L55.9148 39.2355L55.9125 39.2377ZM20.9048 33.9525C21.0893 33.8467 21.3165 33.8467 21.501 33.9525L26.433 36.7987C26.6175 36.9045 26.73 37.1002 26.73 37.314V43.011C26.73 43.2247 26.6153 43.4205 26.433 43.5262L21.501 46.3747C21.3165 46.4805 21.0893 46.4805 20.9048 46.3747L15.9728 43.5262C15.7883 43.4205 15.6758 43.2225 15.6758 43.011V37.314C15.6758 37.1002 15.7883 36.9045 15.9728 36.7987L20.9048 33.9525ZM65.4885 46.4557C65.3198 46.4557 65.1488 46.4107 65.0003 46.3252L63.4478 45.4072C63.216 45.2767 63.3308 45.2317 63.405 45.2047C63.7133 45.0967 63.7763 45.072 64.107 44.8852C64.1408 44.865 64.188 44.874 64.224 44.8942L65.4165 45.603C65.4593 45.6277 65.52 45.6277 65.5605 45.603L70.2113 42.9187C70.254 42.894 70.281 42.8445 70.281 42.7927V37.4242C70.281 37.3725 70.254 37.323 70.209 37.296L65.5605 34.614C65.5178 34.5892 65.4593 34.5892 65.4165 34.614L60.768 37.296C60.723 37.3207 60.6938 37.3725 60.6938 37.4242V42.7927C60.6938 42.8445 60.723 42.8917 60.7658 42.9165L62.0393 43.6522C62.73 43.9987 63.153 43.5915 63.153 43.182V37.8832C63.153 37.809 63.2138 37.7505 63.288 37.7505H63.8775C63.9518 37.7505 64.0125 37.809 64.0125 37.8832V43.182C64.0125 44.1045 63.5108 44.6332 62.6355 44.6332C62.3678 44.6332 62.154 44.6332 61.5645 44.343L60.345 43.641C60.0435 43.4677 59.8568 43.1415 59.8568 42.7927V37.4242C59.8568 37.0755 60.0435 36.7492 60.345 36.576L64.9958 33.8895C65.2905 33.723 65.682 33.723 65.9723 33.8895L70.623 36.576C70.9245 36.7492 71.1113 37.0755 71.1113 37.4242V42.7927C71.1113 43.1415 70.9245 43.4655 70.623 43.641L65.9723 46.3252C65.8238 46.4107 65.655 46.4557 65.4818 46.4557H65.4885ZM66.9263 42.759C64.89 42.759 64.4648 41.8252 64.4648 41.04C64.4648 40.9657 64.5233 40.9072 64.5998 40.9072H65.2005C65.268 40.9072 65.3243 40.9567 65.3333 41.022C65.4233 41.634 65.6933 41.9445 66.9263 41.9445C67.905 41.9445 68.3235 41.7217 68.3235 41.2042C68.3235 40.905 68.2065 40.6822 66.6833 40.5337C65.412 40.4077 64.6245 40.1265 64.6245 39.1095C64.6245 38.1712 65.4165 37.611 66.7418 37.611C68.2313 37.611 68.9693 38.1285 69.0615 39.2377C69.066 39.276 69.0525 39.312 69.0255 39.3412C68.9985 39.3705 68.9648 39.384 68.9265 39.384H68.3235C68.2605 39.384 68.2065 39.339 68.193 39.2782C68.049 38.6347 67.6958 38.4277 66.7418 38.4277C65.673 38.4277 65.547 38.8012 65.547 39.0802C65.547 39.42 65.6933 39.5167 67.1378 39.708C68.5665 39.897 69.246 40.1648 69.246 41.1683C69.246 42.1807 68.4023 42.7612 66.9285 42.7612L66.9263 42.759ZM50.6385 38.9722C50.6745 38.952 50.7173 38.952 50.7533 38.9722L51.7005 39.519C51.7365 39.5392 51.759 39.5775 51.759 39.618V40.7115C51.759 40.752 51.7365 40.7902 51.7005 40.8105L50.7533 41.3572C50.7173 41.3775 50.6745 41.3775 50.6385 41.3572L49.6935 40.8105C49.6575 40.7902 49.6373 40.752 49.6373 40.7115V39.618C49.6373 39.5775 49.6598 39.5392 49.6935 39.519L50.6385 38.9722Z" fill="#111827"/>
</svg>
