<svg width="36" height="36" viewBox="0 0 36 36" fill="none" xmlns="http://www.w3.org/2000/svg">
<g clip-path="url(#clip0_7561_1037)">
<path d="M28.5 7.5V28.5H7.5V7.5H28.5ZM28.5 4.5H7.5C6.70435 4.5 5.94129 4.81607 5.37868 5.37868C4.81607 5.94129 4.5 6.70435 4.5 7.5V28.5C4.5 29.2956 4.81607 30.0587 5.37868 30.6213C5.94129 31.1839 6.70435 31.5 7.5 31.5H28.5C29.2956 31.5 30.0587 31.1839 30.6213 30.6213C31.1839 30.0587 31.5 29.2956 31.5 28.5V7.5C31.5 6.70435 31.1839 5.94129 30.6213 5.37868C30.0587 4.81607 29.2956 4.5 28.5 4.5Z" fill="black"/>
<path d="M18.165 15.705C18.1973 16.2491 18.1062 16.7935 17.8984 17.2975C17.6906 17.8014 17.3715 18.2518 16.965 18.615C15.9975 19.3449 14.7993 19.7017 13.59 19.62H12.525V23.805H10.02V12H13.785C14.9453 11.9204 16.0969 12.2494 17.04 12.93C17.4312 13.2726 17.7367 13.702 17.932 14.1839C18.1274 14.6658 18.2072 15.1867 18.165 15.705ZM12.525 17.58H13.335C13.9257 17.6094 14.51 17.4463 15 17.115C15.198 16.9603 15.3539 16.7584 15.4535 16.5277C15.5531 16.2971 15.5931 16.0451 15.57 15.795C15.5919 15.5555 15.5602 15.3141 15.4772 15.0884C15.3941 14.8627 15.2619 14.6582 15.09 14.49C14.6554 14.1771 14.124 14.0283 13.59 14.07H12.525V17.58Z" fill="black"/>
<path d="M25.98 21.135C26.0014 21.5387 25.9253 21.9416 25.7582 22.3097C25.5911 22.6778 25.3379 23.0003 25.02 23.25C24.1602 23.7883 23.152 24.0403 22.14 23.97C21.577 23.9776 21.0146 23.9324 20.46 23.835C20.0116 23.7549 19.5738 23.6241 19.155 23.445V21.42C19.6395 21.6405 20.1411 21.8211 20.655 21.96C21.1457 22.0851 21.6488 22.1555 22.155 22.17C23.04 22.17 23.49 21.915 23.49 21.405C23.4935 21.317 23.4794 21.2292 23.4485 21.1468C23.4176 21.0644 23.3705 20.9889 23.31 20.925C23.1332 20.7585 22.9306 20.6217 22.71 20.52L21.54 19.98C21.0085 19.7729 20.5047 19.5008 20.04 19.17C19.7414 18.9502 19.4997 18.6622 19.335 18.33C19.1759 17.9557 19.0991 17.5516 19.11 17.145C19.096 16.7817 19.1739 16.4208 19.3364 16.0957C19.499 15.7706 19.741 15.4917 20.04 15.285C20.8327 14.8023 21.7534 14.5721 22.68 14.625C23.7755 14.6256 24.857 14.8716 25.845 15.345L25.11 17.115C24.699 16.9323 24.2784 16.7721 23.85 16.635C23.4612 16.5155 23.0567 16.4548 22.65 16.455C21.915 16.455 21.555 16.65 21.555 17.04C21.5612 17.1579 21.5976 17.2721 21.6607 17.3719C21.7237 17.4717 21.8113 17.5537 21.915 17.61C22.3898 17.8994 22.8923 18.1406 23.415 18.33C23.9435 18.5374 24.4467 18.8041 24.915 19.125C25.2193 19.3489 25.4661 19.642 25.635 19.98C25.8417 20.3314 25.9601 20.7277 25.98 21.135Z" fill="black"/>
</g>
<defs>
<clipPath id="clip0_7561_1037">
<rect width="36" height="36" fill="white"/>
</clipPath>
</defs>
</svg>
