<svg width="36" height="36" viewBox="0 0 36 36" fill="none" xmlns="http://www.w3.org/2000/svg">
<path d="M28.1991 15.75C28.4602 16.0393 28.5222 16.5362 28.3856 17.2399C28.243 17.9729 27.9683 18.4958 27.5614 18.8093C27.1541 19.1228 26.5347 19.2795 25.7029 19.2795H24.4479L25.2183 15.316H26.6318C27.4158 15.316 27.938 15.4607 28.1991 15.75ZM10.5296 15.316H9.11609L8.3456 19.2795H9.60054C10.4321 19.2795 11.0517 19.1228 11.459 18.8093C11.8661 18.4958 12.1406 17.9729 12.2833 17.2399C12.4199 16.5361 12.3578 16.0393 12.0968 15.75C11.8357 15.4607 11.3135 15.316 10.5296 15.316ZM35.9648 18C35.9648 23.2192 27.9216 27.4502 18 27.4502C8.07841 27.4502 0.0351562 23.2192 0.0351562 18C0.0351562 12.7808 8.07841 8.54979 18 8.54979C27.9216 8.54979 35.9648 12.7808 35.9648 18ZM13.96 18.6529C14.1737 18.2699 14.3258 17.8471 14.4158 17.3847C14.6339 16.262 14.4693 15.3876 13.9219 14.7611C13.3748 14.1346 12.5041 13.8215 11.3108 13.8215H7.34358L5.50301 23.2918H7.56612L8.05535 20.7743H9.82259C10.6021 20.7743 11.2436 20.6924 11.7472 20.5284C12.2507 20.3646 12.7083 20.0901 13.1202 19.7044C13.4658 19.3866 13.7456 19.0363 13.96 18.6529ZM21.2213 20.7743L22.0778 16.3669C22.2521 15.4706 22.1213 14.8221 21.686 14.4218C21.2503 14.0219 20.4591 13.8215 19.3117 13.8215H17.4883L17.9777 11.3036H15.9309L14.09 20.7742H16.1368L17.1912 15.3485H18.8272C19.3508 15.3485 19.6932 15.4351 19.854 15.6085C20.0148 15.782 20.049 16.1071 19.9563 16.5837L19.142 20.7742H21.2213V20.7743ZM30.0242 14.7612C29.4772 14.1347 28.6064 13.8216 27.4132 13.8216H23.4458L21.6052 23.2919H23.6684L24.1575 20.7743H25.9249C26.7043 20.7743 27.3459 20.6925 27.8494 20.5284C28.3529 20.3647 28.8105 20.0902 29.2224 19.7044C29.5684 19.3866 29.8479 19.0363 30.0622 18.653C30.2762 18.2699 30.4279 17.8471 30.518 17.3848C30.7362 16.262 30.5716 15.3876 30.0242 14.7612Z" fill="black"/>
</svg>
