<svg width="36" height="36" viewBox="0 0 36 36" fill="none" xmlns="http://www.w3.org/2000/svg">
<path d="M16.1021 24.9874C16.7209 25.0155 17.3531 25.0358 17.9932 25.0358C18.6401 25.0358 19.2791 25.0223 19.9057 24.9874C19.2791 25.7974 18.6604 26.514 18.0056 27.1969L18.0146 27.1879C17.3632 26.5129 16.7377 25.7951 16.1482 25.0481L16.1021 24.9874ZM9.69186 24.0874C10.9102 24.3968 12.3964 24.66 13.9129 24.822L14.0602 24.8344C14.9884 26.109 15.9266 27.2306 16.9335 28.2859L16.9211 28.2724C15.4462 29.9183 13.4561 31.0748 11.205 31.4899L11.1431 31.4989C11.1386 31.4989 11.1341 31.4989 11.1296 31.4989C10.8506 31.4989 10.5874 31.4303 10.3567 31.3088L10.3657 31.3133C9.42974 30.7789 9.02362 28.7348 9.33974 26.1079C9.41512 25.461 9.53887 24.7804 9.69074 24.0863L9.69186 24.0874ZM26.3227 24.0728C26.4555 24.606 26.5804 25.2855 26.6692 25.9763L26.6794 26.073C27.0022 28.6988 26.604 30.7406 25.6759 31.2863C25.4689 31.401 25.2214 31.4685 24.9581 31.4685C24.9322 31.4685 24.9064 31.4674 24.8805 31.4663H24.8839C22.5742 31.0444 20.5852 29.8958 19.1137 28.2701L19.1059 28.2611C20.0947 27.2228 21.0262 26.1034 21.8801 24.9255L21.9454 24.831C23.6059 24.6578 25.0942 24.39 26.5444 24.0244L26.3227 24.0716V24.0728ZM11.007 19.8743C11.2882 20.4255 11.583 20.9745 11.907 21.5258C12.2302 22.074 12.5606 22.6095 12.8981 23.1323C11.9216 22.9894 10.9789 22.8094 10.0777 22.59C10.3309 21.7046 10.6481 20.7878 11.0059 19.872L11.007 19.8743ZM24.9885 19.8461C25.3609 20.7698 25.677 21.6911 25.9391 22.5844C25.0391 22.8049 24.0885 22.9916 23.1052 23.1323C23.4427 22.6046 23.7802 22.0613 24.0964 21.5044C24.4125 20.9565 24.7084 20.3963 24.9907 19.845L24.9885 19.8461ZM8.57136 13.8285C9.06186 15.4913 9.58836 16.8818 10.2015 18.2228L10.1171 18.018C9.59286 19.1486 9.07424 20.5312 8.64899 21.9544L8.59049 22.185C7.79624 21.9409 7.15724 21.7013 6.53512 21.4324L6.66449 21.4819C4.22999 20.4458 2.65499 19.0834 2.65499 18.0034C2.65499 16.9234 4.22999 15.5543 6.66449 14.5226C7.25512 14.2695 7.90312 14.0411 8.57136 13.8285ZM27.4027 13.8229C28.0834 14.0333 28.7302 14.2684 29.3355 14.5226C31.77 15.5633 33.345 16.9234 33.345 18.0034C33.3382 19.0834 31.7632 20.4491 29.3287 21.483C28.7381 21.7361 28.0912 21.9634 27.4241 22.176C26.9291 20.5076 26.4026 19.1183 25.7917 17.775L25.8772 17.9865C26.3992 16.857 26.919 15.4744 27.3431 14.0513L27.4027 13.8195V13.8229ZM23.0962 12.8745C24.0739 13.0196 25.0155 13.1974 25.9166 13.419C25.6635 14.3078 25.3474 15.2213 24.9885 16.137C24.7072 15.5891 24.4125 15.0368 24.0885 14.4866C23.7724 13.9354 23.4349 13.3988 23.0974 12.8756L23.0962 12.8745ZM12.8902 12.8745C12.5527 13.4044 12.2152 13.9466 11.9002 14.5058C11.5841 15.0536 11.2882 15.6049 11.007 16.1561C10.6346 15.2336 10.3185 14.3145 10.0564 13.419C10.9564 13.2086 11.9047 13.0208 12.8891 12.8768L12.8902 12.8745ZM18 12.5168C19.0406 12.5168 20.0767 12.564 21.096 12.6473C21.6667 13.4655 22.221 14.337 22.7587 15.2618C23.2815 16.1618 23.7585 17.0738 24.1897 17.9978C23.7566 18.9191 23.2819 19.8394 22.7655 20.7394C22.2311 21.6675 21.6787 22.5506 21.1061 23.3685C20.0824 23.4574 19.0451 23.5058 17.9989 23.5058C16.9582 23.5058 15.9221 23.4563 14.9029 23.3753C14.3325 22.5574 13.7756 21.6821 13.2401 20.7608C12.7174 19.8608 12.2404 18.9488 11.8091 18.0248C12.2355 17.1011 12.717 16.1786 13.2334 15.2775C13.7677 14.3494 14.3201 13.4696 14.8927 12.6518C15.9165 12.5618 16.9537 12.5145 18 12.5145V12.5168ZM17.9786 8.82563C18.6311 9.50063 19.2566 10.2173 19.845 10.9643L19.89 11.0239C19.2712 10.9958 18.639 10.9766 17.9989 10.9766C17.352 10.9766 16.713 10.9901 16.0864 11.0239C16.7119 10.2139 17.3306 9.49725 17.9865 8.81438L17.9775 8.82338L17.9786 8.82563ZM11.115 4.53713C13.4246 4.96013 15.4125 6.10875 16.8851 7.73325L16.893 7.74225C15.9041 8.78175 14.9726 9.90113 14.1187 11.0813L14.0535 11.1758C12.3941 11.3479 10.9057 11.6134 9.45674 11.979L9.67724 11.9318C9.51974 11.2433 9.40274 10.5761 9.32061 9.936C8.99774 7.31025 9.39599 5.26838 10.3241 4.725C10.5559 4.61588 10.827 4.54838 11.1127 4.53938H11.1161L11.115 4.53713ZM24.8512 4.509V4.518C24.8659 4.518 24.8827 4.51688 24.9007 4.51688C25.1696 4.51688 25.4227 4.58325 25.6455 4.70025L25.6365 4.69575C26.5725 5.23238 26.9786 7.27538 26.6625 9.90338C26.5871 10.5503 26.4634 11.232 26.3115 11.9273C25.0909 11.6145 23.6047 11.3501 22.0882 11.1893L21.9442 11.1769C21.015 9.90113 20.0767 8.7795 19.0699 7.72313L19.0834 7.73663C20.5582 6.09413 22.545 4.93763 24.7916 4.52025L24.8546 4.51013L24.8512 4.509ZM24.858 2.97675C22.1107 3.39413 19.7325 4.72838 17.9955 6.65325L17.9865 6.66338C16.2371 4.73963 13.8589 3.41438 11.1791 3.01275L11.1161 3.00488C11.1015 3.00488 11.0835 3.00488 11.0655 3.00488C10.5131 3.00488 9.99449 3.15 9.54561 3.40425L9.56137 3.39638C7.62861 4.51125 7.19549 7.98525 8.19337 12.3446C3.91387 13.6665 1.13062 15.7793 1.13062 18.0056C1.13062 20.241 3.92849 22.3594 8.22037 23.6711C7.23037 28.0474 7.67249 31.527 9.60974 32.6408C10.035 32.8849 10.5457 33.0278 11.0891 33.0278C11.1139 33.0278 11.1386 33.0278 11.1622 33.0266H11.1589C13.9061 32.6093 16.2844 31.2739 18.0214 29.3479L18.0304 29.3377C19.7797 31.2626 22.158 32.5879 24.8377 32.9895L24.9007 32.9974C24.9176 32.9974 24.939 32.9974 24.9592 32.9974C25.5082 32.9974 26.0246 32.8534 26.4712 32.6025L26.4555 32.6104C28.3871 31.4966 28.8214 28.0226 27.8235 23.6621C32.0872 22.3515 34.8705 20.2343 34.8705 18.0045C34.8705 15.7691 32.0726 13.6508 27.7807 12.3356C28.7707 7.96388 28.3286 4.48088 26.3914 3.366C25.9616 3.11963 25.4464 2.9745 24.8974 2.9745C24.8827 2.9745 24.8681 2.9745 24.8535 2.9745H24.8557L24.858 2.97675ZM21.1354 18.0056C21.1354 19.7415 19.728 21.1489 17.9921 21.1489C16.2562 21.1489 14.8489 19.7415 14.8489 18.0056C14.8489 16.2698 16.2562 14.8624 17.9921 14.8624C18.8606 14.8624 19.6459 15.2145 20.2151 15.7826C20.7844 16.3519 21.1354 17.1371 21.1354 18.0056Z" fill="black"/>
</svg>
