<svg width="36" height="36" viewBox="0 0 36 36" fill="none" xmlns="http://www.w3.org/2000/svg">
<path d="M1.93386 11.4041L0.633362 13.1546H6.99636L7.48124 3.9645L1.93386 11.4041ZM27.8651 3.213L18.8224 2.25L28.3635 12.6L27.8651 3.213ZM7.88849 15.3495L7.10099 13.8026H0.695237L16.5082 32.2031L7.88849 15.3495ZM8.02911 13.1558H27.9979L18.0202 2.32087L8.02911 13.1558ZM28.9339 13.7948L19.5187 32.2031L35.325 13.8026H28.9339V13.7948ZM29.2072 4.85213L28.5469 3.96563L28.6099 5.18175L29.0385 13.1558H35.388L29.2072 4.85213ZM7.98074 6.5745L7.65674 12.5933L17.2057 2.25L8.16411 3.213L7.98074 6.5745ZM28.2094 13.7948H7.81874L18.0214 33.75L28.2094 13.7948Z" fill="black"/>
</svg>
