<svg width="36" height="36" viewBox="0 0 36 36" fill="none" xmlns="http://www.w3.org/2000/svg">
<g clip-path="url(#clip0_7561_1021)">
<path d="M0.342512 12.5537C0.342512 12.5537 -0.534318 11.9149 0.517877 11.0618L2.96934 8.84604C2.96934 8.84604 3.67082 8.10006 4.41246 8.75001L27.0346 26.0625V34.3641C27.0346 34.3641 27.0237 35.6678 25.3686 35.5238L0.342512 12.5537Z" fill="black"/>
<path d="M6.17338 17.905L0.342469 23.2633C0.342469 23.2633 -0.256699 23.7139 0.342469 24.519L3.04968 27.0079C3.04968 27.0079 3.69268 27.7059 4.64259 26.9119L10.8242 22.174L6.17338 17.905Z" fill="black"/>
<path d="M16.41 17.9492L27.1037 9.69543L27.0342 1.43798C27.0342 1.43798 26.5775 -0.364189 25.0541 0.573823L10.8239 13.6654L16.41 17.9492Z" fill="black"/>
<path d="M25.3682 35.535C25.9892 36.1775 26.7419 35.967 26.7419 35.967L35.0757 31.8162C36.1427 31.0812 35.9928 30.169 35.9928 30.169V5.38205C35.9928 4.29263 34.8894 3.91595 34.8894 3.91595L27.6662 0.396565C26.0879 -0.589452 25.0541 0.573822 25.0541 0.573822C25.0541 0.573822 26.3838 -0.393726 27.0342 1.43797V34.2129C27.0342 34.4382 26.9867 34.6598 26.8917 34.8591C26.7017 35.2469 26.2889 35.6088 25.2987 35.4575L25.3682 35.535Z" fill="black"/>
</g>
<defs>
<clipPath id="clip0_7561_1021">
<rect width="36" height="36" fill="white"/>
</clipPath>
</defs>
</svg>
