<svg width="36" height="36" viewBox="0 0 36 36" fill="none" xmlns="http://www.w3.org/2000/svg">
<g clip-path="url(#clip0_7561_1060)">
<path fill-rule="evenodd" clip-rule="evenodd" d="M33.795 9.36387C33.8724 9.93807 33.9156 10.5516 33.9156 11.214C33.9156 14.3784 33.6222 14.5567 27.0486 33.5593C32.4 30.4381 36 24.6402 36 18C36 14.8698 35.2008 11.9271 33.795 9.36387ZM18.3168 19.575L12.915 35.267C16.56 36.3398 20.4228 36.2305 23.9778 34.9813C23.9292 34.9039 23.886 34.8208 23.85 34.7326L18.3168 19.575ZM30.1518 17.0912C30.1518 14.8664 29.3526 13.3251 28.6668 12.1263C27.756 10.6431 26.8992 9.38896 26.8992 7.90576C26.8992 6.25156 28.1556 4.71094 29.9232 4.71094C30.0024 4.71094 30.078 4.7214 30.1554 4.725C26.9532 1.791 22.6872 0 18 0C11.7126 0 6.17941 3.22531 2.96101 8.1123C4.10761 8.1483 5.64659 8.16312 8.91719 7.90752C9.88739 7.84992 10.0008 9.27508 9.03241 9.38848C9.03241 9.38848 8.0568 9.50402 6.9714 9.56162L13.527 29.0593L17.4654 17.2441L14.661 9.55986C13.6926 9.50406 12.7746 9.38848 12.7746 9.38848C11.8044 9.33088 11.9178 7.84816 12.888 7.90576C16.6086 8.19196 18.513 8.21356 22.4262 7.90576C23.3964 7.84816 23.5116 9.27328 22.5414 9.38848C22.5414 9.38848 21.564 9.50406 20.4804 9.55986L26.9856 28.9099C29.5542 20.3275 30.1518 18.8912 30.1518 17.0912ZM0 18C0 25.1244 4.14 31.2822 10.1448 34.2L1.5588 10.6743C0.559795 12.9135 0 15.39 0 18Z" fill="black"/>
</g>
<defs>
<clipPath id="clip0_7561_1060">
<rect width="36" height="36" fill="white"/>
</clipPath>
</defs>
</svg>
