<svg width="36" height="36" viewBox="0 0 36 36" fill="none" xmlns="http://www.w3.org/2000/svg">
<g clip-path="url(#clip0_7561_1031)">
<path d="M19.5 24.18H16.65L13.905 19.68L11.175 24.18H8.48999L12.405 18.18L8.74499 12.405H11.505L14.04 16.65L16.5 12.405H19.185L15.495 18.255L19.5 24.18Z" fill="black"/>
<path d="M21.975 24.345C21.4928 24.3612 21.0142 24.2573 20.5821 24.0426C20.1501 23.8279 19.7782 23.5091 19.5 23.115C18.8459 22.0988 18.5308 20.9015 18.6 19.695C18.5267 18.4766 18.8475 17.2669 19.515 16.245C19.8028 15.8453 20.1847 15.5227 20.6268 15.3055C21.0689 15.0884 21.5577 14.9835 22.05 15C22.559 14.9816 23.0643 15.0932 23.5183 15.3241C23.9723 15.555 24.3601 15.8978 24.645 16.32H24.72C24.6079 15.7264 24.5476 15.1241 24.54 14.52V11.655H27V24.18H25.11L24.645 23.025H24.54C24.2709 23.4556 23.8905 23.8055 23.439 24.0378C22.9876 24.2701 22.4818 24.3763 21.975 24.345ZM22.845 22.395C23.1024 22.417 23.3614 22.3782 23.6011 22.2818C23.8408 22.1854 24.0545 22.0341 24.225 21.84C24.5702 21.2832 24.7376 20.6344 24.705 19.98V19.71C24.7632 18.9907 24.6066 18.2702 24.255 17.64C24.0797 17.4154 23.8498 17.2396 23.5872 17.1293C23.3245 17.019 23.038 16.9779 22.755 17.01C22.5015 17.0079 22.2516 17.0701 22.0286 17.1907C21.8056 17.3114 21.6169 17.4866 21.48 17.7C21.1413 18.3242 20.9854 19.0312 21.03 19.74C20.9816 20.4299 21.1382 21.1187 21.48 21.72C21.6265 21.9441 21.8304 22.1249 22.0705 22.2436C22.3105 22.3623 22.5779 22.4146 22.845 22.395Z" fill="black"/>
<path d="M28.5 7.5V28.5H7.5V7.5H28.5ZM28.5 4.5H7.5C6.70435 4.5 5.94129 4.81607 5.37868 5.37868C4.81607 5.94129 4.5 6.70435 4.5 7.5V28.5C4.5 29.2956 4.81607 30.0587 5.37868 30.6213C5.94129 31.1839 6.70435 31.5 7.5 31.5H28.5C29.2956 31.5 30.0587 31.1839 30.6213 30.6213C31.1839 30.0587 31.5 29.2956 31.5 28.5V7.5C31.5 6.70435 31.1839 5.94129 30.6213 5.37868C30.0587 4.81607 29.2956 4.5 28.5 4.5Z" fill="black"/>
</g>
<defs>
<clipPath id="clip0_7561_1031">
<rect width="36" height="36" fill="white"/>
</clipPath>
</defs>
</svg>
