<svg width="348" height="387" viewBox="0 0 348 387" fill="none" xmlns="http://www.w3.org/2000/svg">
<path fill-rule="evenodd" clip-rule="evenodd" d="M202.456 328.22V260.658H193.361V337.315H247.28V328.22H202.456ZM54.3407 294.439V260.659H63.4357V294.439V303.534V337.315H54.3407V303.534H9.51565V337.315H0.420654V303.534V294.439V260.659H9.51565V294.439H54.3407ZM151.136 306.782V260.659H160.231V306.782C160.231 324.363 145.979 338.614 128.399 338.614C110.819 338.614 96.5666 324.363 96.5666 306.782V260.659H105.661V306.782C105.661 319.32 115.862 329.519 128.399 329.519C140.936 329.519 151.136 319.32 151.136 306.782ZM308.821 278.685L292.045 314.578H326.596L309.819 278.685H308.821ZM347.974 337.315H337.579L330.989 323.673H287.651L281.062 337.315H270.667L308.346 260.659H310.295L347.974 337.315Z" fill="#0A3B5D"/>
<path fill-rule="evenodd" clip-rule="evenodd" d="M234.78 78.3944L215.112 88.0874C210.998 90.1144 206.621 91.5474 202.107 92.3434C199.909 92.7314 197.689 92.9794 195.464 93.0864C197.728 94.5494 199.816 96.2745 201.685 98.2254L214.274 111.369L196.596 107.039C193.409 106.258 190.351 105.03 187.511 103.391C184.69 101.762 174.197 93.3634 174.197 93.3634C174.197 93.3634 163.704 101.762 160.883 103.391C158.043 105.03 154.985 106.258 151.798 107.039L134.12 111.369L146.709 98.2254C148.578 96.2745 150.666 94.5494 152.93 93.0864C150.705 92.9794 148.485 92.7314 146.287 92.3434C141.773 91.5474 137.396 90.1144 133.282 88.0874L113.614 78.3944L135.411 76.0124C139.97 75.5144 144.574 75.6645 149.088 76.4604C150.906 76.7814 152.705 77.1964 154.477 77.7044C152.147 75.6944 149.981 73.4994 148.001 71.1394L147.863 70.9754C144.586 67.0695 141.88 62.7194 139.824 58.0504L130.396 36.6374L149.846 49.6404C154.088 52.4764 157.903 55.8964 161.179 59.8014L161.317 59.9654C162.928 61.8854 164.41 63.9064 165.754 66.0164C164.347 60.4704 163.636 54.7704 163.636 49.0474V47.4414C163.636 40.9784 164.544 34.5484 166.331 28.3394L174.197 0.800446L182.063 28.3394C183.85 34.5484 184.758 40.9784 184.758 47.4414V49.0474C184.758 54.7704 184.047 60.4704 182.64 66.0164C183.984 63.9064 185.466 61.8854 187.077 59.9654L187.215 59.8014C190.491 55.8964 194.306 52.4764 198.548 49.6404L217.998 36.6374L208.57 58.0504C206.514 62.7194 203.808 67.0695 200.531 70.9754L200.393 71.1394C198.413 73.4994 196.247 75.6944 193.917 77.7044C195.689 77.1964 197.488 76.7814 199.306 76.4604C203.82 75.6645 208.424 75.5144 212.983 76.0124L234.78 78.3944ZM174.197 126.013L190.62 113.199L174.197 100.504L157.774 113.199L174.197 126.013ZM135.954 130.066L152.479 142.961L169.605 129.596L153.162 116.765L135.954 130.066ZM128.158 157.876L130.762 159.907L147.887 146.543L131.342 133.632L128.158 136.092V157.876ZM152.479 184.02L135.65 197.152L152.995 210.346L169.606 197.384L152.479 184.02ZM128.158 169.104L130.762 167.073L147.889 180.437L131.001 193.615L128.158 191.453V169.104ZM174.197 159.907L157.07 146.543L174.197 133.179L191.324 146.543L174.197 159.907ZM135.352 163.49L152.479 176.855L169.606 163.491L152.479 150.127L135.352 163.49ZM195.915 150.127L213.042 163.49L195.915 176.855L178.788 163.491L195.915 150.127ZM191.324 180.437L174.197 167.073L157.07 180.437L174.197 193.801L191.324 180.437ZM195.915 184.02L212.744 197.152L195.399 210.346L178.788 197.384L195.915 184.02ZM157.643 213.883L174.197 200.966L190.751 213.883L174.197 226.476L157.643 213.883ZM195.915 142.96L212.44 130.065L195.232 116.765L178.789 129.596L195.915 142.96ZM220.237 157.877L217.633 159.908L200.507 146.544L217.053 133.633L220.237 136.093V157.877ZM220.236 169.104L217.632 167.073L200.506 180.437L217.393 193.615L220.236 191.453V169.104Z" fill="#0A3B5D"/>
<path fill-rule="evenodd" clip-rule="evenodd" d="M45.4091 381.529L45.4191 385.258C45.1961 385.471 44.9451 385.579 44.6661 385.579C44.5981 385.579 44.5281 385.571 44.4571 385.556C44.3861 385.542 44.3101 385.517 44.2291 385.485C44.1491 385.453 44.0841 385.425 44.0341 385.405C43.9851 385.384 43.9121 385.348 43.8161 385.299C43.7201 385.248 43.6601 385.217 43.6351 385.205C43.0771 385.425 42.4291 385.607 41.6881 385.752C40.9481 385.897 40.2531 385.97 39.6021 385.97C38.6741 385.97 37.8181 385.842 37.0381 385.588C36.2581 385.333 35.5951 384.988 35.0501 384.555C34.5051 384.122 34.0421 383.616 33.6611 383.038C33.2791 382.459 32.9991 381.846 32.8201 381.2C32.6401 380.553 32.5511 379.885 32.5511 379.197C32.5511 378.265 32.7081 377.379 33.0241 376.536C33.3401 375.693 33.7761 374.958 34.3341 374.329C34.8911 373.7 35.5821 373.2 36.4061 372.829C37.2301 372.459 38.1191 372.273 39.0731 372.273C39.8291 372.273 40.6011 372.402 41.3911 372.66C42.1801 372.918 42.8051 373.3 43.2631 373.803C43.2631 372.914 43.3841 372.468 43.6261 372.468H44.6661C44.9641 372.468 45.1121 372.777 45.1121 373.394V375.592C45.1121 375.93 45.0961 376.178 45.0611 376.336C45.0271 376.493 44.9831 376.591 44.9301 376.63C44.8791 376.668 44.7901 376.693 44.6661 376.705H43.8951C43.8461 376.705 43.7571 376.636 43.6301 376.501C43.5031 376.364 43.3561 376.193 43.1891 375.989C43.0211 375.784 42.8041 375.561 42.5341 375.321C42.2641 375.081 41.9771 374.858 41.6751 374.654C41.3711 374.449 41.0041 374.278 40.5731 374.142C40.1421 374.006 39.6951 373.937 39.2301 373.937C38.6551 373.937 38.1221 374.037 37.6331 374.235C37.1431 374.434 36.7281 374.701 36.3881 375.037C36.0471 375.372 35.7541 375.763 35.5101 376.212C35.2641 376.659 35.0851 377.133 34.9711 377.631C34.8561 378.13 34.7991 378.639 34.7991 379.162C34.7991 379.66 34.8651 380.145 34.9991 380.617C35.1321 381.089 35.3381 381.535 35.6161 381.956C35.8951 382.378 36.2311 382.747 36.6251 383.064C37.0171 383.382 37.4921 383.633 38.0461 383.821C38.6001 384.008 39.2031 384.101 39.8531 384.101C41.0491 384.101 42.2171 383.965 43.3561 383.692V381.858C43.3561 381.657 43.3411 381.486 43.3091 381.346C43.2791 381.207 43.2191 381.066 43.1291 380.924C43.0391 380.781 42.8931 380.675 42.6921 380.603C42.4901 380.532 42.2381 380.497 41.9341 380.497C41.8171 380.497 41.7381 380.446 41.6971 380.345C41.6571 380.245 41.6381 380.063 41.6381 379.802C41.6381 379.405 41.7391 379.049 41.9441 378.734C42.7431 378.8 43.5291 378.833 44.3041 378.833C44.6201 378.833 44.9321 378.825 45.2421 378.81C45.5521 378.796 45.8051 378.779 46.0041 378.761C46.2021 378.743 46.3231 378.734 46.3661 378.734C46.4161 378.782 46.4641 378.893 46.5111 379.068C46.5561 379.243 46.5801 379.399 46.5801 379.536C46.5801 379.766 46.5401 379.949 46.4601 380.083C46.3791 380.217 46.2811 380.312 46.1671 380.372C46.0531 380.431 45.9371 380.494 45.8231 380.559C45.7091 380.624 45.6111 380.735 45.5301 380.892C45.4501 381.05 45.4091 381.262 45.4091 381.529V381.529ZM56.7931 378.227H60.6581C61.4321 378.227 62.0431 378.022 62.4881 377.613C62.9341 377.204 63.1571 376.723 63.1571 376.172C63.1571 375.572 62.9241 375.054 62.4561 374.618C61.9881 374.182 61.3271 373.964 60.4721 373.964H56.7931V378.227ZM53.5131 372.353C54.3311 372.43 55.4711 372.468 56.9321 372.468C57.4591 372.468 58.1171 372.445 58.9061 372.397C59.6961 372.35 60.2191 372.326 60.4721 372.326C61.2531 372.326 61.9571 372.434 62.5861 372.651C63.2151 372.868 63.7221 373.155 64.1091 373.514C64.4971 373.874 64.7931 374.275 64.9971 374.72C65.2011 375.166 65.3041 375.629 65.3041 376.109C65.3041 376.412 65.2561 376.716 65.1601 377.021C65.0631 377.327 64.9131 377.621 64.7091 377.902C64.5051 378.184 64.2621 378.436 63.9791 378.659C63.6981 378.882 63.3541 379.065 62.9481 379.211C62.5431 379.356 62.1071 379.437 61.6421 379.455C62.1131 379.603 62.5161 379.863 62.8501 380.234C63.1851 380.605 63.4371 381 63.6081 381.418C63.7781 381.836 63.9361 382.246 64.0821 382.646C64.2271 383.047 64.4021 383.379 64.6061 383.643C64.8111 383.907 65.0621 384.039 65.3591 384.039C66.2391 384.039 66.6791 384.116 66.6791 384.27V384.599C66.6791 384.801 66.6631 384.965 66.6331 385.089C66.6011 385.214 66.5301 385.345 66.4191 385.485C66.3071 385.625 66.1241 385.728 65.8701 385.797C65.6161 385.865 65.2881 385.899 64.8861 385.899C64.4891 385.899 64.1401 385.836 63.8411 385.708C63.5401 385.58 63.2921 385.408 63.0961 385.191C62.9021 384.975 62.7301 384.724 62.5811 384.439C62.4321 384.155 62.2981 383.852 62.1771 383.532C62.0561 383.211 61.9351 382.887 61.8141 382.561C61.6941 382.235 61.5491 381.916 61.3781 381.604C61.2081 381.293 61.0131 381.011 60.7931 380.759C60.5731 380.507 60.2911 380.289 59.9471 380.105C59.6031 379.921 59.2091 379.797 58.7631 379.731H56.7931V383.372C56.7931 383.461 56.7981 383.53 56.8061 383.581C56.8161 383.631 56.8381 383.689 56.8721 383.754C56.9061 383.819 56.9671 383.868 57.0531 383.901C57.1391 383.933 57.2511 383.95 57.3881 383.95C57.6731 383.95 57.9171 383.985 58.1211 384.056C58.3261 384.128 58.4281 384.235 58.4281 384.377C58.4281 385.166 58.3261 385.65 58.1211 385.828C57.1921 385.762 56.3961 385.73 55.7331 385.73C55.1641 385.73 54.4241 385.762 53.5131 385.828C53.3461 385.733 53.2211 385.543 53.1411 385.258C53.0601 384.973 53.0201 384.679 53.0201 384.377C53.0201 384.235 53.1231 384.128 53.3271 384.056C53.5311 383.985 53.7761 383.95 54.0611 383.95C54.3031 383.95 54.4611 383.901 54.5351 383.803C54.6091 383.705 54.6461 383.567 54.6461 383.389V374.792C54.6461 374.614 54.6091 374.475 54.5351 374.378C54.4611 374.28 54.3031 374.231 54.0611 374.231C53.3671 374.231 53.0201 374.077 53.0201 373.768C53.0201 373.477 53.0601 373.191 53.1411 372.909C53.2211 372.628 53.3461 372.442 53.5131 372.353V372.353ZM82.6241 385.588C81.8491 385.842 81.0081 385.97 80.0971 385.97C79.1861 385.97 78.3441 385.841 77.5691 385.583C76.7961 385.325 76.1341 384.975 75.5861 384.533C75.0381 384.091 74.5681 383.576 74.1791 382.989C73.7881 382.401 73.5001 381.777 73.3141 381.115C73.1291 380.454 73.0351 379.776 73.0351 379.082C73.0351 378.387 73.1291 377.713 73.3141 377.056C73.5001 376.401 73.7861 375.784 74.1741 375.206C74.5601 374.627 75.0281 374.12 75.5771 373.683C76.1251 373.248 76.7881 372.903 77.5651 372.651C78.3431 372.399 79.1861 372.273 80.0971 372.273C81.0081 372.273 81.8511 372.399 82.6291 372.651C83.4061 372.903 84.0691 373.248 84.6171 373.683C85.1651 374.12 85.6331 374.627 86.0201 375.206C86.4071 375.784 86.6931 376.401 86.8801 377.056C87.0651 377.713 87.1581 378.387 87.1581 379.082C87.1581 379.776 87.0651 380.454 86.8801 381.115C86.6931 381.777 86.4061 382.401 86.0151 382.989C85.6251 383.576 85.1561 384.091 84.6081 384.533C84.0591 384.975 83.3981 385.327 82.6241 385.588V385.588ZM78.4151 384.075C78.9301 384.27 79.4901 384.368 80.0971 384.368C80.7041 384.368 81.2641 384.269 81.7781 384.07C82.2931 383.871 82.7321 383.604 83.0971 383.269C83.4641 382.933 83.7741 382.542 84.0321 382.094C84.2891 381.646 84.4791 381.172 84.6031 380.671C84.7271 380.169 84.7891 379.651 84.7891 379.117C84.7891 378.447 84.6881 377.802 84.4871 377.185C84.2861 376.569 83.9961 376.01 83.6181 375.512C83.2401 375.014 82.7461 374.615 82.1371 374.315C81.5261 374.015 80.8471 373.866 80.0971 373.866C79.3471 373.866 78.6681 374.015 78.0571 374.315C77.4471 374.615 76.9531 375.014 76.5751 375.512C76.1971 376.01 75.9081 376.569 75.7071 377.185C75.5061 377.802 75.4051 378.447 75.4051 379.117C75.4051 379.651 75.4671 380.169 75.5911 380.671C75.7151 381.172 75.9051 381.646 76.1621 382.094C76.4191 382.542 76.7301 382.933 77.0961 383.269C77.4611 383.604 77.9011 383.873 78.4151 384.075V384.075ZM97.4351 374.765C98.7431 379.221 99.6001 382.04 100.01 383.22C100.171 382.752 100.613 381.32 101.338 378.925C102.063 376.532 102.469 375.172 102.555 374.845C102.654 374.572 102.717 374.297 102.741 374.017C102.765 373.738 102.775 373.531 102.769 373.394C102.763 373.258 102.796 373.131 102.867 373.011C102.938 372.893 103.08 372.814 103.294 372.776C103.508 372.737 103.838 372.717 104.284 372.717C104.624 372.717 104.878 372.74 105.046 372.785C105.213 372.829 105.324 372.912 105.38 373.034C105.435 373.155 105.464 373.285 105.464 373.421C105.464 373.557 105.48 373.758 105.514 374.022C105.549 374.286 105.615 374.543 105.715 374.792C105.832 375.177 106.295 376.638 107.103 379.175C107.912 381.712 108.341 383.06 108.39 383.22C108.533 382.727 108.93 381.28 109.584 378.877C110.238 376.473 110.574 375.221 110.593 375.121C110.598 375.097 110.616 375.03 110.643 374.921C110.672 374.811 110.694 374.71 110.713 374.618C110.731 374.526 110.741 374.466 110.741 374.435C110.741 374.317 110.63 374.243 110.406 374.214C110.183 374.183 109.961 374.148 109.737 374.106C109.514 374.065 109.403 373.972 109.403 373.831C109.477 373.035 109.561 372.537 109.654 372.336C110.279 372.383 111.045 372.406 111.949 372.406C112.922 372.406 113.789 372.383 114.551 372.336C114.656 372.4 114.709 372.537 114.709 372.745C114.709 373.006 114.659 373.343 114.559 373.759C114.511 373.902 114.38 374.008 114.17 374.08C113.959 374.151 113.723 374.186 113.464 374.186C113.228 374.186 113.053 374.235 112.938 374.334C112.824 374.431 112.729 374.569 112.655 374.747L110.221 383.567C110.134 383.887 110.066 384.136 110.016 384.315C109.967 384.493 109.905 384.676 109.831 384.867C109.756 385.056 109.7 385.193 109.663 385.276C109.626 385.359 109.562 385.447 109.472 385.539C109.383 385.631 109.315 385.688 109.268 385.712C109.222 385.736 109.131 385.761 108.994 385.788C108.858 385.814 108.745 385.828 108.655 385.828H107.801C107.711 385.828 107.605 385.813 107.484 385.783C107.364 385.754 107.281 385.733 107.238 385.721C107.195 385.709 107.133 385.657 107.053 385.565C106.972 385.473 106.918 385.4 106.889 385.347C106.862 385.294 106.812 385.176 106.741 384.996C106.67 384.814 106.616 384.664 106.579 384.542C106.542 384.42 106.476 384.211 106.384 383.914L103.986 376.118L101.589 384.012C101.484 384.35 101.403 384.605 101.347 384.778C101.292 384.95 101.221 385.116 101.134 385.276C101.047 385.436 100.977 385.545 100.925 385.601C100.872 385.657 100.776 385.708 100.637 385.752C100.497 385.797 100.375 385.82 100.269 385.823C100.164 385.826 99.9881 385.828 99.7401 385.828H99.3591C99.2721 385.828 99.1771 385.814 99.0711 385.788C98.9661 385.761 98.8891 385.74 98.8441 385.725C98.7971 385.711 98.7381 385.662 98.6671 385.579C98.5961 385.496 98.5461 385.428 98.5181 385.379C98.4901 385.328 98.4441 385.221 98.3791 385.058C98.3141 384.895 98.2641 384.757 98.2301 384.644C98.1961 384.531 98.1381 384.342 98.0581 384.075C98.0341 384.015 98.0041 383.922 97.9711 383.794C97.9361 383.667 97.9101 383.576 97.8911 383.522L95.1221 374.747C95.0421 374.563 94.9461 374.424 94.8341 374.329C94.7221 374.234 94.5501 374.186 94.3141 374.186C94.0541 374.186 93.8151 374.151 93.5981 374.08C93.3821 374.008 93.2491 373.902 93.1991 373.759C93.2051 373.682 93.2081 373.55 93.2081 373.363C93.2081 373.176 93.2121 373.026 93.2181 372.914C93.2231 372.8 93.2411 372.685 93.2681 372.566C93.2971 372.448 93.3391 372.371 93.3941 372.336C94.1251 372.383 94.9681 372.406 95.9221 372.406C96.8751 372.406 97.7091 372.383 98.4211 372.336C98.5321 372.573 98.6161 373.071 98.6721 373.831C98.6721 373.972 98.5611 374.065 98.3421 374.106C98.1221 374.148 97.9021 374.183 97.6821 374.214C97.4621 374.243 97.3521 374.317 97.3521 374.435C97.3521 374.518 97.3801 374.629 97.4351 374.765V374.765ZM125.32 383.389V374.195C125.32 374.13 125.317 374.08 125.311 374.044C125.305 374.008 125.285 373.972 125.251 373.937C125.217 373.902 125.166 373.883 125.097 373.883C124.806 373.883 124.384 373.883 123.829 373.88C123.275 373.877 122.877 373.875 122.636 373.875C122.58 373.994 122.488 374.289 122.361 374.76C122.234 375.232 122.105 375.646 121.975 376.002C121.846 376.358 121.727 376.536 121.623 376.536C121.388 376.536 121.179 376.507 120.995 376.447C120.812 376.387 120.674 376.315 120.577 376.229C120.481 376.143 120.41 376.063 120.363 375.989C120.317 375.915 120.294 375.857 120.294 375.815C120.294 375.613 120.408 375.003 120.638 373.982C120.867 372.961 121.025 372.409 121.111 372.326C121.13 372.326 121.148 372.328 121.167 372.331C121.186 372.334 121.205 372.336 121.223 372.336C123.062 372.483 124.788 372.557 126.398 372.557C128.003 372.557 129.724 372.483 131.564 372.336C131.583 372.336 131.601 372.334 131.62 372.331C131.638 372.328 131.657 372.326 131.676 372.326C131.763 372.409 131.921 372.961 132.149 373.982C132.379 375.003 132.493 375.613 132.493 375.815C132.493 375.857 132.471 375.915 132.424 375.989C132.378 376.063 132.306 376.143 132.21 376.229C132.114 376.315 131.974 376.387 131.792 376.447C131.609 376.507 131.4 376.536 131.165 376.536C131.059 376.536 130.942 376.358 130.811 376.002C130.681 375.646 130.554 375.232 130.427 374.76C130.3 374.289 130.208 373.994 130.152 373.875C129.91 373.875 129.513 373.877 128.958 373.88C128.404 373.883 127.981 373.883 127.69 373.883C127.591 373.883 127.529 373.911 127.504 373.964C127.479 374.017 127.467 374.094 127.467 374.195V383.372C127.467 383.461 127.472 383.53 127.481 383.581C127.49 383.631 127.512 383.689 127.546 383.754C127.58 383.819 127.64 383.868 127.727 383.901C127.813 383.933 127.926 383.95 128.061 383.95C128.347 383.95 128.591 383.985 128.796 384.056C129 384.128 129.102 384.235 129.102 384.377C129.102 385.166 129 385.65 128.796 385.828C127.866 385.762 127.07 385.73 126.408 385.73C125.758 385.73 124.955 385.762 124.001 385.828C123.797 385.65 123.694 385.166 123.694 384.377C123.694 384.235 123.797 384.128 124.001 384.056C124.206 383.985 124.45 383.95 124.735 383.95C124.976 383.95 125.135 383.901 125.209 383.803C125.283 383.705 125.32 383.567 125.32 383.389V383.389ZM139.045 385.828C138.878 385.733 138.754 385.543 138.674 385.258C138.593 384.973 138.553 384.679 138.553 384.377C138.553 384.235 138.655 384.128 138.859 384.056C139.064 383.985 139.308 383.95 139.594 383.95C139.835 383.95 139.993 383.901 140.067 383.803C140.141 383.705 140.179 383.567 140.179 383.389V374.792C140.179 374.614 140.141 374.475 140.067 374.378C139.993 374.28 139.835 374.231 139.594 374.231C138.899 374.231 138.553 374.077 138.553 373.768C138.553 373.477 138.593 373.191 138.674 372.909C138.754 372.628 138.878 372.442 139.045 372.353C140.073 372.43 140.813 372.468 141.265 372.468C141.83 372.468 142.595 372.433 143.56 372.362C143.697 372.457 143.798 372.646 143.863 372.931C143.928 373.216 143.961 373.513 143.961 373.821C143.961 373.964 143.858 374.071 143.654 374.142C143.449 374.214 143.205 374.249 142.92 374.249C142.783 374.249 142.672 374.265 142.585 374.298C142.499 374.33 142.438 374.38 142.404 374.444C142.37 374.509 142.348 374.568 142.339 374.618C142.33 374.669 142.325 374.738 142.325 374.827V377.862C142.325 377.987 142.384 378.05 142.502 378.05H149.823C149.941 378.05 150 377.987 150 377.862V374.809C150 374.632 149.963 374.494 149.888 374.395C149.814 374.298 149.656 374.249 149.415 374.249C149.13 374.249 148.885 374.214 148.68 374.142C148.476 374.071 148.374 373.964 148.374 373.821C148.374 373.513 148.414 373.216 148.495 372.931C148.575 372.646 148.699 372.457 148.866 372.362C149.82 372.433 150.56 372.468 151.087 372.468C151.65 372.468 152.416 372.433 153.382 372.362C153.518 372.457 153.619 372.646 153.683 372.931C153.749 373.216 153.781 373.513 153.781 373.821C153.781 373.964 153.68 374.071 153.474 374.142C153.27 374.214 153.025 374.249 152.741 374.249C152.604 374.249 152.493 374.265 152.406 374.298C152.319 374.33 152.259 374.38 152.225 374.444C152.191 374.509 152.17 374.568 152.16 374.618C152.15 374.669 152.146 374.738 152.146 374.827V383.372C152.146 383.461 152.15 383.53 152.16 383.581C152.17 383.631 152.191 383.689 152.225 383.754C152.259 383.819 152.319 383.868 152.406 383.901C152.493 383.933 152.604 383.95 152.741 383.95C153.025 383.95 153.27 383.985 153.474 384.056C153.68 384.128 153.781 384.235 153.781 384.377C153.781 384.685 153.749 384.981 153.683 385.262C153.619 385.545 153.518 385.733 153.382 385.828C152.496 385.762 151.731 385.73 151.087 385.73C150.479 385.73 149.74 385.762 148.866 385.828C148.699 385.733 148.575 385.543 148.495 385.258C148.414 384.973 148.374 384.679 148.374 384.377C148.374 384.235 148.476 384.128 148.68 384.056C148.885 383.985 149.13 383.95 149.415 383.95C149.656 383.95 149.814 383.901 149.888 383.803C149.963 383.705 150 383.567 150 383.389V379.625C150 379.5 149.941 379.437 149.823 379.437H142.502C142.384 379.437 142.325 379.5 142.325 379.625V383.372C142.325 383.461 142.33 383.53 142.339 383.581C142.348 383.631 142.37 383.689 142.404 383.754C142.438 383.819 142.499 383.868 142.585 383.901C142.672 383.933 142.783 383.95 142.92 383.95C143.205 383.95 143.449 383.985 143.654 384.056C143.858 384.128 143.961 384.235 143.961 384.377C143.961 384.685 143.928 384.981 143.863 385.262C143.798 385.545 143.697 385.733 143.56 385.828C142.675 385.762 141.91 385.73 141.265 385.73C140.659 385.73 139.919 385.762 139.045 385.828V385.828ZM170.908 385.828C170.741 385.733 170.617 385.543 170.536 385.258C170.456 384.973 170.416 384.679 170.416 384.377C170.416 384.235 170.517 384.128 170.722 384.056C170.927 383.985 171.172 383.95 171.456 383.95C171.698 383.95 171.855 383.901 171.93 383.803C172.005 383.705 172.042 383.567 172.042 383.389V374.792C172.042 374.614 172.005 374.475 171.93 374.378C171.855 374.28 171.698 374.231 171.456 374.231C170.763 374.231 170.416 374.077 170.416 373.768C170.416 373.477 170.456 373.191 170.536 372.909C170.617 372.628 170.741 372.442 170.908 372.353C171.936 372.43 172.677 372.468 173.129 372.468C173.692 372.468 174.457 372.433 175.424 372.362C175.559 372.457 175.661 372.646 175.725 372.931C175.791 373.216 175.823 373.513 175.823 373.821C175.823 373.964 175.721 374.071 175.516 374.142C175.312 374.214 175.067 374.249 174.782 374.249C174.646 374.249 174.535 374.265 174.448 374.298C174.361 374.33 174.301 374.38 174.266 374.444C174.232 374.509 174.211 374.568 174.202 374.618C174.192 374.669 174.187 374.738 174.187 374.827V377.862C174.187 377.987 174.247 378.05 174.364 378.05H181.686C181.804 378.05 181.862 377.987 181.862 377.862V374.809C181.862 374.632 181.825 374.494 181.751 374.395C181.677 374.298 181.518 374.249 181.277 374.249C180.992 374.249 180.748 374.214 180.543 374.142C180.339 374.071 180.236 373.964 180.236 373.821C180.236 373.513 180.277 373.216 180.357 372.931C180.437 372.646 180.561 372.457 180.729 372.362C181.682 372.433 182.423 372.468 182.95 372.468C183.513 372.468 184.278 372.433 185.245 372.362C185.381 372.457 185.481 372.646 185.547 372.931C185.611 373.216 185.644 373.513 185.644 373.821C185.644 373.964 185.542 374.071 185.338 374.142C185.133 374.214 184.888 374.249 184.603 374.249C184.468 374.249 184.355 374.265 184.269 374.298C184.182 374.33 184.122 374.38 184.088 374.444C184.054 374.509 184.032 374.568 184.022 374.618C184.013 374.669 184.009 374.738 184.009 374.827V383.372C184.009 383.461 184.013 383.53 184.022 383.581C184.032 383.631 184.054 383.689 184.088 383.754C184.122 383.819 184.182 383.868 184.269 383.901C184.355 383.933 184.468 383.95 184.603 383.95C184.888 383.95 185.133 383.985 185.338 384.056C185.542 384.128 185.644 384.235 185.644 384.377C185.644 384.685 185.611 384.981 185.547 385.262C185.481 385.545 185.381 385.733 185.245 385.828C184.359 385.762 183.594 385.73 182.95 385.73C182.343 385.73 181.602 385.762 180.729 385.828C180.561 385.733 180.437 385.543 180.357 385.258C180.277 384.973 180.236 384.679 180.236 384.377C180.236 384.235 180.339 384.128 180.543 384.056C180.748 383.985 180.992 383.95 181.277 383.95C181.518 383.95 181.677 383.901 181.751 383.803C181.825 383.705 181.862 383.567 181.862 383.389V379.625C181.862 379.5 181.804 379.437 181.686 379.437H174.364C174.247 379.437 174.187 379.5 174.187 379.625V383.372C174.187 383.461 174.192 383.53 174.202 383.581C174.211 383.631 174.232 383.689 174.266 383.754C174.301 383.819 174.361 383.868 174.448 383.901C174.535 383.933 174.646 383.95 174.782 383.95C175.067 383.95 175.312 383.985 175.516 384.056C175.721 384.128 175.823 384.235 175.823 384.377C175.823 384.685 175.791 384.981 175.725 385.262C175.661 385.545 175.559 385.733 175.424 385.828C174.538 385.762 173.773 385.73 173.129 385.73C172.521 385.73 171.781 385.762 170.908 385.828V385.828ZM201.757 385.588C200.982 385.842 200.139 385.97 199.229 385.97C198.319 385.97 197.476 385.841 196.702 385.583C195.928 385.325 195.266 384.975 194.719 384.533C194.17 384.091 193.701 383.576 193.31 382.989C192.921 382.401 192.633 381.777 192.447 381.115C192.261 380.454 192.168 379.776 192.168 379.082C192.168 378.387 192.261 377.713 192.447 377.056C192.633 376.401 192.919 375.784 193.306 375.206C193.693 374.627 194.161 374.12 194.709 373.683C195.258 373.248 195.92 372.903 196.697 372.651C197.474 372.399 198.319 372.273 199.229 372.273C200.139 372.273 200.984 372.399 201.762 372.651C202.539 372.903 203.201 373.248 203.75 373.683C204.298 374.12 204.765 374.627 205.152 375.206C205.54 375.784 205.826 376.401 206.013 377.056C206.198 377.713 206.291 378.387 206.291 379.082C206.291 379.776 206.198 380.454 206.013 381.115C205.826 381.777 205.538 382.401 205.148 382.989C204.758 383.576 204.289 384.091 203.74 384.533C203.192 384.975 202.531 385.327 201.757 385.588V385.588ZM197.548 384.075C198.061 384.27 198.622 384.368 199.229 384.368C199.837 384.368 200.397 384.269 200.911 384.07C201.426 383.871 201.865 383.604 202.23 383.269C202.596 382.933 202.907 382.542 203.164 382.094C203.422 381.646 203.612 381.172 203.736 380.671C203.859 380.169 203.922 379.651 203.922 379.117C203.922 378.447 203.821 377.802 203.62 377.185C203.418 376.569 203.129 376.01 202.751 375.512C202.373 375.014 201.879 374.615 201.268 374.315C200.659 374.015 199.979 373.866 199.229 373.866C198.48 373.866 197.8 374.015 197.19 374.315C196.58 374.615 196.086 375.014 195.708 375.512C195.33 376.01 195.041 376.569 194.84 377.185C194.638 377.802 194.537 378.447 194.537 379.117C194.537 379.651 194.599 380.169 194.723 380.671C194.846 381.172 195.037 381.646 195.295 382.094C195.552 382.542 195.863 382.933 196.228 383.269C196.594 383.604 197.033 383.873 197.548 384.075V384.075ZM213.39 372.353C213.688 372.43 214.426 372.468 215.602 372.468C216.637 372.468 217.311 372.43 217.628 372.353C217.795 372.442 217.919 372.61 217.999 372.856C218.08 373.102 218.12 373.362 218.12 373.634C218.12 373.777 218.036 373.883 217.869 373.955C217.702 374.026 217.501 374.062 217.265 374.062C217.129 374.062 217.017 374.078 216.93 374.111C216.844 374.143 216.784 374.192 216.75 374.258C216.716 374.323 216.694 374.381 216.684 374.431C216.676 374.481 216.671 374.551 216.671 374.64V383.825C216.671 384.033 216.714 384.136 216.801 384.136C217.358 384.136 218.115 384.138 219.072 384.141C220.029 384.144 220.713 384.145 221.121 384.145C221.202 384.009 221.35 383.656 221.567 383.087C221.784 382.517 222.001 382.018 222.218 381.591C222.434 381.164 222.623 380.951 222.784 380.951C223.019 380.951 223.228 380.98 223.412 381.04C223.595 381.099 223.733 381.172 223.83 381.258C223.926 381.343 223.997 381.424 224.044 381.498C224.09 381.572 224.113 381.63 224.113 381.672C224.113 381.915 223.851 382.646 223.328 383.865C222.805 385.085 222.453 385.739 222.273 385.828C220.582 385.762 219.031 385.73 217.618 385.73C216.299 385.73 214.889 385.762 213.39 385.828C213.223 385.733 213.099 385.543 213.019 385.258C212.938 384.973 212.898 384.679 212.898 384.377C212.898 384.235 213.001 384.128 213.205 384.056C213.409 383.985 213.654 383.95 213.939 383.95C214.18 383.95 214.339 383.901 214.413 383.803C214.487 383.705 214.524 383.567 214.524 383.389V374.792C214.524 374.614 214.487 374.475 214.413 374.378C214.339 374.28 214.18 374.231 213.939 374.231C213.245 374.231 212.898 374.077 212.898 373.768C212.898 373.477 212.938 373.191 213.019 372.909C213.099 372.628 213.223 372.442 213.39 372.353V372.353ZM234.288 384.19H237.893C238.42 384.19 238.911 384.095 239.366 383.905C239.821 383.716 240.213 383.459 240.542 383.135C240.87 382.812 241.15 382.434 241.383 382.001C241.615 381.567 241.788 381.106 241.902 380.617C242.017 380.128 242.074 379.628 242.074 379.117C242.074 378.47 241.977 377.844 241.782 377.239C241.587 376.633 241.308 376.085 240.945 375.592C240.583 375.1 240.112 374.706 239.533 374.409C238.954 374.112 238.314 373.964 237.615 373.964H234.288V384.19ZM231.009 372.353C231.826 372.43 232.966 372.468 234.428 372.468C234.898 372.468 235.492 372.449 236.207 372.411C236.923 372.372 237.391 372.353 237.615 372.353C238.538 372.353 239.383 372.479 240.151 372.731C240.92 372.983 241.566 373.326 242.093 373.759C242.62 374.192 243.067 374.697 243.435 375.272C243.805 375.847 244.072 376.456 244.239 377.096C244.407 377.738 244.49 378.399 244.49 379.082C244.49 379.776 244.408 380.445 244.244 381.089C244.08 381.732 243.823 382.343 243.472 382.922C243.123 383.501 242.694 384.004 242.186 384.43C241.679 384.858 241.055 385.197 240.318 385.45C239.581 385.702 238.773 385.828 237.893 385.828C237.634 385.828 237.145 385.811 236.43 385.779C235.715 385.746 235.081 385.73 234.53 385.73C234.269 385.73 233.954 385.736 233.582 385.748C233.211 385.759 232.767 385.774 232.254 385.792C231.739 385.81 231.324 385.822 231.009 385.828C230.842 385.733 230.718 385.543 230.637 385.258C230.556 384.973 230.516 384.679 230.516 384.377C230.516 384.235 230.618 384.128 230.823 384.056C231.027 383.985 231.271 383.95 231.556 383.95C231.799 383.95 231.956 383.901 232.03 383.803C232.105 383.705 232.142 383.567 232.142 383.389V374.792C232.142 374.614 232.105 374.475 232.03 374.378C231.956 374.28 231.799 374.231 231.556 374.231C230.863 374.231 230.516 374.077 230.516 373.768C230.516 373.477 230.556 373.191 230.637 372.909C230.718 372.628 230.842 372.442 231.009 372.353V372.353ZM251.507 372.353C252.535 372.43 253.275 372.468 253.727 372.468C254.211 372.468 254.975 372.43 256.022 372.353C256.158 372.448 256.26 372.639 256.324 372.927C256.389 373.215 256.422 373.513 256.422 373.821C256.422 373.964 256.319 374.071 256.115 374.142C255.911 374.214 255.666 374.249 255.381 374.249C255.245 374.249 255.134 374.265 255.047 374.298C254.96 374.33 254.899 374.38 254.865 374.444C254.831 374.509 254.809 374.568 254.801 374.618C254.791 374.669 254.786 374.738 254.786 374.827V383.372C254.786 383.461 254.791 383.53 254.801 383.581C254.809 383.631 254.831 383.689 254.865 383.754C254.899 383.819 254.96 383.868 255.047 383.901C255.134 383.933 255.245 383.95 255.381 383.95C255.666 383.95 255.911 383.985 256.115 384.056C256.319 384.128 256.422 384.235 256.422 384.377C256.422 384.685 256.389 384.981 256.324 385.262C256.26 385.545 256.158 385.733 256.022 385.828C255.137 385.762 254.372 385.73 253.727 385.73C253.12 385.73 252.38 385.762 251.507 385.828C251.34 385.733 251.216 385.543 251.135 385.258C251.055 384.973 251.014 384.679 251.014 384.377C251.014 384.235 251.116 384.128 251.321 384.056C251.525 383.985 251.77 383.95 252.055 383.95C252.297 383.95 252.454 383.901 252.528 383.803C252.603 383.705 252.64 383.567 252.64 383.389V374.792C252.64 374.614 252.603 374.475 252.528 374.378C252.454 374.28 252.297 374.231 252.055 374.231C251.361 374.231 251.014 374.077 251.014 373.768C251.014 373.477 251.055 373.191 251.135 372.909C251.216 372.628 251.34 372.442 251.507 372.353V372.353ZM263.55 372.353C263.655 372.359 263.827 372.374 264.065 372.397C264.304 372.422 264.522 372.439 264.721 372.451C264.919 372.463 265.141 372.468 265.389 372.468C265.588 372.468 265.832 372.459 266.123 372.437C266.414 372.417 266.591 372.406 266.653 372.406C266.672 372.406 266.693 372.408 266.718 372.411C266.743 372.414 266.758 372.416 266.764 372.416C266.87 372.422 267.263 372.842 267.944 373.679C268.626 374.515 269.451 375.575 270.421 376.856C271.389 378.138 272.141 379.137 272.674 379.856C273.206 380.574 273.686 381.22 274.114 381.796V374.818C274.114 374.64 274.077 374.503 274.003 374.404C273.928 374.306 273.77 374.258 273.528 374.258C273.244 374.258 272.999 374.222 272.795 374.151C272.59 374.08 272.488 373.972 272.488 373.831C272.488 373.528 272.52 373.239 272.586 372.963C272.65 372.686 272.751 372.502 272.888 372.406C273.445 372.448 274.185 372.468 275.108 372.468C276.037 372.468 276.771 372.448 277.31 372.406C277.446 372.502 277.547 372.686 277.612 372.963C277.677 373.239 277.71 373.528 277.71 373.831C277.71 373.972 277.607 374.08 277.403 374.151C277.198 374.222 276.954 374.258 276.669 374.258C276.533 374.258 276.421 374.274 276.335 374.306C276.248 374.34 276.187 374.388 276.153 374.454C276.119 374.518 276.097 374.577 276.088 374.627C276.079 374.677 276.074 374.747 276.074 374.836V382.046C276.074 382.455 276.095 383.109 276.135 384.008C276.175 384.907 276.195 385.439 276.195 385.605C275.879 385.908 275.545 386.059 275.191 386.059C275.117 386.059 275.048 386.048 274.982 386.023C274.918 386 274.857 385.96 274.802 385.903C274.746 385.847 274.701 385.8 274.667 385.761C274.633 385.722 274.585 385.657 274.522 385.565C274.461 385.473 274.414 385.407 274.384 385.365C273.819 384.605 272.388 382.699 270.091 379.646C267.793 376.593 266.643 375.073 266.643 375.086V383.372C266.643 383.461 266.648 383.53 266.657 383.581C266.667 383.631 266.688 383.689 266.722 383.754C266.757 383.819 266.817 383.868 266.904 383.901C266.99 383.933 267.102 383.95 267.238 383.95C267.523 383.95 267.767 383.985 267.972 384.056C268.177 384.128 268.279 384.235 268.279 384.377C268.279 384.679 268.246 384.973 268.181 385.258C268.116 385.543 268.015 385.733 267.88 385.828C267.037 385.762 266.303 385.73 265.678 385.73C265.089 385.73 264.38 385.762 263.55 385.828C263.383 385.733 263.259 385.543 263.178 385.258C263.097 384.973 263.057 384.679 263.057 384.377C263.057 384.235 263.159 384.128 263.364 384.056C263.568 383.985 263.812 383.95 264.097 383.95C264.34 383.95 264.497 383.901 264.571 383.803C264.646 383.705 264.683 383.567 264.683 383.389V374.792C264.683 374.614 264.646 374.475 264.571 374.378C264.497 374.28 264.34 374.231 264.097 374.231C263.404 374.231 263.057 374.077 263.057 373.768C263.057 373.477 263.097 373.191 263.178 372.909C263.259 372.628 263.383 372.442 263.55 372.353V372.353ZM297.167 381.529L297.177 385.258C296.953 385.471 296.702 385.579 296.424 385.579C296.355 385.579 296.286 385.571 296.215 385.556C296.143 385.542 296.067 385.517 295.987 385.485C295.906 385.453 295.842 385.425 295.792 385.405C295.742 385.384 295.67 385.348 295.573 385.299C295.477 385.248 295.417 385.217 295.392 385.205C294.835 385.425 294.186 385.607 293.446 385.752C292.706 385.897 292.011 385.97 291.36 385.97C290.43 385.97 289.576 385.842 288.796 385.588C288.015 385.333 287.352 384.988 286.807 384.555C286.262 384.122 285.799 383.616 285.418 383.038C285.037 382.459 284.757 381.846 284.577 381.2C284.397 380.553 284.307 379.885 284.307 379.197C284.307 378.265 284.466 377.379 284.782 376.536C285.097 375.693 285.534 374.958 286.092 374.329C286.649 373.7 287.34 373.2 288.164 372.829C288.987 372.459 289.877 372.273 290.83 372.273C291.586 372.273 292.359 372.402 293.148 372.66C293.938 372.918 294.562 373.3 295.02 373.803C295.02 372.914 295.141 372.468 295.383 372.468H296.424C296.721 372.468 296.87 372.777 296.87 373.394V375.592C296.87 375.93 296.852 376.178 296.818 376.336C296.785 376.493 296.741 376.591 296.688 376.63C296.636 376.668 296.548 376.693 296.424 376.705H295.652C295.603 376.705 295.514 376.636 295.388 376.501C295.261 376.364 295.114 376.193 294.946 375.989C294.779 375.784 294.56 375.561 294.292 375.321C294.022 375.081 293.735 374.858 293.431 374.654C293.129 374.449 292.762 374.278 292.331 374.142C291.9 374.006 291.453 373.937 290.988 373.937C290.412 373.937 289.88 374.037 289.39 374.235C288.901 374.434 288.486 374.701 288.145 375.037C287.805 375.372 287.512 375.763 287.267 376.212C287.022 376.659 286.843 377.133 286.728 377.631C286.613 378.13 286.556 378.639 286.556 379.162C286.556 379.66 286.623 380.145 286.756 380.617C286.889 381.089 287.096 381.535 287.374 381.956C287.652 382.378 287.989 382.747 288.382 383.064C288.775 383.382 289.249 383.633 289.804 383.821C290.358 384.008 290.961 384.101 291.611 384.101C292.806 384.101 293.973 383.965 295.114 383.692V381.858C295.114 381.657 295.098 381.486 295.067 381.346C295.036 381.207 294.975 381.066 294.886 380.924C294.796 380.781 294.65 380.675 294.449 380.603C294.248 380.532 293.996 380.497 293.692 380.497C293.574 380.497 293.495 380.446 293.455 380.345C293.415 380.245 293.394 380.063 293.394 379.802C293.394 379.405 293.497 379.049 293.701 378.734C294.501 378.8 295.287 378.833 296.061 378.833C296.377 378.833 296.69 378.825 297 378.81C297.309 378.796 297.563 378.779 297.762 378.761C297.96 378.743 298.081 378.734 298.124 378.734C298.174 378.782 298.221 378.893 298.268 379.068C298.314 379.243 298.338 379.399 298.338 379.536C298.338 379.766 298.298 379.949 298.217 380.083C298.137 380.217 298.039 380.312 297.925 380.372C297.809 380.431 297.695 380.494 297.581 380.559C297.466 380.624 297.368 380.735 297.288 380.892C297.207 381.05 297.167 381.262 297.167 381.529V381.529ZM306.534 385.828H305.633C305.23 384.148 305.029 382.882 305.029 382.027C305.029 381.891 305.168 381.778 305.447 381.689C305.725 381.6 306.016 381.555 306.32 381.555C306.444 381.555 306.544 381.564 306.618 381.583C306.816 382.063 307.092 382.49 307.444 382.864C307.798 383.238 308.183 383.532 308.601 383.745C309.019 383.959 309.437 384.121 309.855 384.23C310.274 384.34 310.678 384.395 311.068 384.395C311.78 384.395 312.361 384.242 312.81 383.936C313.26 383.631 313.484 383.181 313.484 382.589C313.484 382.19 313.384 381.841 313.182 381.543C312.98 381.243 312.711 381 312.374 380.812C312.036 380.626 311.649 380.461 311.212 380.319C310.775 380.176 310.314 380.043 309.828 379.918C309.342 379.794 308.855 379.663 308.369 379.526C307.883 379.39 307.422 379.217 306.984 379.01C306.548 378.802 306.161 378.561 305.823 378.285C305.485 378.009 305.217 377.651 305.014 377.213C304.813 376.773 304.713 376.269 304.713 375.699C304.713 374.969 304.948 374.34 305.419 373.808C305.889 373.277 306.483 372.888 307.198 372.642C307.914 372.396 308.693 372.273 309.535 372.273C310.848 372.273 311.964 372.588 312.88 373.216C312.942 373.097 312.99 372.982 313.024 372.869C313.058 372.757 313.075 372.679 313.075 372.637C313.075 372.596 313.101 372.557 313.154 372.522C313.207 372.486 313.273 372.467 313.354 372.465C313.434 372.462 313.58 372.46 313.791 372.46C313.976 372.46 314.27 372.474 314.674 372.505C315.063 374.16 315.259 375.338 315.259 376.038C315.259 376.133 315.096 376.21 314.771 376.269C314.446 376.329 314.128 376.358 313.818 376.358H313.586C313.357 375.581 312.902 374.941 312.221 374.44C311.539 373.938 310.681 373.688 309.646 373.688C308.773 373.688 308.117 373.854 307.677 374.186C307.237 374.518 307.017 374.972 307.017 375.549C307.017 375.886 307.118 376.186 307.319 376.447C307.52 376.708 307.792 376.924 308.132 377.092C308.472 377.261 308.863 377.414 309.303 377.55C309.743 377.687 310.207 377.821 310.696 377.951C311.186 378.082 311.676 378.221 312.165 378.37C312.654 378.518 313.119 378.702 313.558 378.922C313.998 379.14 314.388 379.393 314.729 379.677C315.07 379.963 315.341 380.326 315.542 380.768C315.743 381.21 315.844 381.71 315.844 382.267C315.844 382.903 315.714 383.465 315.454 383.954C315.193 384.444 314.839 384.831 314.389 385.116C313.941 385.4 313.439 385.614 312.885 385.757C312.33 385.899 311.734 385.97 311.096 385.97C310.415 385.97 309.738 385.86 309.066 385.641C308.393 385.422 307.785 385.116 307.24 384.724L307.082 385.605C307.07 385.659 307.053 385.699 307.031 385.725C307.01 385.752 306.959 385.776 306.878 385.797C306.798 385.817 306.682 385.828 306.534 385.828V385.828Z" fill="#0A3B5D"/>
</svg>
