<svg width="36" height="24" viewBox="0 0 36 24" fill="none" xmlns="http://www.w3.org/2000/svg">
<path fill-rule="evenodd" clip-rule="evenodd" d="M23.3629 3.81046H32.5202V1.18813H23.3629V3.81046ZM27.8767 9.07709C25.834 9.07709 24.2826 10.3426 24.1332 12.681H31.4619C30.9651 9.9058 29.7323 9.07709 27.8767 9.07709ZM28.1629 19.9232C30.0491 19.9232 31.4331 18.7317 31.7157 17.728H35.6824C34.5485 21.3583 32.207 23.3971 28.0027 23.3971C22.6376 23.3971 19.6266 19.5812 19.6266 14.5177C19.6266 2.59333 36.8324 2.16581 35.9685 15.6312H24.1332C24.2484 18.3655 25.3768 19.9232 28.1629 19.9232ZM10.3127 19.3986C12.4778 19.3986 13.9933 18.5657 13.9933 16.3184C13.9933 13.9874 12.6542 12.9763 10.4063 12.9763H4.98178V19.3986H10.3127ZM10.0266 9.47079C11.8281 9.47079 13.0718 8.63219 13.0718 6.68413C13.0718 4.63199 11.6248 3.99853 9.6468 3.99853H4.98178V9.47079H10.0266ZM10.6619 0C14.9291 0 17.8952 1.41048 17.8952 5.79918C17.8952 7.97216 17.0223 9.59152 14.8176 10.6827C17.6396 11.521 18.975 13.7222 18.975 16.6145C18.975 21.2059 15.3341 23.3971 10.9786 23.3971H0V0H10.6619Z" fill="#111827"/>
</svg>
