<svg width="350" height="352" viewBox="0 0 350 352" fill="none" xmlns="http://www.w3.org/2000/svg">
<path d="M336.161 219.848L336.558 218.313C337.023 218.337 337.452 218.278 337.845 218.138C338.236 218.002 338.587 217.802 338.898 217.539C339.211 217.281 339.475 216.973 339.691 216.615C339.907 216.257 340.07 215.868 340.178 215.447C340.377 214.68 340.363 213.935 340.136 213.211C339.909 212.492 339.465 211.851 338.805 211.289C338.144 210.73 337.265 210.309 336.168 210.025C335.07 209.741 334.097 209.683 333.248 209.851C332.398 210.022 331.699 210.367 331.151 210.886C330.602 211.408 330.228 212.053 330.03 212.821C329.921 213.242 329.874 213.661 329.889 214.078C329.904 214.496 329.984 214.893 330.129 215.27C330.277 215.651 330.489 215.997 330.765 216.306C331.045 216.62 331.392 216.879 331.805 217.083L331.408 218.618C330.79 218.335 330.265 217.974 329.833 217.537C329.4 217.099 329.063 216.607 328.822 216.06C328.584 215.515 328.446 214.935 328.407 214.322C328.366 213.713 328.429 213.089 328.594 212.449C328.874 211.368 329.387 210.475 330.133 209.77C330.878 209.066 331.801 208.598 332.899 208.367C333.998 208.136 335.215 208.194 336.552 208.54C337.889 208.886 338.981 209.426 339.83 210.161C340.679 210.895 341.258 211.752 341.568 212.73C341.879 213.708 341.894 214.738 341.614 215.819C341.449 216.458 341.2 217.034 340.87 217.547C340.538 218.065 340.133 218.504 339.657 218.865C339.185 219.227 338.653 219.494 338.063 219.667C337.476 219.841 336.842 219.901 336.161 219.848Z" fill="#111827"/>
<path d="M324.996 225.883L334.201 229.298L333.694 230.664L332.304 230.149L332.268 230.244C332.662 230.581 332.919 231.022 333.039 231.567C333.16 232.111 333.118 232.659 332.913 233.211C332.875 233.315 332.825 233.444 332.763 233.598C332.701 233.752 332.651 233.868 332.614 233.945L331.176 233.411C331.205 233.368 331.264 233.265 331.352 233.102C331.442 232.944 331.522 232.772 331.592 232.584C331.758 232.137 331.812 231.702 331.754 231.281C331.7 230.865 331.546 230.495 331.294 230.169C331.045 229.85 330.712 229.613 330.297 229.458L324.471 227.298L324.996 225.883Z" fill="#111827"/>
<path d="M318.663 241.218C319.073 240.366 319.615 239.721 320.289 239.284C320.965 238.852 321.723 238.633 322.563 238.626C323.406 238.625 324.28 238.842 325.186 239.278C326.092 239.715 326.811 240.264 327.344 240.927C327.878 241.596 328.196 242.321 328.297 243.103C328.4 243.89 328.26 244.683 327.876 245.482C327.654 245.943 327.358 246.361 326.988 246.736C326.618 247.111 326.172 247.4 325.649 247.602C325.13 247.807 324.535 247.882 323.866 247.829C323.196 247.777 322.448 247.552 321.623 247.154L321.047 246.877L324.329 240.058L325.504 240.623L322.887 246.06C323.386 246.3 323.88 246.415 324.367 246.404C324.853 246.397 325.297 246.265 325.699 246.009C326.1 245.757 326.418 245.386 326.655 244.894C326.915 244.353 327.006 243.82 326.928 243.295C326.851 242.776 326.651 242.308 326.326 241.891C326.002 241.475 325.595 241.15 325.108 240.915L324.324 240.538C323.656 240.216 323.035 240.059 322.459 240.066C321.886 240.078 321.378 240.234 320.937 240.532C320.499 240.832 320.148 241.257 319.884 241.806C319.712 242.163 319.607 242.509 319.568 242.845C319.531 243.187 319.564 243.513 319.665 243.822C319.771 244.133 319.95 244.42 320.202 244.683L319.201 245.819C318.822 245.466 318.542 245.045 318.361 244.556C318.184 244.069 318.117 243.54 318.16 242.97C318.207 242.401 318.374 241.817 318.663 241.218Z" fill="#111827"/>
<path d="M311.774 254.534C312.101 254.005 312.496 253.585 312.962 253.276C313.431 252.97 313.934 252.807 314.472 252.787C315.013 252.77 315.555 252.929 316.1 253.264C316.579 253.559 316.909 253.893 317.09 254.265C317.275 254.639 317.356 255.036 317.332 255.457C317.308 255.878 317.22 256.304 317.069 256.737C316.919 257.175 316.75 257.604 316.562 258.023C316.315 258.572 316.11 259.014 315.948 259.349C315.788 259.691 315.705 259.96 315.699 260.157C315.691 260.357 315.79 260.521 315.997 260.648L316.04 260.675C316.577 261.005 317.085 261.115 317.564 261.005C318.04 260.898 318.46 260.548 318.824 259.957C319.202 259.344 319.364 258.78 319.31 258.267C319.256 257.753 319.12 257.331 318.902 257.002L320.089 256.051C320.463 256.582 320.679 257.116 320.739 257.653C320.8 258.196 320.754 258.718 320.6 259.219C320.448 259.726 320.243 260.19 319.983 260.611C319.818 260.879 319.595 261.167 319.316 261.476C319.037 261.79 318.699 262.049 318.302 262.255C317.903 262.465 317.439 262.557 316.909 262.531C316.38 262.505 315.783 262.288 315.119 261.879L309.611 258.487L310.402 257.202L311.534 257.899L311.574 257.834C311.446 257.635 311.341 257.371 311.26 257.04C311.178 256.709 311.169 256.331 311.231 255.904C311.294 255.477 311.475 255.021 311.774 254.534ZM312.808 255.441C312.495 255.949 312.331 256.438 312.316 256.91C312.299 257.385 312.393 257.808 312.599 258.18C312.803 258.556 313.079 258.851 313.428 259.066L314.603 259.79C314.572 259.695 314.586 259.539 314.645 259.32C314.706 259.107 314.79 258.869 314.898 258.605C315.007 258.347 315.116 258.096 315.226 257.853C315.336 257.616 315.425 257.423 315.492 257.274C315.654 256.914 315.775 256.558 315.856 256.207C315.938 255.863 315.938 255.542 315.855 255.246C315.774 254.956 315.57 254.71 315.243 254.509C314.797 254.234 314.358 254.191 313.926 254.381C313.495 254.576 313.123 254.929 312.808 255.441Z" fill="#111827"/>
<path d="M310.019 275.352L308.997 274.585L312.049 270.514L313.072 271.281L310.019 275.352ZM314.064 273.879L313.159 275.086L305.673 269.471C305.332 269.215 305.039 269.073 304.794 269.044C304.551 269.021 304.341 269.066 304.165 269.18C303.991 269.299 303.837 269.447 303.704 269.624C303.604 269.757 303.529 269.872 303.479 269.967C303.432 270.065 303.395 270.143 303.366 270.202L302.098 269.635C302.129 269.53 302.184 269.393 302.263 269.223C302.339 269.051 302.461 268.852 302.63 268.627C302.886 268.286 303.21 268.007 303.602 267.79C303.991 267.576 304.416 267.474 304.877 267.484C305.336 267.498 305.794 267.676 306.25 268.019L314.064 273.879Z" fill="#111827"/>
<path d="M297.132 275.969L304.537 282.416L303.546 283.553L296.141 277.107L297.132 275.969ZM305.267 284.069C305.46 283.847 305.702 283.721 305.993 283.692C306.282 283.666 306.532 283.746 306.744 283.93C306.956 284.115 307.069 284.352 307.083 284.641C307.094 284.933 307.003 285.19 306.81 285.412C306.617 285.634 306.376 285.757 306.088 285.783C305.797 285.813 305.546 285.735 305.334 285.55C305.121 285.366 305.01 285.127 304.999 284.835C304.985 284.546 305.074 284.29 305.267 284.069Z" fill="#111827"/>
<path d="M291.456 296.419L287.185 286.862L288.281 285.789L297.743 290.268L296.573 291.412L289.164 287.715L289.091 287.787L292.626 295.275L291.456 296.419Z" fill="#111827"/>
<path d="M275.913 296.88C276.653 296.29 277.422 295.945 278.218 295.844C279.015 295.75 279.793 295.882 280.553 296.241C281.312 296.605 282.005 297.181 282.631 297.968C283.258 298.754 283.667 299.562 283.858 300.39C284.049 301.225 284.02 302.016 283.771 302.764C283.522 303.518 283.051 304.171 282.358 304.724C281.958 305.042 281.51 305.29 281.014 305.468C280.517 305.645 279.99 305.711 279.431 305.666C278.875 305.624 278.306 305.434 277.726 305.095C277.146 304.757 276.57 304.229 275.999 303.512L275.601 303.013L281.521 298.297L282.333 299.317L277.613 303.077C277.959 303.51 278.353 303.827 278.797 304.029C279.238 304.234 279.695 304.308 280.169 304.253C280.638 304.2 281.087 304.004 281.513 303.664C281.983 303.289 282.297 302.849 282.455 302.342C282.611 301.841 282.634 301.333 282.523 300.817C282.411 300.301 282.187 299.831 281.85 299.408L281.308 298.728C280.846 298.148 280.354 297.736 279.833 297.492C279.311 297.254 278.787 297.173 278.259 297.25C277.735 297.33 277.234 297.56 276.758 297.94C276.448 298.187 276.202 298.453 276.021 298.739C275.84 299.031 275.727 299.338 275.685 299.66C275.645 299.987 275.681 300.323 275.794 300.669L274.399 301.257C274.211 300.775 274.142 300.274 274.191 299.755C274.244 299.24 274.413 298.734 274.7 298.239C274.989 297.747 275.393 297.294 275.913 296.88Z" fill="#111827"/>
<path d="M253.967 312.354L257.519 310.429L263.757 321.938L260.048 323.948C258.932 324.554 257.852 324.841 256.808 324.811C255.766 324.784 254.8 324.457 253.912 323.828C253.026 323.203 252.26 322.295 251.614 321.104C250.964 319.905 250.618 318.757 250.576 317.66C250.536 316.567 250.799 315.567 251.364 314.66C251.931 313.756 252.798 312.988 253.967 312.354ZM256.795 312.421L254.727 313.542C253.776 314.057 253.087 314.669 252.66 315.375C252.233 316.081 252.05 316.857 252.111 317.701C252.171 318.546 252.455 319.436 252.963 320.373C253.466 321.302 254.052 322.02 254.718 322.526C255.387 323.036 256.121 323.307 256.919 323.34C257.719 323.376 258.569 323.151 259.468 322.663L261.693 321.457L256.795 312.421Z" fill="#111827"/>
<path d="M237.69 320.215C238.566 319.856 239.4 319.74 240.193 319.866C240.984 319.998 241.694 320.343 242.323 320.9C242.95 321.463 243.454 322.21 243.835 323.14C244.217 324.071 244.383 324.96 244.335 325.809C244.284 326.663 244.035 327.415 243.587 328.064C243.137 328.718 242.502 329.213 241.681 329.549C241.208 329.743 240.709 329.856 240.183 329.887C239.657 329.918 239.132 329.834 238.608 329.634C238.085 329.439 237.593 329.097 237.131 328.609C236.669 328.122 236.264 327.454 235.916 326.606L235.674 326.015L242.677 323.145L243.171 324.352L237.588 326.64C237.798 327.152 238.088 327.568 238.458 327.886C238.824 328.206 239.242 328.405 239.712 328.484C240.178 328.565 240.663 328.502 241.168 328.295C241.724 328.067 242.148 327.732 242.441 327.29C242.732 326.853 242.896 326.371 242.933 325.845C242.971 325.318 242.887 324.804 242.682 324.304L242.352 323.499C242.071 322.813 241.714 322.28 241.282 321.9C240.848 321.525 240.367 321.301 239.839 321.227C239.313 321.157 238.768 321.238 238.204 321.469C237.838 321.619 237.527 321.806 237.274 322.03C237.018 322.259 236.824 322.523 236.693 322.82C236.563 323.122 236.504 323.455 236.515 323.819L235.011 323.993C234.966 323.478 235.039 322.978 235.232 322.493C235.427 322.013 235.731 321.575 236.145 321.18C236.56 320.789 237.075 320.467 237.69 320.215Z" fill="#111827"/>
<path d="M221.901 334.136L223.092 333.384C223.237 333.576 223.42 333.751 223.64 333.908C223.857 334.071 224.12 334.18 224.43 334.235C224.739 334.29 225.104 334.255 225.525 334.131C226.102 333.961 226.542 333.686 226.848 333.307C227.151 332.933 227.242 332.544 227.123 332.139C227.017 331.78 226.802 331.534 226.479 331.403C226.156 331.272 225.696 331.219 225.099 331.244L223.6 331.314C222.697 331.359 221.978 331.231 221.441 330.933C220.905 330.638 220.539 330.161 220.345 329.503C220.186 328.964 220.198 328.436 220.383 327.919C220.564 327.403 220.894 326.941 221.374 326.533C221.853 326.125 222.458 325.813 223.19 325.597C224.15 325.313 225.006 325.286 225.759 325.517C226.511 325.748 227.09 326.239 227.494 326.99L226.223 327.74C225.942 327.271 225.582 326.964 225.144 326.819C224.701 326.674 224.184 326.689 223.591 326.864C222.917 327.064 222.424 327.365 222.112 327.768C221.797 328.177 221.699 328.583 221.819 328.988C221.916 329.315 222.111 329.555 222.405 329.708C222.7 329.865 223.101 329.928 223.608 329.899L225.286 329.803C226.209 329.752 226.936 329.882 227.467 330.191C227.996 330.506 228.356 330.988 228.548 331.638C228.705 332.169 228.695 332.683 228.517 333.18C228.335 333.678 228.02 334.12 227.569 334.507C227.115 334.894 226.557 335.186 225.895 335.382C224.963 335.657 224.171 335.669 223.519 335.417C222.863 335.167 222.324 334.74 221.901 334.136Z" fill="#111827"/>
<path d="M211.55 329.003L213.537 338.618L212.059 338.923L210.073 329.308L211.55 329.003ZM213.117 340.376C213.405 340.316 213.673 340.363 213.922 340.516C214.167 340.67 214.318 340.885 214.375 341.16C214.432 341.436 214.379 341.693 214.215 341.931C214.047 342.17 213.819 342.32 213.531 342.379C213.243 342.439 212.976 342.391 212.731 342.238C212.482 342.084 212.329 341.87 212.272 341.595C212.215 341.319 212.271 341.062 212.439 340.823C212.603 340.584 212.829 340.435 213.117 340.376Z" fill="#111827"/>
<path d="M196.982 327.721C197.706 327.637 198.339 327.658 198.881 327.784C199.423 327.905 199.885 328.096 200.267 328.356C200.644 328.613 200.954 328.899 201.197 329.214L200.1 330.191C199.944 330.028 199.749 329.845 199.515 329.641C199.281 329.432 198.974 329.264 198.595 329.136C198.21 329.005 197.724 328.974 197.136 329.042C196.348 329.133 195.721 329.399 195.253 329.84C194.785 330.28 194.598 330.907 194.692 331.72L194.923 333.701L195.05 333.686C195.139 333.495 195.27 333.257 195.443 332.971C195.612 332.69 195.873 332.425 196.226 332.179C196.575 331.936 197.067 331.778 197.702 331.705C198.49 331.613 199.218 331.717 199.888 332.017C200.553 332.317 201.109 332.802 201.556 333.471C201.998 334.14 202.279 334.983 202.397 335.998C202.513 336.997 202.438 337.888 202.173 338.669C201.908 339.455 201.486 340.088 200.907 340.567C200.328 341.05 199.628 341.339 198.807 341.435C198.172 341.508 197.656 341.461 197.259 341.293C196.858 341.129 196.543 340.926 196.313 340.682C196.079 340.443 195.897 340.245 195.768 340.089L195.615 340.107L195.795 341.656L194.347 341.824L193.182 331.792C193.085 330.954 193.196 330.25 193.516 329.681C193.831 329.108 194.294 328.662 194.905 328.342C195.511 328.019 196.203 327.812 196.982 327.721ZM197.655 333.074C197.054 333.144 196.562 333.341 196.18 333.664C195.797 333.987 195.527 334.42 195.371 334.961C195.216 335.503 195.179 336.133 195.263 336.853C195.345 337.555 195.522 338.163 195.797 338.676C196.071 339.189 196.433 339.574 196.883 339.831C197.333 340.087 197.863 340.18 198.473 340.109C199.108 340.036 199.618 339.813 200.004 339.442C200.386 339.072 200.651 338.604 200.8 338.037C200.944 337.471 200.978 336.858 200.901 336.198C200.823 335.521 200.647 334.934 200.375 334.438C200.099 333.947 199.734 333.577 199.281 333.329C198.824 333.087 198.282 333.001 197.655 333.074Z" fill="#111827"/>
<path d="M183.738 338.806L183.647 332.9L185.156 332.877L185.307 342.694L183.85 342.716L183.826 341.182L183.698 341.184C183.476 341.687 183.133 342.092 182.669 342.402C182.205 342.716 181.602 342.879 180.861 342.89C180.196 342.901 179.612 342.773 179.11 342.508C178.607 342.248 178.213 341.844 177.927 341.299C177.642 340.758 177.493 340.07 177.48 339.235L177.384 332.997L178.892 332.974L178.987 339.109C178.999 339.88 179.208 340.478 179.615 340.902C180.023 341.331 180.576 341.54 181.274 341.529C181.756 341.521 182.185 341.41 182.561 341.196C182.932 340.981 183.224 340.672 183.435 340.268C183.646 339.864 183.747 339.377 183.738 338.806Z" fill="#111827"/>
<path d="M164.177 332.383C165.119 332.47 165.912 332.754 166.557 333.233C167.197 333.716 167.666 334.35 167.966 335.135C168.261 335.925 168.362 336.82 168.269 337.821C168.176 338.823 167.911 339.688 167.476 340.418C167.035 341.152 166.466 341.703 165.769 342.07C165.067 342.441 164.274 342.586 163.392 342.504C162.883 342.457 162.388 342.325 161.907 342.11C161.426 341.894 161 341.576 160.628 341.156C160.256 340.741 159.978 340.21 159.794 339.564C159.61 338.918 159.56 338.139 159.645 337.226L159.704 336.59L167.24 337.289L167.119 338.588L161.111 338.03C161.06 338.582 161.124 339.084 161.305 339.537C161.481 339.99 161.759 340.36 162.139 340.648C162.514 340.936 162.974 341.104 163.517 341.155C164.115 341.21 164.647 341.11 165.111 340.854C165.571 340.601 165.94 340.25 166.217 339.801C166.494 339.351 166.658 338.857 166.708 338.318L166.788 337.453C166.856 336.714 166.787 336.077 166.58 335.54C166.369 335.006 166.046 334.585 165.613 334.275C165.179 333.97 164.659 333.789 164.052 333.732C163.657 333.696 163.296 333.718 162.967 333.798C162.634 333.883 162.34 334.027 162.086 334.23C161.832 334.438 161.625 334.705 161.466 335.033L160.053 334.491C160.251 334.013 160.548 333.604 160.943 333.264C161.338 332.928 161.811 332.681 162.36 332.522C162.91 332.368 163.515 332.321 164.177 332.383Z" fill="#111827"/>
<path d="M151.989 331.26L150.186 340.912L148.753 340.644L149.026 339.186L148.925 339.168C148.66 339.612 148.269 339.94 147.753 340.152C147.237 340.363 146.689 340.415 146.111 340.307C146.002 340.286 145.867 340.259 145.704 340.224C145.542 340.189 145.419 340.16 145.337 340.136L145.619 338.628C145.666 338.65 145.778 338.69 145.954 338.749C146.124 338.811 146.308 338.861 146.505 338.898C146.974 338.985 147.411 338.965 147.816 338.837C148.217 338.712 148.556 338.498 148.834 338.195C149.107 337.894 149.284 337.527 149.365 337.091L150.506 330.983L151.989 331.26Z" fill="#111827"/>
<path d="M121.925 341.774L128.878 321.4L130.088 321.813L123.135 342.187L121.925 341.774Z" fill="#111827"/>
<path d="M109.006 318.203L102.895 329.781L98.9834 327.716C98.0751 327.237 97.4192 326.681 97.0156 326.049C96.6063 325.419 96.4084 324.753 96.4219 324.052C96.4354 323.35 96.6222 322.659 96.9822 321.977C97.3422 321.294 97.8088 320.748 98.3821 320.337C98.9516 319.925 99.6121 319.705 100.364 319.678C101.113 319.654 101.939 319.88 102.839 320.355L105.643 321.835L104.987 323.079L102.228 321.623C101.606 321.295 101.05 321.139 100.56 321.155C100.07 321.17 99.6434 321.316 99.2809 321.592C98.9126 321.87 98.6062 322.241 98.3615 322.705C98.1169 323.168 97.9847 323.628 97.9652 324.085C97.9418 324.541 98.0658 324.972 98.337 325.38C98.6063 325.792 99.0556 326.164 99.685 326.496L102.15 327.797L107.604 317.464L109.006 318.203Z" fill="#111827"/>
<path d="M93.9723 309.983L88.5808 318.189L87.3628 317.388L88.1771 316.149L88.0916 316.093C87.6753 316.401 87.1882 316.552 86.6303 316.548C86.0724 316.543 85.5477 316.379 85.0562 316.056C84.9636 315.996 84.8491 315.918 84.7125 315.823C84.576 315.728 84.4744 315.654 84.4079 315.6L85.2503 314.318C85.286 314.357 85.3734 314.437 85.5125 314.559C85.6457 314.682 85.796 314.799 85.9634 314.909C86.3623 315.171 86.7734 315.321 87.1968 315.36C87.6142 315.399 88.0097 315.333 88.3833 315.16C88.7509 314.989 89.0564 314.718 89.2997 314.347L92.7116 309.155L93.9723 309.983Z" fill="#111827"/>
<path d="M80.6655 300.529C81.3588 301.081 81.8357 301.731 82.0961 302.478C82.3532 303.222 82.3921 304.007 82.2128 304.834C82.0302 305.658 81.6229 306.467 80.991 307.261C80.3537 308.06 79.6525 308.643 78.8872 309.009C78.1186 309.372 77.3429 309.511 76.5601 309.427C75.774 309.34 75.0343 309.021 74.341 308.468C73.6477 307.916 73.1725 307.268 72.9154 306.524C72.655 305.777 72.6174 304.99 72.8027 304.162C72.9846 303.332 73.3942 302.517 74.0315 301.717C74.6634 300.923 75.3623 300.347 76.1282 299.987C76.8908 299.625 77.6652 299.487 78.4514 299.574C79.2342 299.658 79.9722 299.977 80.6655 300.529ZM79.8212 301.589C79.2945 301.169 78.7537 300.959 78.1987 300.958C77.6436 300.957 77.1092 301.112 76.5954 301.422C76.0816 301.732 75.6203 302.143 75.2114 302.657C74.8025 303.17 74.5031 303.713 74.3133 304.287C74.1235 304.86 74.0897 305.419 74.212 305.963C74.3342 306.507 74.6587 306.989 75.1853 307.408C75.7119 307.828 76.2541 308.036 76.8118 308.034C77.3695 308.031 77.9066 307.874 78.423 307.56C78.9395 307.247 79.4021 306.834 79.811 306.321C80.2199 305.807 80.518 305.266 80.7051 304.696C80.8923 304.125 80.9234 303.57 80.7985 303.029C80.6736 302.488 80.3478 302.008 79.8212 301.589Z" fill="#111827"/>
<path d="M70.939 287.418C71.4598 287.928 71.842 288.433 72.0855 288.934C72.332 289.431 72.4744 289.91 72.5125 290.371C72.5506 290.826 72.5236 291.246 72.4314 291.633L70.9823 291.396C71.01 291.172 71.0297 290.905 71.0414 290.595C71.0561 290.281 70.9936 289.937 70.8539 289.562C70.7141 289.181 70.4325 288.783 70.0092 288.369C69.4426 287.814 68.841 287.494 68.2042 287.407C67.5674 287.321 66.9629 287.57 66.3907 288.155L64.996 289.58L65.0874 289.67C65.2917 289.619 65.5594 289.571 65.8904 289.526C66.2153 289.48 66.5849 289.516 66.999 289.635C67.4071 289.755 67.8396 290.038 68.2965 290.485C68.863 291.039 69.2406 291.671 69.4291 292.38C69.6146 293.086 69.588 293.823 69.3492 294.591C69.1075 295.356 68.629 296.104 67.9137 296.835C67.2104 297.554 66.4715 298.056 65.6972 298.342C64.9199 298.631 64.1627 298.701 63.4258 298.552C62.686 298.406 62.0206 298.044 61.4297 297.466C60.9728 297.019 60.6848 296.588 60.5658 296.174C60.4407 295.759 60.4005 295.386 60.4451 295.054C60.4837 294.722 60.523 294.457 60.563 294.257L60.4533 294.15L59.3626 295.265L58.3209 294.246L65.384 287.027C65.9741 286.424 66.591 286.068 67.2346 285.958C67.8783 285.843 68.5165 285.921 69.1492 286.195C69.782 286.462 70.3785 286.87 70.939 287.418ZM67.2026 291.31C66.7701 290.887 66.3077 290.628 65.8155 290.534C65.3233 290.44 64.8177 290.503 64.2988 290.723C63.7798 290.942 63.2671 291.311 62.7604 291.829C62.2657 292.334 61.9053 292.855 61.6791 293.391C61.4529 293.927 61.3817 294.45 61.4657 294.962C61.5496 295.473 61.8108 295.943 62.2495 296.373C62.7063 296.82 63.2003 297.076 63.7314 297.143C64.2595 297.206 64.7904 297.118 65.3241 296.877C65.8548 296.633 66.3527 296.274 66.8176 295.798C67.2944 295.311 67.64 294.806 67.8542 294.282C68.0625 293.758 68.1201 293.242 68.0272 292.734C67.9282 292.226 67.6534 291.751 67.2026 291.31Z" fill="#111827"/>
<path d="M59.5324 281.394L52.0575 287.759L51.1126 286.65L52.2416 285.688L52.1753 285.61C51.6894 285.789 51.1794 285.798 50.6451 285.637C50.1108 285.477 49.6531 285.172 49.2718 284.725C49.1999 284.64 49.1118 284.534 49.0073 284.404C48.9028 284.275 48.8261 284.175 48.7773 284.105L49.9453 283.11C49.9687 283.157 50.0301 283.259 50.1294 283.415C50.2228 283.571 50.3344 283.725 50.4642 283.877C50.7737 284.241 51.1262 284.5 51.5218 284.656C51.9114 284.811 52.3097 284.858 52.7166 284.797C53.1176 284.735 53.4868 284.561 53.8242 284.273L58.5544 280.245L59.5324 281.394Z" fill="#111827"/>
<path d="M49.3488 268.496C49.8941 269.269 50.1938 270.056 50.248 270.858C50.2962 271.658 50.119 272.427 49.7163 273.165C49.3076 273.901 48.6924 274.559 47.8706 275.139C47.0487 275.719 46.2188 276.08 45.3807 276.222C44.5368 276.364 43.7486 276.289 43.0161 275.997C42.2778 275.705 41.6532 275.196 41.1423 274.472C40.8476 274.054 40.6262 273.592 40.4781 273.086C40.33 272.581 40.2948 272.05 40.3724 271.495C40.4466 270.942 40.6696 270.386 41.0415 269.826C41.4134 269.267 41.9737 268.723 42.7224 268.195L43.2448 267.826L47.6068 274.011L46.5412 274.763L43.0634 269.832C42.6107 270.151 42.2706 270.526 42.0431 270.958C41.8132 271.386 41.7121 271.838 41.74 272.314C41.7654 272.786 41.9353 273.245 42.2497 273.691C42.596 274.182 43.0175 274.521 43.5143 274.707C44.0051 274.893 44.5113 274.945 45.0329 274.864C45.5545 274.783 46.0365 274.587 46.4787 274.275L47.1891 273.774C47.7951 273.346 48.235 272.88 48.509 272.373C48.7771 271.866 48.8882 271.347 48.8423 270.816C48.793 270.288 48.5927 269.775 48.2415 269.277C48.013 268.953 47.7615 268.692 47.4867 268.495C47.206 268.297 46.9058 268.167 46.5862 268.106C46.2631 268.047 45.9254 268.063 45.5731 268.155L45.0674 266.729C45.5598 266.569 46.0636 266.529 46.5788 266.609C47.0905 266.691 47.5852 266.89 48.0629 267.205C48.537 267.522 48.9657 267.953 49.3488 268.496Z" fill="#111827"/>
<path d="M32.1599 256.124L33.1576 257.118C33.0024 257.302 32.8725 257.519 32.7681 257.769C32.6578 258.016 32.6102 258.297 32.6253 258.611C32.6403 258.925 32.7552 259.274 32.9701 259.656C33.2642 260.18 33.63 260.549 34.0676 260.763C34.4994 260.975 34.8993 260.978 35.2671 260.771C35.5941 260.588 35.7857 260.324 35.8417 259.98C35.8977 259.636 35.8471 259.175 35.6897 258.599L35.2886 257.153C35.0447 256.283 35.0088 255.553 35.1809 254.963C35.3492 254.375 35.7326 253.913 36.3308 253.577C36.8214 253.302 37.3391 253.197 37.8841 253.262C38.427 253.324 38.9507 253.543 39.4552 253.92C39.9598 254.296 40.3987 254.817 40.7721 255.482C41.2623 256.356 41.4784 257.185 41.4206 257.97C41.3628 258.755 41.0125 259.428 40.3696 259.989L39.3567 258.916C39.7507 258.538 39.9701 258.119 40.0149 257.659C40.0575 257.196 39.9277 256.694 39.6252 256.155C39.2811 255.542 38.8778 255.128 38.4153 254.914C37.9471 254.698 37.529 254.693 37.1611 254.9C36.8638 255.067 36.6733 255.31 36.5894 255.631C36.5018 255.954 36.5289 256.359 36.6705 256.846L37.137 258.461C37.3913 259.349 37.4266 260.087 37.2429 260.674C37.0534 261.259 36.6632 261.718 36.0724 262.049C35.5893 262.32 35.0858 262.425 34.562 262.362C34.036 262.296 33.5347 262.086 33.058 261.733C32.5792 261.376 32.1709 260.897 31.833 260.295C31.3574 259.447 31.1698 258.678 31.2703 257.986C31.3687 257.291 31.6652 256.67 32.1599 256.124Z" fill="#111827"/>
<path d="M25.0926 241.884L25.99 242.97C25.8177 243.139 25.6676 243.342 25.5396 243.58C25.4061 243.816 25.3316 244.091 25.3164 244.405C25.3011 244.719 25.382 245.077 25.559 245.479C25.8012 246.028 26.1299 246.431 26.5449 246.686C26.9543 246.938 27.352 246.98 27.738 246.81C28.0812 246.658 28.2972 246.414 28.3861 246.077C28.475 245.74 28.4689 245.277 28.3678 244.688L28.1077 243.21C27.9486 242.321 27.9832 241.591 28.2113 241.02C28.4355 240.451 28.8615 240.028 29.4893 239.751C30.004 239.524 30.5295 239.47 31.0656 239.587C31.6001 239.701 32.1002 239.97 32.5662 240.393C33.0322 240.816 33.4189 241.377 33.7265 242.075C34.1304 242.991 34.2657 243.838 34.1326 244.613C33.9995 245.389 33.586 246.025 32.8922 246.522L31.9872 245.356C32.4158 245.018 32.6744 244.623 32.7633 244.169C32.8504 243.711 32.7694 243.2 32.5202 242.635C32.2367 241.991 31.8751 241.54 31.4354 241.282C30.9901 241.022 30.5745 240.977 30.1884 241.147C29.8765 241.285 29.6633 241.509 29.549 241.82C29.4307 242.133 29.4186 242.539 29.5127 243.038L29.8216 244.69C29.9892 245.599 29.9533 246.336 29.714 246.903C29.4691 247.467 29.0366 247.886 28.4166 248.159C27.9096 248.382 27.3985 248.438 26.8831 248.325C26.3659 248.208 25.8871 247.951 25.4466 247.554C25.0044 247.153 24.6441 246.636 24.3657 246.004C23.9739 245.115 23.8613 244.331 24.0278 243.653C24.1927 242.97 24.5476 242.381 25.0926 241.884Z" fill="#111827"/>
<path d="M28.866 231.054L19.5861 234.26L19.0935 232.834L28.3734 229.628L28.866 231.054ZM17.789 234.069C17.885 234.347 17.8731 234.62 17.7534 234.887C17.6323 235.149 17.4388 235.327 17.173 235.418C16.9072 235.51 16.6455 235.49 16.388 235.358C16.1291 235.222 15.9517 235.015 15.8557 234.737C15.7596 234.46 15.7722 234.189 15.8933 233.926C16.013 233.66 16.2058 233.48 16.4716 233.388C16.7375 233.297 16.9998 233.319 17.2587 233.455C17.5162 233.587 17.693 233.792 17.789 234.069Z" fill="#111827"/>
<path d="M13.9641 215.849L24.3747 216.944L24.7535 218.431L16.1355 224.373L15.7315 222.787L22.6441 218.229L22.6189 218.13L14.3681 217.435L13.9641 215.849Z" fill="#111827"/>
<path d="M21.324 202.033C21.462 202.969 21.3744 203.807 21.0613 204.546C20.7434 205.282 20.2383 205.889 19.5462 206.366C18.8492 206.839 18.0033 207.149 17.0083 207.295C16.0134 207.442 15.1098 207.39 14.2975 207.139C13.4804 206.885 12.8108 206.463 12.2886 205.872C11.7617 205.278 11.4336 204.542 11.3043 203.665C11.2298 203.159 11.2404 202.647 11.3364 202.129C11.4323 201.611 11.6401 201.122 11.9599 200.661C12.2754 200.201 12.7254 199.805 13.3097 199.473C13.894 199.142 14.6393 198.909 15.5457 198.776L16.1781 198.682L17.2818 206.17L15.9917 206.36L15.1118 200.39C14.5637 200.471 14.0908 200.653 13.6931 200.935C13.2948 201.214 13.0008 201.571 12.8111 202.009C12.6208 202.442 12.5654 202.928 12.645 203.467C12.7326 204.062 12.9559 204.554 13.3151 204.945C13.6693 205.332 14.0975 205.607 14.5997 205.77C15.1018 205.933 15.6206 205.975 16.156 205.896L17.016 205.769C17.7496 205.661 18.3528 205.443 18.8256 205.115C19.2936 204.783 19.6268 204.37 19.8253 203.876C20.0195 203.382 20.0723 202.834 19.9834 202.231C19.9256 201.839 19.8186 201.493 19.6624 201.193C19.5013 200.889 19.292 200.638 19.0344 200.439C18.7725 200.24 18.4637 200.103 18.1078 200.026L18.2999 198.525C18.8113 198.604 19.279 198.796 19.7028 199.1C20.1224 199.404 20.4743 199.804 20.7585 200.301C21.0386 200.798 21.2271 201.375 21.324 202.033Z" fill="#111827"/>
<path d="M18.9546 174.943L18.8299 178.981L5.74524 178.577L5.87548 174.36C5.91468 173.091 6.21018 172.013 6.76197 171.126C7.3095 170.239 8.07839 169.57 9.06864 169.119C10.0546 168.668 11.2249 168.463 12.5793 168.505C13.9423 168.547 15.1083 168.826 16.0772 169.342C17.0418 169.858 17.7739 170.588 18.2734 171.533C18.7686 172.477 18.9957 173.614 18.9546 174.943ZM17.4733 177.353L17.5459 175.002C17.5793 173.92 17.3983 173.017 17.0028 172.293C16.6074 171.569 16.0296 171.02 15.2694 170.647C14.5093 170.274 13.5968 170.071 12.532 170.038C11.4757 170.005 10.561 170.15 9.78789 170.471C9.01055 170.793 8.40684 171.29 7.97677 171.963C7.54243 172.636 7.30948 173.484 7.2779 174.506L7.19976 177.036L17.4733 177.353Z" fill="#111827"/>
<path d="M20.2911 157.168C20.1604 158.105 19.8408 158.884 19.3323 159.506C18.8202 160.123 18.1651 160.563 17.3668 160.826C16.5649 161.084 15.6659 161.143 14.6699 161.004C13.6739 160.865 12.8214 160.561 12.1123 160.092C11.3997 159.619 10.8759 159.025 10.5409 158.311C10.2023 157.593 10.0943 156.795 10.2168 155.917C10.2875 155.41 10.4417 154.922 10.6794 154.452C10.9172 153.981 11.2542 153.57 11.6906 153.218C12.1228 152.865 12.6659 152.612 13.3199 152.458C13.9738 152.304 14.7545 152.29 15.6619 152.417L16.295 152.505L15.2488 160.001L13.9574 159.821L14.7915 153.845C14.2428 153.768 13.7379 153.809 13.2768 153.969C12.8163 154.124 12.4335 154.385 12.1286 154.751C11.8242 155.113 11.6343 155.564 11.5589 156.104C11.4759 156.699 11.5517 157.235 11.7865 157.711C12.0176 158.182 12.3512 158.566 12.7873 158.864C13.2233 159.161 13.7094 159.347 14.2454 159.422L15.1063 159.542C15.8407 159.645 16.4809 159.605 17.0269 159.423C17.5693 159.236 18.0052 158.934 18.3347 158.515C18.66 158.096 18.8648 157.584 18.949 156.981C19.0038 156.588 18.9984 156.226 18.9329 155.894C18.8637 155.557 18.7335 155.257 18.5422 154.994C18.3467 154.73 18.0889 154.511 17.769 154.338L18.3756 152.951C18.844 153.171 19.2388 153.486 19.5601 153.897C19.8772 154.307 20.1024 154.79 20.2355 155.347C20.3645 155.902 20.383 156.51 20.2911 157.168Z" fill="#111827"/>
<path d="M14.3544 134.593L23.0173 140.47L22.6499 141.959L12.2479 143.133L12.6398 141.544L20.8851 140.787L20.9096 140.687L13.9625 136.182L14.3544 134.593Z" fill="#111827"/>
<path d="M27.3191 125.975C27.0001 126.865 26.5284 127.563 25.9039 128.068C25.2768 128.568 24.5457 128.865 23.7106 128.96C22.873 129.049 21.9807 128.924 21.0339 128.585C20.0872 128.246 19.3145 127.774 18.716 127.171C18.1148 126.562 17.723 125.874 17.5406 125.107C17.3555 124.334 17.4125 123.531 17.7113 122.696C17.8838 122.215 18.1343 121.768 18.4629 121.356C18.7915 120.945 19.2053 120.611 19.7043 120.355C20.1993 120.098 20.7826 119.96 21.4542 119.943C22.1259 119.925 22.893 120.071 23.7555 120.38L24.3573 120.596L21.8053 127.721L20.5777 127.281L22.6124 121.6C22.0908 121.413 21.5881 121.351 21.1042 121.413C20.6217 121.471 20.1938 121.648 19.8206 121.945C19.4489 122.237 19.171 122.64 18.9871 123.153C18.7845 123.719 18.7496 124.259 18.8824 124.773C19.0127 125.281 19.2609 125.725 19.6272 126.105C19.9935 126.485 20.4314 126.767 20.9409 126.949L21.7593 127.242C22.4573 127.492 23.0922 127.584 23.6638 127.517C24.2329 127.445 24.7214 127.237 25.1293 126.895C25.5332 126.55 25.8379 126.091 26.0434 125.518C26.177 125.145 26.2456 124.789 26.2491 124.451C26.2499 124.107 26.1836 123.787 26.05 123.49C25.9124 123.192 25.7047 122.925 25.4268 122.69L26.3034 121.456C26.717 121.767 27.0393 122.156 27.2702 122.623C27.4971 123.089 27.619 123.608 27.636 124.18C27.6489 124.751 27.5433 125.349 27.3191 125.975Z" fill="#111827"/>
<path d="M20.2096 107.576L32.1089 113.033L31.4801 114.404L19.5808 108.947L20.2096 107.576Z" fill="#111827"/>
<path d="M37.8749 101.656C37.4382 102.427 36.8714 103 36.1747 103.375C35.4801 103.745 34.7103 103.907 33.8655 103.86C33.0228 103.808 32.1601 103.533 31.2775 103.033C30.3876 102.53 29.702 101.928 29.2209 101.23C28.7418 100.528 28.4825 99.7836 28.4429 98.9972C28.4054 98.2072 28.605 97.4265 29.0417 96.6552C29.4784 95.8839 30.0441 95.3129 30.7387 94.9422C31.4354 94.5679 32.207 94.4073 33.0535 94.4605C33.902 94.51 34.7713 94.7866 35.6613 95.2905C36.5438 95.7902 37.2228 96.39 37.6981 97.0901C38.1755 97.7864 38.433 98.5296 38.4705 99.3196C38.5101 100.106 38.3115 100.885 37.8749 101.656ZM36.6956 100.989C37.0273 100.403 37.1501 99.8355 37.0639 99.2872C36.9776 98.7389 36.7412 98.2353 36.3546 97.7765C35.968 97.3176 35.4891 96.9266 34.918 96.6032C34.347 96.2799 33.7634 96.0695 33.1673 95.972C32.5712 95.8745 32.0141 95.9287 31.4959 96.1348C30.9776 96.3409 30.5527 96.7369 30.2209 97.3228C29.8892 97.9087 29.7683 98.4769 29.8583 99.0273C29.9482 99.5777 30.1883 100.083 30.5787 100.544C30.969 101.005 31.4497 101.397 32.0208 101.721C32.5918 102.044 33.1736 102.253 33.7659 102.349C34.3583 102.444 34.9117 102.388 35.4263 102.18C35.9408 101.971 36.3639 101.574 36.6956 100.989Z" fill="#111827"/>
<path d="M46.7208 93.2175L35.7173 85.3963L36.5616 84.2084L37.8328 85.112L37.9365 84.9661C37.8618 84.777 37.7735 84.5261 37.6717 84.2132C37.569 83.8945 37.5399 83.5235 37.5845 83.1003C37.628 82.6712 37.835 82.1962 38.2053 81.6752C38.6843 81.0014 39.2749 80.5272 39.9772 80.2526C40.6795 79.978 41.4422 79.9163 42.2654 80.0674C43.0886 80.2186 43.9204 80.5929 44.761 81.1904C45.6085 81.7928 46.2406 82.4591 46.6575 83.1893C47.0708 83.917 47.2662 84.6571 47.2437 85.4097C47.2177 86.1597 46.9677 86.8682 46.4936 87.5351C46.1283 88.0491 45.7506 88.4002 45.3607 88.5884C44.9673 88.7741 44.6019 88.8725 44.2646 88.8837C43.9238 88.8924 43.6484 88.8901 43.4383 88.8767L43.3642 88.9809L47.5948 91.9879L46.7208 93.2175ZM40.5777 87.0316C41.1821 87.4612 41.7782 87.7516 42.366 87.9028C42.9504 88.0516 43.4939 88.0483 43.9963 87.8931C44.4953 87.7354 44.92 87.4099 45.2706 86.9167C45.636 86.4027 45.8054 85.8774 45.7789 85.341C45.7514 84.7986 45.5684 84.2764 45.2299 83.7744C44.8904 83.2664 44.4358 82.81 43.8662 82.4051C43.3035 82.0052 42.7347 81.7316 42.1597 81.5843C41.5837 81.4311 41.0403 81.4343 40.5294 81.594C40.0176 81.7478 39.5765 82.0852 39.2062 82.6062C38.8506 83.1063 38.6787 83.6167 38.6903 84.1373C38.6984 84.6555 38.8666 85.1618 39.1947 85.6565C39.5193 86.1486 39.9803 86.607 40.5777 87.0316Z" fill="#111827"/>
<path d="M55.8869 75.1523C55.2631 75.8635 54.568 76.3393 53.8017 76.5798C53.0349 76.8142 52.2458 76.8221 51.4343 76.6035C50.6224 76.3789 49.8384 75.935 49.0823 75.2719C48.3262 74.6088 47.7806 73.8866 47.4456 73.1053C47.1101 72.318 46.9984 71.5342 47.1103 70.7538C47.2219 69.9674 47.5699 69.241 48.1543 68.5746C48.4915 68.1902 48.8885 67.8667 49.3454 67.6043C49.8023 67.3418 50.3098 67.1833 50.8679 67.1286C51.4228 67.0711 52.0158 67.1576 52.6469 67.388C53.278 67.6184 53.938 68.0357 54.6268 68.6398L55.1074 69.0613L50.1171 74.7512L49.1368 73.8914L53.1155 69.3548C52.699 68.9895 52.2543 68.7469 51.7814 68.6269C51.3113 68.5037 50.8483 68.5114 50.3923 68.65C49.9392 68.7853 49.5328 69.0581 49.1731 69.4682C48.7769 69.9199 48.5463 70.4091 48.4811 70.9358C48.4156 71.4564 48.4834 71.9608 48.6844 72.4489C48.8855 72.937 49.1895 73.3595 49.5964 73.7163L50.2499 74.2895C50.8074 74.7784 51.3643 75.0968 51.9205 75.2445C52.4763 75.3863 53.0069 75.3726 53.5122 75.2037C54.0143 75.0319 54.4663 74.7169 54.8681 74.2587C55.1294 73.9608 55.3238 73.6552 55.4512 73.3418C55.5782 73.0225 55.6341 72.7002 55.6189 72.3751C55.6004 72.0472 55.5052 71.7227 55.3332 71.4018L56.6017 70.5759C56.8722 71.0172 57.029 71.4976 57.0721 72.0172C57.1119 72.534 57.0348 73.0614 56.8405 73.5996C56.6431 74.1349 56.3252 74.6525 55.8869 75.1523Z" fill="#111827"/>
<path d="M63.8975 65.9445L57.1338 58.8277L58.1902 57.8237L59.2118 58.8986L59.2859 58.8282C59.081 58.3527 59.0442 57.8439 59.1756 57.3017C59.3069 56.7594 59.5857 56.2858 60.012 55.8807C60.0923 55.8043 60.1942 55.7105 60.3176 55.5991C60.441 55.4877 60.5365 55.4057 60.6041 55.3532L61.661 56.4652C61.6151 56.4911 61.5169 56.5579 61.3665 56.6656C61.2162 56.7673 61.0685 56.8871 60.9233 57.0251C60.5774 57.3539 60.3375 57.7201 60.2036 58.1236C60.0699 58.5211 60.0447 58.9213 60.1278 59.3243C60.2112 59.7213 60.4055 60.0804 60.7108 60.4017L64.991 64.9053L63.8975 65.9445Z" fill="#111827"/>
<path d="M72.7658 35.5036L85.2383 53.051L84.1963 53.7916L71.7238 36.2443L72.7658 35.5036Z" fill="#111827"/>
<path d="M105.113 25.8424L103.687 26.5352C103.403 26.166 103.081 25.8775 102.719 25.6694C102.361 25.4595 101.982 25.3218 101.58 25.2562C101.181 25.185 100.775 25.1832 100.362 25.2509C99.95 25.3187 99.5483 25.4475 99.1573 25.6375C98.4444 25.9838 97.8861 26.4778 97.4823 27.1193C97.0825 27.7589 96.8823 28.5123 96.882 29.3795C96.8855 30.2448 97.1349 31.1872 97.6303 32.2068C98.1257 33.2263 98.7124 34.0049 99.3905 34.5424C100.072 35.0781 100.788 35.3864 101.538 35.4674C102.292 35.5465 103.026 35.4128 103.738 35.0664C104.129 34.8765 104.479 34.6403 104.787 34.3579C105.095 34.0756 105.346 33.7573 105.538 33.4031C105.733 33.0432 105.858 32.6577 105.915 32.2467C105.973 31.83 105.945 31.398 105.832 30.9507L107.258 30.258C107.443 30.9119 107.509 31.5454 107.457 32.1585C107.404 32.7715 107.248 33.3472 106.988 33.8856C106.727 34.42 106.375 34.9011 105.934 35.3287C105.496 35.7544 104.981 36.1116 104.387 36.4003C103.382 36.8882 102.37 37.0768 101.35 36.9661C100.329 36.8554 99.3754 36.4567 98.4874 35.77C97.5995 35.0833 96.8538 34.119 96.2504 32.8772C95.6471 31.6353 95.3499 30.4531 95.3588 29.3307C95.3678 28.2082 95.644 27.2118 96.1876 26.3412C96.7311 25.4707 97.505 24.7915 98.5092 24.3036C99.1033 24.015 99.7029 23.8302 100.308 23.7495C100.917 23.6668 101.513 23.6898 102.097 23.8184C102.679 23.9432 103.227 24.1743 103.741 24.5118C104.254 24.8454 104.711 25.289 105.113 25.8424Z" fill="#111827"/>
<path d="M121.231 28.9986C120.394 29.2912 119.59 29.3488 118.819 29.1714C118.053 28.9927 117.367 28.6072 116.763 28.015C116.162 27.4213 115.695 26.6459 115.36 25.6885C115.022 24.7231 114.903 23.8192 115.001 22.9768C115.103 22.133 115.398 21.4022 115.886 20.7846C116.379 20.1655 117.043 19.7097 117.88 19.4171C118.717 19.1245 119.518 19.0675 120.285 19.2463C121.056 19.4237 121.742 19.8112 122.344 20.4088C122.95 21.0051 123.421 21.7859 123.759 22.7513C124.094 23.7086 124.209 24.6072 124.106 25.447C124.006 26.2854 123.71 27.0141 123.218 27.6332C122.73 28.2509 122.067 28.706 121.231 28.9986ZM120.783 27.7195C121.419 27.4972 121.885 27.1514 122.181 26.6821C122.478 26.2128 122.631 25.6782 122.643 25.0783C122.654 24.4784 122.552 23.8687 122.335 23.2493C122.118 22.6298 121.818 22.087 121.434 21.621C121.05 21.1549 120.595 20.8287 120.069 20.6423C119.543 20.456 118.963 20.4739 118.327 20.6962C117.692 20.9185 117.226 21.2663 116.931 21.7396C116.637 22.2129 116.484 22.7515 116.474 23.3555C116.464 23.9594 116.567 24.5711 116.784 25.1905C117.001 25.81 117.3 26.3507 117.683 26.8128C118.066 27.2748 118.519 27.597 119.044 27.7793C119.568 27.9617 120.148 27.9417 120.783 27.7195Z" fill="#111827"/>
<path d="M131.933 24.9291L129.8 15.3455L131.223 15.0288L131.556 16.5263L131.681 16.4985C131.767 15.9424 132 15.4734 132.383 15.0915C132.764 14.7055 133.266 14.443 133.89 14.3041C134.523 14.1634 135.081 14.1898 135.565 14.3833C136.052 14.5717 136.471 14.8953 136.822 15.3542L136.922 15.332C137.057 14.7823 137.338 14.3073 137.764 13.9069C138.189 13.5023 138.745 13.2237 139.431 13.0709C140.288 12.8802 141.048 12.9925 141.713 13.4078C142.376 13.8189 142.833 14.5881 143.084 15.7153L144.512 22.1294L143.039 22.4572L141.612 16.0431C141.454 15.336 141.148 14.8736 140.694 14.6561C140.239 14.4385 139.75 14.3881 139.226 14.5047C138.552 14.6547 138.076 14.9747 137.796 15.4648C137.516 15.9507 137.445 16.5035 137.582 17.1233L138.971 23.3626L137.474 23.6959L136.013 17.1321C135.892 16.5872 135.617 16.1877 135.189 15.9337C134.761 15.6754 134.268 15.6083 133.711 15.7324C133.328 15.8176 132.993 15.9991 132.705 16.277C132.422 16.554 132.219 16.8961 132.096 17.3033C131.976 17.7055 131.968 18.1416 132.073 18.6116L133.406 24.6014L131.933 24.9291Z" fill="#111827"/>
<path d="M152.886 24.2195L151.535 10.7872L152.985 10.6414L153.142 12.1932L153.32 12.1753C153.413 11.9946 153.544 11.763 153.712 11.4805C153.885 11.1934 154.145 10.9273 154.493 10.6825C154.845 10.433 155.339 10.2762 155.975 10.2122C156.797 10.1295 157.543 10.2622 158.212 10.6104C158.881 10.9585 159.429 11.4923 159.857 12.2116C160.285 12.9309 160.55 13.8036 160.653 14.8297C160.757 15.8642 160.672 16.7787 160.396 17.573C160.12 18.3631 159.691 18.9973 159.11 19.4755C158.528 19.9495 157.83 20.2274 157.016 20.3093C156.388 20.3724 155.875 20.3191 155.477 20.1493C155.078 19.9752 154.764 19.7649 154.534 19.5182C154.303 19.2673 154.123 19.0584 153.995 18.8914L153.868 18.9042L154.387 24.0685L152.886 24.2195ZM153.502 15.5233C153.576 16.261 153.75 16.901 154.023 17.4431C154.295 17.9811 154.655 18.3881 155.103 18.6643C155.55 18.9363 156.075 19.042 156.677 18.9814C157.304 18.9183 157.811 18.7003 158.198 18.3274C158.588 17.9498 158.861 17.4683 159.016 16.8831C159.175 16.2932 159.22 15.6506 159.15 14.9552C159.081 14.2683 158.912 13.66 158.645 13.1301C158.381 12.5955 158.021 12.1885 157.565 11.9089C157.112 11.6246 156.568 11.5145 155.932 11.5785C155.322 11.6399 154.824 11.8462 154.44 12.1975C154.055 12.5446 153.784 13.0044 153.628 13.5769C153.471 14.1452 153.429 14.794 153.502 15.5233Z" fill="#111827"/>
<path d="M172.798 19.2003C172.176 19.1955 171.612 19.0739 171.107 18.8356C170.602 18.5931 170.202 18.247 169.907 17.7972C169.612 17.3432 169.467 16.7967 169.472 16.1575C169.476 15.595 169.591 15.1399 169.815 14.7922C170.039 14.4402 170.337 14.1655 170.71 13.9681C171.082 13.7707 171.492 13.6247 171.94 13.5301C172.393 13.4314 172.847 13.3539 173.304 13.2978C173.901 13.2257 174.385 13.1719 174.756 13.1364C175.131 13.0967 175.405 13.0285 175.576 12.9318C175.751 12.8351 175.84 12.6653 175.842 12.4224L175.842 12.3713C175.847 11.7406 175.678 11.2493 175.336 10.8972C174.998 10.5451 174.481 10.3664 173.787 10.3611C173.067 10.3555 172.501 10.5088 172.089 10.821C171.678 11.1332 171.387 11.4676 171.218 11.8242L169.791 11.3018C170.051 10.7072 170.395 10.2454 170.824 9.9163C171.257 9.58298 171.728 9.35223 172.236 9.22405C172.748 9.09164 173.252 9.02734 173.746 9.03116C174.061 9.03359 174.423 9.07474 174.832 9.1546C175.244 9.23023 175.642 9.38458 176.023 9.61765C176.409 9.85075 176.728 10.2005 176.98 10.667C177.233 11.1334 177.356 11.7566 177.35 12.5364L177.3 19.0049L175.791 18.9933L175.801 17.6638L175.725 17.6632C175.621 17.8754 175.449 18.1021 175.208 18.3432C174.968 18.5842 174.648 18.7884 174.251 18.9558C173.853 19.1232 173.369 19.2047 172.798 19.2003ZM173.039 17.847C173.635 17.8516 174.139 17.7383 174.55 17.5071C174.965 17.2759 175.278 16.9758 175.49 16.6066C175.706 16.2376 175.815 15.8485 175.819 15.4394L175.829 14.0588C175.765 14.135 175.624 14.2042 175.406 14.2664C175.192 14.3244 174.945 14.3758 174.663 14.4205C174.386 14.461 174.115 14.4972 173.85 14.5293C173.59 14.5571 173.379 14.581 173.217 14.6011C172.825 14.6492 172.457 14.7295 172.116 14.8419C171.778 14.9501 171.504 15.1163 171.294 15.3405C171.087 15.5605 170.983 15.8623 170.98 16.2458C170.976 16.7699 171.167 17.1677 171.552 17.4392C171.942 17.7064 172.438 17.8423 173.039 17.847Z" fill="#111827"/>
<path d="M194.173 12.3723L192.785 12.6076C192.724 12.3739 192.623 12.1421 192.481 11.9124C192.343 11.6789 192.142 11.4771 191.878 11.307C191.613 11.1369 191.263 11.0282 190.826 10.9809C190.229 10.9162 189.716 10.9999 189.288 11.2321C188.865 11.4606 188.63 11.7845 188.585 12.2039C188.545 12.5768 188.648 12.8859 188.896 13.1313C189.144 13.3768 189.548 13.6027 190.108 13.8092L191.519 14.3221C192.369 14.6285 192.984 15.0231 193.364 15.5058C193.745 15.9843 193.899 16.5646 193.825 17.2467C193.765 17.8059 193.549 18.2884 193.18 18.6941C192.814 19.1002 192.332 19.3994 191.732 19.5917C191.133 19.7839 190.454 19.8389 189.695 19.7567C188.7 19.6488 187.899 19.3435 187.294 18.8407C186.688 18.3378 186.343 17.6618 186.26 16.8126L187.722 16.611C187.8 17.151 188.014 17.5728 188.363 17.8763C188.715 18.1803 189.199 18.3656 189.813 18.4322C190.512 18.5079 191.083 18.4198 191.526 18.1677C191.974 17.9119 192.221 17.5743 192.266 17.1549C192.303 16.816 192.215 16.5193 192.003 16.2648C191.791 16.0061 191.445 15.7929 190.966 15.6252L189.381 15.0677C188.51 14.759 187.889 14.3595 187.517 13.8692C187.151 13.3751 187.004 12.7913 187.077 12.1177C187.137 11.5669 187.344 11.0965 187.699 10.7063C188.059 10.3166 188.521 10.0302 189.085 9.84703C189.653 9.66431 190.281 9.61014 190.967 9.68451C191.933 9.78918 192.668 10.0832 193.173 10.5665C193.682 11.0503 194.016 11.6522 194.173 12.3723Z" fill="#111827"/>
<path d="M209.412 14.7733L208.008 14.8747C207.97 14.6363 207.891 14.3959 207.772 14.1536C207.657 13.908 207.476 13.6879 207.229 13.4933C206.982 13.2987 206.644 13.157 206.214 13.0681C205.626 12.9466 205.107 12.9809 204.659 13.1711C204.216 13.358 203.951 13.658 203.866 14.0711C203.79 14.4384 203.864 14.756 204.087 15.024C204.31 15.2921 204.691 15.5556 205.229 15.8148L206.584 16.4602C207.4 16.8465 207.975 17.2981 208.307 17.8151C208.641 18.3278 208.738 18.9201 208.6 19.592C208.486 20.1429 208.225 20.6026 207.819 20.9711C207.416 21.3404 206.907 21.5921 206.292 21.7261C205.677 21.86 204.996 21.8499 204.249 21.6955C203.268 21.4929 202.5 21.1123 201.946 20.5539C201.391 19.9954 201.112 19.2895 201.11 18.4362L202.585 18.3754C202.612 18.9205 202.784 19.3608 203.102 19.6962C203.424 20.0326 203.888 20.2633 204.493 20.3883C205.181 20.5306 205.758 20.4975 206.223 20.289C206.693 20.0772 206.971 19.7647 207.057 19.3516C207.126 19.0177 207.067 18.714 206.879 18.4403C206.693 18.1625 206.37 17.9172 205.909 17.7045L204.384 16.9978C203.546 16.6073 202.966 16.1502 202.644 15.6266C202.326 15.0998 202.236 14.5046 202.373 13.841C202.485 13.2985 202.737 12.8501 203.128 12.4957C203.523 12.1422 204.01 11.9012 204.589 11.7729C205.172 11.6454 205.802 11.6514 206.478 11.7911C207.429 11.9877 208.133 12.3507 208.59 12.8802C209.05 13.4104 209.324 14.0415 209.412 14.7733Z" fill="#111827"/>
<path d="M216.353 24.168L219.135 14.7524L220.582 15.18L217.799 24.5955L216.353 24.168ZM220.335 13.4005C220.053 13.3172 219.838 13.1493 219.691 12.8968C219.547 12.6456 219.515 12.3851 219.595 12.1154C219.675 11.8457 219.843 11.6444 220.1 11.5115C220.361 11.3798 220.633 11.3556 220.915 11.439C221.197 11.5223 221.409 11.6896 221.553 11.9409C221.7 12.1933 221.734 12.4544 221.655 12.7241C221.575 12.9938 221.404 13.1945 221.143 13.3262C220.886 13.4591 220.617 13.4839 220.335 13.4005Z" fill="#111827"/>
<path d="M230.162 28.7712C229.337 28.4474 228.69 27.967 228.222 27.3299C227.757 26.6943 227.489 25.955 227.417 25.1119C227.349 24.2703 227.5 23.3775 227.87 22.4334C228.244 21.4814 228.743 20.718 229.366 20.1434C229.994 19.5703 230.695 19.2088 231.467 19.059C232.244 18.9107 233.045 18.9984 233.87 19.3222C234.696 19.646 235.341 20.1257 235.805 20.7612C236.274 21.3984 236.541 22.1397 236.608 22.9852C236.678 23.8322 236.527 24.7318 236.153 25.6838C235.783 26.6279 235.284 27.3845 234.658 27.9536C234.036 28.5243 233.336 28.8838 232.559 29.0321C231.787 29.182 230.988 29.095 230.162 28.7712ZM230.657 27.5098C231.284 27.7557 231.863 27.7974 232.394 27.6349C232.924 27.4724 233.39 27.1674 233.79 26.7201C234.189 26.2728 234.509 25.7436 234.749 25.1327C234.989 24.5218 235.115 23.9145 235.128 23.3106C235.14 22.7067 235.008 22.1628 234.731 21.6787C234.454 21.1946 234.002 20.8296 233.375 20.5837C232.749 20.3377 232.169 20.298 231.637 20.4645C231.105 20.631 230.638 20.9399 230.236 21.3912C229.835 21.8425 229.514 22.3736 229.275 22.9845C229.035 23.5954 228.91 24.2008 228.898 24.8007C228.887 25.4006 229.021 25.9406 229.3 26.4207C229.578 26.9008 230.031 27.2638 230.657 27.5098Z" fill="#111827"/>
<path d="M245.728 28.6146L243.01 33.8583L241.671 33.164L246.189 24.4473L247.483 25.118L246.777 26.48L246.89 26.5388C247.324 26.2021 247.819 26.0072 248.374 25.9544C248.932 25.8977 249.539 26.0399 250.198 26.3812C250.788 26.6871 251.242 27.0759 251.559 27.5474C251.878 28.0152 252.034 28.5569 252.027 29.1724C252.022 29.7841 251.827 30.4608 251.442 31.2023L248.571 36.741L247.232 36.0468L250.056 30.5989C250.411 29.9141 250.51 29.2885 250.352 28.722C250.197 28.1518 249.809 27.7059 249.188 27.3842C248.761 27.1626 248.33 27.0573 247.898 27.0681C247.469 27.0809 247.065 27.2151 246.688 27.4707C246.311 27.7264 245.991 28.1076 245.728 28.6146Z" fill="#111827"/>
<path d="M258.226 42.4231C257.706 42.0815 257.299 41.6735 257.004 41.1992C256.711 40.7213 256.563 40.2134 256.559 39.6757C256.558 39.1344 256.733 38.5966 257.084 38.0624C257.393 37.5923 257.736 37.2721 258.113 37.1017C258.492 36.9278 258.892 36.859 259.311 36.8952C259.731 36.9314 260.155 37.0314 260.583 37.1952C261.017 37.3577 261.44 37.5393 261.854 37.7398C262.395 38.0033 262.831 38.2209 263.161 38.3924C263.498 38.5627 263.765 38.6537 263.961 38.6654C264.161 38.6794 264.328 38.5849 264.461 38.3819L264.489 38.3392C264.835 37.8121 264.96 37.3078 264.864 36.8262C264.771 36.347 264.434 35.9166 263.853 35.5352C263.251 35.1397 262.693 34.9615 262.178 35.0004C261.663 35.0392 261.238 35.1626 260.902 35.3705L259.986 34.1569C260.528 33.7987 261.068 33.5977 261.606 33.554C262.151 33.509 262.671 33.5705 263.168 33.7386C263.67 33.9054 264.128 34.1245 264.541 34.396C264.804 34.5692 265.086 34.8001 265.386 35.0889C265.691 35.3764 265.941 35.7216 266.135 36.1245C266.333 36.5298 266.411 36.9967 266.37 37.5253C266.329 38.0539 266.094 38.6441 265.666 39.2958L262.113 44.7019L260.853 43.8736L261.583 42.7624L261.519 42.7203C261.316 42.8422 261.048 42.9391 260.716 43.0111C260.383 43.083 260.004 43.0814 259.579 43.0063C259.154 42.9311 258.703 42.7367 258.226 42.4231ZM259.163 41.417C259.661 41.7446 260.146 41.9228 260.616 41.9516C261.091 41.9827 261.517 41.9007 261.895 41.7055C262.276 41.5126 262.58 41.2453 262.804 40.9034L263.562 39.7495C263.467 39.7785 263.311 39.7601 263.094 39.6941C262.883 39.627 262.647 39.5358 262.387 39.4205C262.132 39.304 261.884 39.1875 261.645 39.0709C261.411 38.9531 261.221 38.8586 261.074 38.7875C260.718 38.6149 260.366 38.4831 260.018 38.3921C259.676 38.2998 259.356 38.2907 259.057 38.3648C258.764 38.4377 258.513 38.6344 258.302 38.9549C258.014 39.3929 257.959 39.8306 258.136 40.2679C258.318 40.704 258.66 41.087 259.163 41.417Z" fill="#111827"/>
<path d="M279.029 44.7879L278.232 45.7878L274.253 42.6176L275.049 41.6177L279.029 44.7879ZM277.675 40.7018L278.855 41.6417L273.024 48.9612C272.758 49.2945 272.608 49.583 272.572 49.8266C272.541 50.0696 272.58 50.2805 272.689 50.4593C272.803 50.6374 272.947 50.7955 273.12 50.9336C273.25 51.0371 273.362 51.1154 273.456 51.1685C273.552 51.2182 273.63 51.2579 273.688 51.2878L273.083 52.5389C272.979 52.5051 272.844 52.4462 272.677 52.362C272.507 52.2812 272.312 52.1531 272.092 51.9779C271.759 51.7124 271.489 51.3805 271.283 50.9823C271.081 50.5867 270.991 50.1587 271.015 49.6981C271.042 49.2402 271.233 48.7879 271.589 48.3412L277.675 40.7018Z" fill="#111827"/>
<path d="M282.098 60.5088C281.415 59.8546 280.97 59.1394 280.763 58.3633C280.562 57.5871 280.589 56.7984 280.843 55.9971C281.102 55.1958 281.58 54.4319 282.275 53.7054C282.971 52.979 283.716 52.4654 284.511 52.1648C285.313 51.864 286.101 51.7865 286.875 51.9324C287.656 52.0781 288.367 52.4575 289.007 53.0704C289.376 53.424 289.682 53.8348 289.924 54.3027C290.167 54.7706 290.303 55.2845 290.333 55.8445C290.366 56.4013 290.254 56.99 289.996 57.6104C289.739 58.2309 289.293 58.872 288.66 59.5339L288.217 59.9956L282.751 54.762L283.652 53.8201L288.011 57.9928C288.394 57.5926 288.656 57.1589 288.796 56.6917C288.94 56.2275 288.953 55.7646 288.834 55.303C288.719 54.8444 288.464 54.4265 288.07 54.0493C287.636 53.6338 287.157 53.382 286.634 53.2939C286.116 53.2058 285.61 53.2515 285.113 53.4311C284.617 53.6107 284.181 53.8959 283.807 54.2869L283.206 54.9148C282.693 55.4504 282.351 55.9929 282.179 56.5422C282.013 57.0913 282.004 57.622 282.151 58.1341C282.3 58.6433 282.595 59.1085 283.035 59.5299C283.322 59.804 283.619 60.0115 283.926 60.1525C284.24 60.2933 284.559 60.3632 284.885 60.3621C285.213 60.358 285.541 60.277 285.869 60.1191L286.639 61.4225C286.187 61.6734 285.7 61.8091 285.179 61.8295C284.661 61.8469 284.137 61.7468 283.608 61.5292C283.082 61.3086 282.578 60.9685 282.098 60.5088Z" fill="#111827"/>
<path d="M298.234 77.22L308.764 69.4421L309.706 70.7172L300.307 77.6596L303.922 82.5543L302.791 83.3898L298.234 77.22Z" fill="#111827"/>
<path d="M309.514 93.6876C309.033 92.873 308.798 92.0642 308.808 91.2611C308.825 90.4595 309.063 89.7073 309.524 89.0044C309.991 88.3031 310.657 87.6967 311.523 87.1852C312.389 86.6736 313.245 86.3806 314.092 86.306C314.945 86.2329 315.724 86.3712 316.431 86.721C317.143 87.0723 317.725 87.6295 318.176 88.3927C318.436 88.8329 318.619 89.3111 318.726 89.827C318.833 90.343 318.825 90.8746 318.703 91.4219C318.585 91.967 318.317 92.5035 317.902 93.0312C317.486 93.559 316.884 94.0558 316.095 94.5218L315.544 94.8469L311.695 88.3308L312.818 87.6676L315.887 92.8629C316.364 92.5811 316.733 92.2343 316.995 91.8224C317.258 91.4142 317.395 90.9719 317.406 90.4955C317.419 90.0227 317.286 89.5515 317.009 89.0819C316.703 88.5646 316.31 88.1928 315.83 87.9666C315.356 87.7419 314.856 87.649 314.329 87.6878C313.803 87.7266 313.307 87.8836 312.841 88.1589L312.092 88.601C311.454 88.9782 310.978 89.4079 310.664 89.8903C310.356 90.3742 310.203 90.8826 310.206 91.4154C310.213 91.946 310.371 92.4736 310.681 92.9983C310.882 93.3395 311.112 93.6195 311.37 93.8384C311.634 94.0587 311.923 94.2123 312.236 94.2992C312.554 94.384 312.892 94.3947 313.25 94.3314L313.639 95.7942C313.136 95.9136 312.63 95.9127 312.123 95.7916C311.62 95.6683 311.143 95.4304 310.692 95.078C310.245 94.7234 309.852 94.2599 309.514 93.6876Z" fill="#111827"/>
<path d="M316.766 106.776C316.506 106.211 316.378 105.649 316.379 105.09C316.385 104.53 316.529 104.021 316.811 103.563C317.097 103.103 317.531 102.74 318.112 102.474C318.623 102.24 319.084 102.15 319.494 102.206C319.908 102.26 320.283 102.414 320.62 102.667C320.956 102.921 321.262 103.23 321.538 103.596C321.819 103.964 322.082 104.343 322.326 104.733C322.645 105.243 322.899 105.659 323.088 105.98C323.283 106.303 323.461 106.521 323.621 106.635C323.783 106.753 323.974 106.762 324.195 106.66L324.241 106.639C324.815 106.376 325.188 106.015 325.362 105.556C325.537 105.1 325.48 104.557 325.191 103.925C324.891 103.271 324.512 102.823 324.055 102.583C323.598 102.342 323.172 102.221 322.777 102.219L322.645 100.705C323.294 100.688 323.858 100.805 324.338 101.053C324.823 101.304 325.232 101.633 325.563 102.039C325.9 102.447 326.172 102.875 326.378 103.325C326.509 103.611 326.626 103.956 326.726 104.36C326.833 104.766 326.861 105.191 326.812 105.636C326.765 106.084 326.583 106.522 326.267 106.948C325.952 107.374 325.439 107.749 324.731 108.074L318.851 110.771L318.222 109.399L319.43 108.845L319.398 108.776C319.162 108.771 318.884 108.712 318.564 108.596C318.243 108.48 317.923 108.278 317.603 107.989C317.283 107.699 317.004 107.295 316.766 106.776ZM318.093 106.421C318.342 106.963 318.658 107.371 319.042 107.645C319.427 107.923 319.832 108.08 320.256 108.115C320.682 108.154 321.081 108.089 321.452 107.918L322.707 107.343C322.611 107.316 322.488 107.218 322.34 107.047C322.197 106.878 322.045 106.676 321.885 106.44C321.731 106.206 321.584 105.976 321.442 105.75C321.307 105.526 321.196 105.345 321.109 105.206C320.899 104.871 320.671 104.573 320.424 104.311C320.183 104.051 319.916 103.873 319.624 103.778C319.337 103.684 319.02 103.717 318.671 103.877C318.195 104.096 317.915 104.437 317.833 104.902C317.756 105.368 317.843 105.874 318.093 106.421Z" fill="#111827"/>
<path d="M323.558 122.701C323.299 121.925 323.267 121.174 323.461 120.449C323.66 119.723 324.063 119.072 324.671 118.497C325.283 117.921 326.082 117.468 327.069 117.14C328.047 116.814 328.952 116.699 329.784 116.795C330.615 116.891 331.326 117.173 331.918 117.641C332.509 118.109 332.936 118.735 333.197 119.519C333.399 120.126 333.457 120.638 333.372 121.057C333.292 121.479 333.156 121.825 332.963 122.096C332.776 122.37 332.619 122.586 332.492 122.745L332.532 122.866L337.117 121.34L337.594 122.771L325.173 126.906L324.713 125.523L326.144 125.047L326.087 124.877C325.883 124.828 325.619 124.75 325.295 124.642C324.976 124.533 324.655 124.332 324.333 124.039C324.015 123.746 323.757 123.299 323.558 122.701ZM324.908 122.467C325.099 123.041 325.41 123.477 325.841 123.773C326.276 124.069 326.795 124.23 327.398 124.259C328.004 124.286 328.659 124.183 329.362 123.948C330.058 123.717 330.633 123.413 331.087 123.037C331.545 122.66 331.854 122.225 332.013 121.732C332.177 121.238 332.161 120.699 331.967 120.117C331.766 119.511 331.442 119.057 330.996 118.756C330.555 118.458 330.036 118.296 329.439 118.271C328.848 118.247 328.225 118.345 327.57 118.563C326.907 118.784 326.338 119.085 325.863 119.468C325.394 119.853 325.066 120.299 324.88 120.806C324.7 121.315 324.709 121.869 324.908 122.467Z" fill="#111827"/>
<path d="M328.523 139.359C328.32 138.435 328.35 137.593 328.612 136.834C328.878 136.077 329.34 135.438 329.998 134.914C330.661 134.394 331.483 134.027 332.466 133.812C333.448 133.598 334.353 133.587 335.181 133.782C336.014 133.979 336.711 134.354 337.272 134.908C337.839 135.464 338.217 136.176 338.406 137.042C338.515 137.541 338.54 138.053 338.48 138.576C338.42 139.1 338.246 139.602 337.959 140.084C337.676 140.564 337.254 140.99 336.694 141.361C336.134 141.732 335.406 142.016 334.511 142.211L333.887 142.348L332.271 134.954L333.545 134.676L334.833 140.571C335.374 140.452 335.834 140.239 336.211 139.929C336.589 139.624 336.858 139.247 337.017 138.798C337.177 138.353 337.199 137.864 337.082 137.331C336.954 136.744 336.697 136.268 336.312 135.903C335.932 135.541 335.486 135.296 334.974 135.168C334.462 135.04 333.941 135.034 333.413 135.15L332.563 135.335C331.839 135.494 331.252 135.753 330.803 136.113C330.359 136.476 330.055 136.911 329.891 137.418C329.731 137.924 329.716 138.474 329.846 139.07C329.931 139.457 330.062 139.795 330.238 140.083C330.42 140.375 330.646 140.611 330.916 140.792C331.191 140.972 331.509 141.088 331.869 141.14L331.781 142.651C331.265 142.607 330.785 142.448 330.342 142.174C329.902 141.899 329.524 141.524 329.206 141.048C328.892 140.572 328.664 140.009 328.523 139.359Z" fill="#111827"/>
<path d="M331.164 151.367L340.908 150.159L341.087 151.605L339.615 151.788L339.628 151.889C340.132 152.007 340.563 152.28 340.921 152.708C341.279 153.136 341.494 153.642 341.566 154.225C341.58 154.335 341.595 154.473 341.611 154.638C341.627 154.804 341.636 154.929 341.638 155.015L340.116 155.204C340.122 155.151 340.127 155.033 340.13 154.848C340.137 154.666 340.129 154.476 340.104 154.278C340.045 153.804 339.894 153.393 339.649 153.046C339.409 152.702 339.102 152.444 338.728 152.271C338.359 152.102 337.955 152.045 337.515 152.099L331.349 152.864L331.164 151.367Z" fill="#111827"/>
</svg>
