<svg width="36" height="36" viewBox="0 0 36 36" fill="none" xmlns="http://www.w3.org/2000/svg">
<path fill-rule="evenodd" clip-rule="evenodd" d="M18 36C27.9411 36 36 27.9411 36 18C36 8.05888 27.9411 0 18 0C8.05888 0 0 8.05888 0 18C0 27.9411 8.05888 36 18 36ZM6.78086 27.5238C4.5998 24.957 3.2839 21.6322 3.2839 18V17.9964C9.18502 17.9375 14.0329 17.1553 18.3963 15.6729C18.7639 16.4626 19.1204 17.2692 19.4655 18.0923C18.909 18.2767 18.3616 18.4826 17.8229 18.7094C13.4865 20.5346 9.82699 23.6638 6.78086 27.5238ZM9.17368 29.7764C11.6326 31.6224 14.6886 32.7161 18 32.7161C19.9944 32.7161 21.896 32.3193 23.6306 31.6005C22.8548 27.8784 21.8487 24.3933 20.6615 21.1446C20.1278 21.3159 19.6048 21.5102 19.0926 21.7257C15.3098 23.318 12.0083 26.1244 9.17368 29.7764ZM23.8785 20.4161C24.9511 23.4031 25.8757 26.5744 26.6187 29.9294C29.5331 27.8203 31.644 24.6693 32.4052 21.0229C29.3143 20.2237 26.4798 20.0625 23.8785 20.4161ZM22.6759 17.2901C25.7793 16.7583 29.1266 16.8655 32.7137 17.7271C32.6582 14.685 31.6798 11.8684 30.0467 9.54556C27.2222 11.5414 24.427 13.1918 21.4545 14.4883C21.8761 15.4016 22.2835 16.3357 22.6759 17.2901ZM16.9293 12.712C13.0866 13.9652 8.82077 14.6367 3.65105 14.7188C4.6755 10.2202 7.76117 6.50561 11.8621 4.62111C13.6627 7.05701 15.3709 9.75377 16.9293 12.712ZM20.0131 11.5466C22.7252 10.377 25.2763 8.88691 27.8643 7.0793C25.2545 4.7204 21.7951 3.2839 18 3.2839C17.0205 3.2839 16.0634 3.3796 15.1373 3.56217C16.8714 5.99461 18.512 8.65623 20.0131 11.5466Z" fill="#111827"/>
</svg>
