<svg width="36" height="36" viewBox="0 0 36 36" fill="none" xmlns="http://www.w3.org/2000/svg">
<path fill-rule="evenodd" clip-rule="evenodd" d="M17.9999 27.8182C23.4224 27.8182 27.8181 23.4224 27.8181 18C27.8181 12.5776 23.4224 8.18182 17.9999 8.18182C12.5775 8.18182 8.18176 12.5776 8.18176 18C8.18176 23.4224 12.5775 27.8182 17.9999 27.8182ZM17.9999 24.5455C21.6148 24.5455 24.5454 21.6149 24.5454 18C24.5454 14.385 21.6148 11.4546 17.9999 11.4546C14.385 11.4546 11.4545 14.385 11.4545 18C11.4545 21.6149 14.385 24.5455 17.9999 24.5455Z" fill="#111827"/>
<path d="M27.8181 6.54547C26.9144 6.54547 26.1818 7.2781 26.1818 8.18183C26.1818 9.08557 26.9144 9.8182 27.8181 9.8182C28.7219 9.8182 29.4545 9.08557 29.4545 8.18183C29.4545 7.2781 28.7219 6.54547 27.8181 6.54547Z" fill="#111827"/>
<path fill-rule="evenodd" clip-rule="evenodd" d="M1.07012 5.36083C0 7.46105 0 10.2104 0 15.7091V20.2909C0 25.7896 0 28.539 1.07012 30.6391C2.01142 32.4866 3.5134 33.9886 5.36083 34.9298C7.46105 36 10.2104 36 15.7091 36H20.2909C25.7896 36 28.539 36 30.6391 34.9298C32.4866 33.9886 33.9886 32.4866 34.9298 30.6391C36 28.539 36 25.7896 36 20.2909V15.7091C36 10.2104 36 7.46105 34.9298 5.36083C33.9886 3.5134 32.4866 2.01142 30.6391 1.07012C28.539 0 25.7896 0 20.2909 0H15.7091C10.2104 0 7.46105 0 5.36083 1.07012C3.5134 2.01142 2.01142 3.5134 1.07012 5.36083ZM20.2909 3.27273H15.7091C12.9057 3.27273 11 3.27528 9.52704 3.39562C8.09221 3.51285 7.35847 3.72533 6.84661 3.98613C5.615 4.61368 4.61368 5.615 3.98613 6.84661C3.72533 7.35847 3.51285 8.09221 3.39562 9.52704C3.27528 11 3.27273 12.9057 3.27273 15.7091V20.2909C3.27273 23.0943 3.27528 24.9999 3.39562 26.4729C3.51285 27.9079 3.72533 28.6416 3.98613 29.1535C4.61368 30.385 5.615 31.3863 6.84661 32.0138C7.35847 32.2747 8.09221 32.4872 9.52704 32.6044C11 32.7247 12.9057 32.7273 15.7091 32.7273H20.2909C23.0943 32.7273 24.9999 32.7247 26.4729 32.6044C27.9079 32.4872 28.6416 32.2747 29.1535 32.0138C30.385 31.3863 31.3863 30.385 32.0138 29.1535C32.2747 28.6416 32.4872 27.9079 32.6044 26.4729C32.7247 24.9999 32.7273 23.0943 32.7273 20.2909V15.7091C32.7273 12.9057 32.7247 11 32.6044 9.52704C32.4872 8.09221 32.2747 7.35847 32.0138 6.84661C31.3863 5.615 30.385 4.61368 29.1535 3.98613C28.6416 3.72533 27.9079 3.51285 26.4729 3.39562C24.9999 3.27528 23.0943 3.27273 20.2909 3.27273Z" fill="#111827"/>
</svg>
