<svg width="36" height="35" viewBox="0 0 36 35" fill="none" xmlns="http://www.w3.org/2000/svg">
<path fill-rule="evenodd" clip-rule="evenodd" d="M8.15653 34.3434V11.1708H0.455273V34.3433H8.15653V34.3434ZM4.30671 8.00817C6.99145 8.00817 8.66384 6.2273 8.66384 4.00366C8.61307 1.7306 6.99145 0 4.35705 0C1.72223 7.03125e-05 0 1.73067 0 4.00373C0 6.22737 1.67147 8.00824 4.25602 8.00824L4.30671 8.00817ZM12.4189 34.3434C12.4189 34.3434 12.5199 13.345 12.4189 11.1709H20.1213V14.5314H20.0702C21.083 12.9501 22.9076 10.6267 27.0621 10.6267C32.1306 10.6267 35.9296 13.9387 35.9296 21.0564V34.3434H28.2284V21.9468C28.2284 18.8319 27.1141 16.7063 24.3263 16.7063C22.1991 16.7063 20.9313 18.1393 20.3746 19.5244C20.1709 20.0175 20.1213 20.71 20.1213 21.4026V34.3434H12.4189Z" fill="#111827"/>
</svg>
