<svg width="200" height="144" viewBox="0 0 200 144" fill="none" xmlns="http://www.w3.org/2000/svg">
<path d="M100 19.4162C128.058 19.4162 150.951 41.4442 152.372 69.1377H200C191.012 56.0399 149.664 0 100 0C50.3361 0 8.9879 56.0207 0 69.1377H47.6282C49.0493 41.425 71.9608 19.4162 100 19.4162Z" fill="#304EBB"/>
<path d="M100 124.294C71.9416 124.294 49.0493 102.266 47.6282 74.5727H0C8.9879 87.6704 50.3361 143.71 100 143.71C149.664 143.71 191.031 87.6704 200 74.5727H152.372C150.97 102.285 128.058 124.294 100 124.294Z" fill="#304EBB"/>
<path d="M105.166 41.4826L69.5026 77.1461C62.6464 84.0023 62.6464 95.1795 69.5026 102.016L69.7138 102.247C76.57 109.103 87.7281 109.103 94.6034 102.247L130.267 66.5834C137.123 59.7273 137.123 48.5692 130.267 41.6938L130.056 41.4826C123.2 34.6264 112.041 34.6264 105.166 41.4826ZM111.139 47.8394L93.4511 65.4119L109.026 80.9871L91.185 98.8284C86.2109 103.803 78.1064 103.803 73.1323 98.8284L72.9211 98.598C67.947 93.6239 67.947 85.5194 72.9211 80.5454L89.9366 63.5298L108.431 45.1123C113.616 39.9654 122.066 39.9654 127.252 45.1123L127.482 45.3428C127.905 45.7653 128.289 46.207 128.635 46.6679C123.411 42.7309 115.902 43.115 111.139 47.8394Z" fill="#304EBB"/>
</svg>
